G04 #@! TF.GenerationSoftware,KiCad,Pcbnew,6.0.10-86aedd382b~118~ubuntu20.04.1*
G04 #@! TF.CreationDate,2023-01-08T00:17:35-08:00*
G04 #@! TF.ProjectId,stingray,7374696e-6772-4617-992e-6b696361645f,A1*
G04 #@! TF.SameCoordinates,Original*
G04 #@! TF.FileFunction,Soldermask,Bot*
G04 #@! TF.FilePolarity,Negative*
%FSLAX46Y46*%
G04 Gerber Fmt 4.6, Leading zero omitted, Abs format (unit mm)*
G04 Created by KiCad (PCBNEW 6.0.10-86aedd382b~118~ubuntu20.04.1) date 2023-01-08 00:17:35*
%MOMM*%
%LPD*%
G01*
G04 APERTURE LIST*
G04 Aperture macros list*
%AMRoundRect*
0 Rectangle with rounded corners*
0 $1 Rounding radius*
0 $2 $3 $4 $5 $6 $7 $8 $9 X,Y pos of 4 corners*
0 Add a 4 corners polygon primitive as box body*
4,1,4,$2,$3,$4,$5,$6,$7,$8,$9,$2,$3,0*
0 Add four circle primitives for the rounded corners*
1,1,$1+$1,$2,$3*
1,1,$1+$1,$4,$5*
1,1,$1+$1,$6,$7*
1,1,$1+$1,$8,$9*
0 Add four rect primitives between the rounded corners*
20,1,$1+$1,$2,$3,$4,$5,0*
20,1,$1+$1,$4,$5,$6,$7,0*
20,1,$1+$1,$6,$7,$8,$9,0*
20,1,$1+$1,$8,$9,$2,$3,0*%
G04 Aperture macros list end*
%ADD10RoundRect,0.250000X-1.550000X0.650000X-1.550000X-0.650000X1.550000X-0.650000X1.550000X0.650000X0*%
%ADD11O,3.600000X1.800000*%
%ADD12R,1.727200X1.727200*%
%ADD13O,1.727200X1.727200*%
%ADD14R,1.600000X1.600000*%
%ADD15C,1.600000*%
%ADD16R,1.500000X1.500000*%
%ADD17C,1.500000*%
%ADD18C,2.300000*%
%ADD19O,1.600000X1.600000*%
%ADD20C,5.200000*%
%ADD21R,2.200000X2.200000*%
%ADD22O,2.200000X2.200000*%
G04 APERTURE END LIST*
D10*
X107000000Y-95770000D03*
D11*
X107000000Y-99580000D03*
X107000000Y-103390000D03*
X107000000Y-107200000D03*
D12*
X166675000Y-117465000D03*
D13*
X166675000Y-120005000D03*
X164135000Y-117465000D03*
X164135000Y-120005000D03*
X161595000Y-117465000D03*
X161595000Y-120005000D03*
X159055000Y-117465000D03*
X159055000Y-120005000D03*
X156515000Y-117465000D03*
X156515000Y-120005000D03*
X153975000Y-117465000D03*
X153975000Y-120005000D03*
X151435000Y-117465000D03*
X151435000Y-120005000D03*
X148895000Y-117465000D03*
X148895000Y-120005000D03*
X146355000Y-117465000D03*
X146355000Y-120005000D03*
X143815000Y-117465000D03*
X143815000Y-120005000D03*
X141275000Y-117465000D03*
X141275000Y-120005000D03*
X138735000Y-117465000D03*
X138735000Y-120005000D03*
X136195000Y-117465000D03*
X136195000Y-120005000D03*
X133655000Y-117465000D03*
X133655000Y-120005000D03*
X131115000Y-117465000D03*
X131115000Y-120005000D03*
X128575000Y-117465000D03*
X128575000Y-120005000D03*
X126035000Y-117465000D03*
X126035000Y-120005000D03*
X123495000Y-117465000D03*
X123495000Y-120005000D03*
X120955000Y-117465000D03*
X120955000Y-120005000D03*
X118415000Y-117465000D03*
X118415000Y-120005000D03*
X115875000Y-117465000D03*
X115875000Y-120005000D03*
X113335000Y-117465000D03*
X113335000Y-120005000D03*
X110795000Y-117465000D03*
X110795000Y-120005000D03*
D14*
X128000000Y-84000000D03*
D15*
X128000000Y-89000000D03*
D16*
X149540000Y-89000000D03*
D17*
X147000000Y-89000000D03*
X144460000Y-89000000D03*
D18*
X143000000Y-97800000D03*
X120900000Y-97800000D03*
X117700000Y-105420000D03*
X124100000Y-105420000D03*
X143000000Y-105420000D03*
D15*
X154000000Y-75500000D03*
D19*
X154000000Y-83120000D03*
D15*
X140000000Y-75500000D03*
D19*
X140000000Y-83120000D03*
D15*
X147000000Y-83120000D03*
D19*
X147000000Y-75500000D03*
D20*
X171755000Y-70475000D03*
X171755000Y-118735000D03*
X105715000Y-73650000D03*
X105715000Y-115560000D03*
D12*
X166675000Y-69205000D03*
D13*
X166675000Y-71745000D03*
X164135000Y-69205000D03*
X164135000Y-71745000D03*
X161595000Y-69205000D03*
X161595000Y-71745000D03*
X159055000Y-69205000D03*
X159055000Y-71745000D03*
X156515000Y-69205000D03*
X156515000Y-71745000D03*
X153975000Y-69205000D03*
X153975000Y-71745000D03*
X151435000Y-69205000D03*
X151435000Y-71745000D03*
X148895000Y-69205000D03*
X148895000Y-71745000D03*
X146355000Y-69205000D03*
X146355000Y-71745000D03*
X143815000Y-69205000D03*
X143815000Y-71745000D03*
X141275000Y-69205000D03*
X141275000Y-71745000D03*
X138735000Y-69205000D03*
X138735000Y-71745000D03*
X136195000Y-69205000D03*
X136195000Y-71745000D03*
X133655000Y-69205000D03*
X133655000Y-71745000D03*
X131115000Y-69205000D03*
X131115000Y-71745000D03*
X128575000Y-69205000D03*
X128575000Y-71745000D03*
X126035000Y-69205000D03*
X126035000Y-71745000D03*
X123495000Y-69205000D03*
X123495000Y-71745000D03*
X120955000Y-69205000D03*
X120955000Y-71745000D03*
X118415000Y-69205000D03*
X118415000Y-71745000D03*
X115875000Y-69205000D03*
X115875000Y-71745000D03*
X113335000Y-69205000D03*
X113335000Y-71745000D03*
X110795000Y-69205000D03*
X110795000Y-71745000D03*
D21*
X152000000Y-97780000D03*
D22*
X152000000Y-105400000D03*
D14*
X116000000Y-84000000D03*
D15*
X116000000Y-89000000D03*
M02*
