G04 #@! TF.GenerationSoftware,KiCad,Pcbnew,6.0.10-86aedd382b~118~ubuntu20.04.1*
G04 #@! TF.CreationDate,2023-01-08T00:17:35-08:00*
G04 #@! TF.ProjectId,stingray,7374696e-6772-4617-992e-6b696361645f,A1*
G04 #@! TF.SameCoordinates,Original*
G04 #@! TF.FileFunction,Legend,Top*
G04 #@! TF.FilePolarity,Positive*
%FSLAX46Y46*%
G04 Gerber Fmt 4.6, Leading zero omitted, Abs format (unit mm)*
G04 Created by KiCad (PCBNEW 6.0.10-86aedd382b~118~ubuntu20.04.1) date 2023-01-08 00:17:35*
%MOMM*%
%LPD*%
G01*
G04 APERTURE LIST*
G04 Aperture macros list*
%AMRoundRect*
0 Rectangle with rounded corners*
0 $1 Rounding radius*
0 $2 $3 $4 $5 $6 $7 $8 $9 X,Y pos of 4 corners*
0 Add a 4 corners polygon primitive as box body*
4,1,4,$2,$3,$4,$5,$6,$7,$8,$9,$2,$3,0*
0 Add four circle primitives for the rounded corners*
1,1,$1+$1,$2,$3*
1,1,$1+$1,$4,$5*
1,1,$1+$1,$6,$7*
1,1,$1+$1,$8,$9*
0 Add four rect primitives between the rounded corners*
20,1,$1+$1,$2,$3,$4,$5,0*
20,1,$1+$1,$4,$5,$6,$7,0*
20,1,$1+$1,$6,$7,$8,$9,0*
20,1,$1+$1,$8,$9,$2,$3,0*%
G04 Aperture macros list end*
%ADD10C,0.150000*%
%ADD11C,0.120000*%
%ADD12R,1.727200X1.727200*%
%ADD13O,1.727200X1.727200*%
%ADD14RoundRect,0.250000X-1.550000X0.650000X-1.550000X-0.650000X1.550000X-0.650000X1.550000X0.650000X0*%
%ADD15O,3.600000X1.800000*%
%ADD16R,1.600000X1.600000*%
%ADD17C,1.600000*%
%ADD18R,1.500000X1.500000*%
%ADD19C,1.500000*%
%ADD20C,2.300000*%
%ADD21O,1.600000X1.600000*%
%ADD22C,5.200000*%
%ADD23R,2.200000X2.200000*%
%ADD24O,2.200000X2.200000*%
G04 APERTURE END LIST*
D10*
X116383214Y-111007142D02*
X116597500Y-111078571D01*
X116954642Y-111078571D01*
X117097500Y-111007142D01*
X117168928Y-110935714D01*
X117240357Y-110792857D01*
X117240357Y-110650000D01*
X117168928Y-110507142D01*
X117097500Y-110435714D01*
X116954642Y-110364285D01*
X116668928Y-110292857D01*
X116526071Y-110221428D01*
X116454642Y-110150000D01*
X116383214Y-110007142D01*
X116383214Y-109864285D01*
X116454642Y-109721428D01*
X116526071Y-109650000D01*
X116668928Y-109578571D01*
X117026071Y-109578571D01*
X117240357Y-109650000D01*
X117668928Y-109578571D02*
X118526071Y-109578571D01*
X118097500Y-111078571D02*
X118097500Y-109578571D01*
X119026071Y-111078571D02*
X119026071Y-109578571D01*
X119740357Y-111078571D02*
X119740357Y-109578571D01*
X120597500Y-111078571D01*
X120597500Y-109578571D01*
X122097500Y-109650000D02*
X121954642Y-109578571D01*
X121740357Y-109578571D01*
X121526071Y-109650000D01*
X121383214Y-109792857D01*
X121311785Y-109935714D01*
X121240357Y-110221428D01*
X121240357Y-110435714D01*
X121311785Y-110721428D01*
X121383214Y-110864285D01*
X121526071Y-111007142D01*
X121740357Y-111078571D01*
X121883214Y-111078571D01*
X122097500Y-111007142D01*
X122168928Y-110935714D01*
X122168928Y-110435714D01*
X121883214Y-110435714D01*
X123668928Y-111078571D02*
X123168928Y-110364285D01*
X122811785Y-111078571D02*
X122811785Y-109578571D01*
X123383214Y-109578571D01*
X123526071Y-109650000D01*
X123597500Y-109721428D01*
X123668928Y-109864285D01*
X123668928Y-110078571D01*
X123597500Y-110221428D01*
X123526071Y-110292857D01*
X123383214Y-110364285D01*
X122811785Y-110364285D01*
X124240357Y-110650000D02*
X124954642Y-110650000D01*
X124097500Y-111078571D02*
X124597500Y-109578571D01*
X125097500Y-111078571D01*
X125883214Y-110364285D02*
X125883214Y-111078571D01*
X125383214Y-109578571D02*
X125883214Y-110364285D01*
X126383214Y-109578571D01*
X128883214Y-110935714D02*
X128811785Y-111007142D01*
X128597500Y-111078571D01*
X128454642Y-111078571D01*
X128240357Y-111007142D01*
X128097500Y-110864285D01*
X128026071Y-110721428D01*
X127954642Y-110435714D01*
X127954642Y-110221428D01*
X128026071Y-109935714D01*
X128097500Y-109792857D01*
X128240357Y-109650000D01*
X128454642Y-109578571D01*
X128597500Y-109578571D01*
X128811785Y-109650000D01*
X128883214Y-109721428D01*
X129454642Y-110650000D02*
X130168928Y-110650000D01*
X129311785Y-111078571D02*
X129811785Y-109578571D01*
X130311785Y-111078571D01*
X130811785Y-111078571D02*
X130811785Y-109578571D01*
X131383214Y-109578571D01*
X131526071Y-109650000D01*
X131597500Y-109721428D01*
X131668928Y-109864285D01*
X131668928Y-110078571D01*
X131597500Y-110221428D01*
X131526071Y-110292857D01*
X131383214Y-110364285D01*
X130811785Y-110364285D01*
X132311785Y-110292857D02*
X132811785Y-110292857D01*
X133026071Y-111078571D02*
X132311785Y-111078571D01*
X132311785Y-109578571D01*
X133026071Y-109578571D01*
X117107023Y-113452380D02*
X116773690Y-112976190D01*
X116535595Y-113452380D02*
X116535595Y-112452380D01*
X116916547Y-112452380D01*
X117011785Y-112500000D01*
X117059404Y-112547619D01*
X117107023Y-112642857D01*
X117107023Y-112785714D01*
X117059404Y-112880952D01*
X117011785Y-112928571D01*
X116916547Y-112976190D01*
X116535595Y-112976190D01*
X117535595Y-112928571D02*
X117868928Y-112928571D01*
X118011785Y-113452380D02*
X117535595Y-113452380D01*
X117535595Y-112452380D01*
X118011785Y-112452380D01*
X118297500Y-112452380D02*
X118630833Y-113452380D01*
X118964166Y-112452380D01*
X120011785Y-113166666D02*
X120487976Y-113166666D01*
X119916547Y-113452380D02*
X120249880Y-112452380D01*
X120583214Y-113452380D01*
X121440357Y-113452380D02*
X120868928Y-113452380D01*
X121154642Y-113452380D02*
X121154642Y-112452380D01*
X121059404Y-112595238D01*
X120964166Y-112690476D01*
X120868928Y-112738095D01*
X109452380Y-101823333D02*
X110166666Y-101823333D01*
X110309523Y-101870952D01*
X110404761Y-101966190D01*
X110452380Y-102109047D01*
X110452380Y-102204285D01*
X110452380Y-100823333D02*
X110452380Y-101394761D01*
X110452380Y-101109047D02*
X109452380Y-101109047D01*
X109595238Y-101204285D01*
X109690476Y-101299523D01*
X109738095Y-101394761D01*
X167952380Y-114738095D02*
X166952380Y-114738095D01*
X166952380Y-114357142D01*
X167000000Y-114261904D01*
X167047619Y-114214285D01*
X167142857Y-114166666D01*
X167285714Y-114166666D01*
X167380952Y-114214285D01*
X167428571Y-114261904D01*
X167476190Y-114357142D01*
X167476190Y-114738095D01*
X167380952Y-113595238D02*
X167333333Y-113690476D01*
X167285714Y-113738095D01*
X167190476Y-113785714D01*
X167142857Y-113785714D01*
X167047619Y-113738095D01*
X167000000Y-113690476D01*
X166952380Y-113595238D01*
X166952380Y-113404761D01*
X167000000Y-113309523D01*
X167047619Y-113261904D01*
X167142857Y-113214285D01*
X167190476Y-113214285D01*
X167285714Y-113261904D01*
X167333333Y-113309523D01*
X167380952Y-113404761D01*
X167380952Y-113595238D01*
X167428571Y-113690476D01*
X167476190Y-113738095D01*
X167571428Y-113785714D01*
X167761904Y-113785714D01*
X167857142Y-113738095D01*
X167904761Y-113690476D01*
X167952380Y-113595238D01*
X167952380Y-113404761D01*
X167904761Y-113309523D01*
X167857142Y-113261904D01*
X167761904Y-113214285D01*
X167571428Y-113214285D01*
X167476190Y-113261904D01*
X167428571Y-113309523D01*
X167380952Y-113404761D01*
X133757142Y-86666666D02*
X133804761Y-86714285D01*
X133852380Y-86857142D01*
X133852380Y-86952380D01*
X133804761Y-87095238D01*
X133709523Y-87190476D01*
X133614285Y-87238095D01*
X133423809Y-87285714D01*
X133280952Y-87285714D01*
X133090476Y-87238095D01*
X132995238Y-87190476D01*
X132900000Y-87095238D01*
X132852380Y-86952380D01*
X132852380Y-86857142D01*
X132900000Y-86714285D01*
X132947619Y-86666666D01*
X132947619Y-86285714D02*
X132900000Y-86238095D01*
X132852380Y-86142857D01*
X132852380Y-85904761D01*
X132900000Y-85809523D01*
X132947619Y-85761904D01*
X133042857Y-85714285D01*
X133138095Y-85714285D01*
X133280952Y-85761904D01*
X133852380Y-86333333D01*
X133852380Y-85714285D01*
X152547619Y-88895238D02*
X152500000Y-88990476D01*
X152404761Y-89085714D01*
X152261904Y-89228571D01*
X152214285Y-89323809D01*
X152214285Y-89419047D01*
X152452380Y-89371428D02*
X152404761Y-89466666D01*
X152309523Y-89561904D01*
X152119047Y-89609523D01*
X151785714Y-89609523D01*
X151595238Y-89561904D01*
X151500000Y-89466666D01*
X151452380Y-89371428D01*
X151452380Y-89180952D01*
X151500000Y-89085714D01*
X151595238Y-88990476D01*
X151785714Y-88942857D01*
X152119047Y-88942857D01*
X152309523Y-88990476D01*
X152404761Y-89085714D01*
X152452380Y-89180952D01*
X152452380Y-89371428D01*
X152452380Y-87990476D02*
X152452380Y-88561904D01*
X152452380Y-88276190D02*
X151452380Y-88276190D01*
X151595238Y-88371428D01*
X151690476Y-88466666D01*
X151738095Y-88561904D01*
X146652380Y-102158095D02*
X145652380Y-102158095D01*
X146652380Y-101586666D02*
X146080952Y-102015238D01*
X145652380Y-101586666D02*
X146223809Y-102158095D01*
X146652380Y-100634285D02*
X146652380Y-101205714D01*
X146652380Y-100920000D02*
X145652380Y-100920000D01*
X145795238Y-101015238D01*
X145890476Y-101110476D01*
X145938095Y-101205714D01*
X157252380Y-79476666D02*
X156776190Y-79810000D01*
X157252380Y-80048095D02*
X156252380Y-80048095D01*
X156252380Y-79667142D01*
X156300000Y-79571904D01*
X156347619Y-79524285D01*
X156442857Y-79476666D01*
X156585714Y-79476666D01*
X156680952Y-79524285D01*
X156728571Y-79571904D01*
X156776190Y-79667142D01*
X156776190Y-80048095D01*
X157252380Y-78524285D02*
X157252380Y-79095714D01*
X157252380Y-78810000D02*
X156252380Y-78810000D01*
X156395238Y-78905238D01*
X156490476Y-79000476D01*
X156538095Y-79095714D01*
X143252380Y-79566666D02*
X142776190Y-79900000D01*
X143252380Y-80138095D02*
X142252380Y-80138095D01*
X142252380Y-79757142D01*
X142300000Y-79661904D01*
X142347619Y-79614285D01*
X142442857Y-79566666D01*
X142585714Y-79566666D01*
X142680952Y-79614285D01*
X142728571Y-79661904D01*
X142776190Y-79757142D01*
X142776190Y-80138095D01*
X142252380Y-79233333D02*
X142252380Y-78614285D01*
X142633333Y-78947619D01*
X142633333Y-78804761D01*
X142680952Y-78709523D01*
X142728571Y-78661904D01*
X142823809Y-78614285D01*
X143061904Y-78614285D01*
X143157142Y-78661904D01*
X143204761Y-78709523D01*
X143252380Y-78804761D01*
X143252380Y-79090476D01*
X143204761Y-79185714D01*
X143157142Y-79233333D01*
X150252380Y-79566666D02*
X149776190Y-79900000D01*
X150252380Y-80138095D02*
X149252380Y-80138095D01*
X149252380Y-79757142D01*
X149300000Y-79661904D01*
X149347619Y-79614285D01*
X149442857Y-79566666D01*
X149585714Y-79566666D01*
X149680952Y-79614285D01*
X149728571Y-79661904D01*
X149776190Y-79757142D01*
X149776190Y-80138095D01*
X149347619Y-79185714D02*
X149300000Y-79138095D01*
X149252380Y-79042857D01*
X149252380Y-78804761D01*
X149300000Y-78709523D01*
X149347619Y-78661904D01*
X149442857Y-78614285D01*
X149538095Y-78614285D01*
X149680952Y-78661904D01*
X150252380Y-79233333D01*
X150252380Y-78614285D01*
X167952380Y-75738095D02*
X166952380Y-75738095D01*
X166952380Y-75357142D01*
X167000000Y-75261904D01*
X167047619Y-75214285D01*
X167142857Y-75166666D01*
X167285714Y-75166666D01*
X167380952Y-75214285D01*
X167428571Y-75261904D01*
X167476190Y-75357142D01*
X167476190Y-75738095D01*
X167952380Y-74690476D02*
X167952380Y-74500000D01*
X167904761Y-74404761D01*
X167857142Y-74357142D01*
X167714285Y-74261904D01*
X167523809Y-74214285D01*
X167142857Y-74214285D01*
X167047619Y-74261904D01*
X167000000Y-74309523D01*
X166952380Y-74404761D01*
X166952380Y-74595238D01*
X167000000Y-74690476D01*
X167047619Y-74738095D01*
X167142857Y-74785714D01*
X167380952Y-74785714D01*
X167476190Y-74738095D01*
X167523809Y-74690476D01*
X167571428Y-74595238D01*
X167571428Y-74404761D01*
X167523809Y-74309523D01*
X167476190Y-74261904D01*
X167380952Y-74214285D01*
X155452380Y-102138095D02*
X154452380Y-102138095D01*
X154452380Y-101900000D01*
X154500000Y-101757142D01*
X154595238Y-101661904D01*
X154690476Y-101614285D01*
X154880952Y-101566666D01*
X155023809Y-101566666D01*
X155214285Y-101614285D01*
X155309523Y-101661904D01*
X155404761Y-101757142D01*
X155452380Y-101900000D01*
X155452380Y-102138095D01*
X155452380Y-100614285D02*
X155452380Y-101185714D01*
X155452380Y-100900000D02*
X154452380Y-100900000D01*
X154595238Y-100995238D01*
X154690476Y-101090476D01*
X154738095Y-101185714D01*
X121757142Y-86666666D02*
X121804761Y-86714285D01*
X121852380Y-86857142D01*
X121852380Y-86952380D01*
X121804761Y-87095238D01*
X121709523Y-87190476D01*
X121614285Y-87238095D01*
X121423809Y-87285714D01*
X121280952Y-87285714D01*
X121090476Y-87238095D01*
X120995238Y-87190476D01*
X120900000Y-87095238D01*
X120852380Y-86952380D01*
X120852380Y-86857142D01*
X120900000Y-86714285D01*
X120947619Y-86666666D01*
X121852380Y-85714285D02*
X121852380Y-86285714D01*
X121852380Y-86000000D02*
X120852380Y-86000000D01*
X120995238Y-86095238D01*
X121090476Y-86190476D01*
X121138095Y-86285714D01*
D11*
X98890000Y-109910000D02*
X108310000Y-109910000D01*
X98890000Y-93060000D02*
X98890000Y-109910000D01*
X108310000Y-93060000D02*
X108310000Y-94720000D01*
X109000000Y-95770000D02*
X109600000Y-95470000D01*
X108310000Y-93060000D02*
X98890000Y-93060000D01*
X108310000Y-96820000D02*
X108310000Y-98530000D01*
X109600000Y-96070000D02*
X109000000Y-95770000D01*
X108310000Y-100630000D02*
X108310000Y-102340000D01*
X108310000Y-109910000D02*
X108310000Y-108250000D01*
X108310000Y-104440000D02*
X108310000Y-106150000D01*
X109600000Y-95470000D02*
X109600000Y-96070000D01*
X102200000Y-93060000D02*
X102200000Y-109910000D01*
D10*
X109525000Y-116195000D02*
X165405000Y-116195000D01*
X109525000Y-121275000D02*
X167945000Y-121275000D01*
X167945000Y-118735000D02*
X165405000Y-118735000D01*
X165405000Y-118735000D02*
X165405000Y-116195000D01*
X168225000Y-117465000D02*
X168225000Y-115915000D01*
X168225000Y-115915000D02*
X166675000Y-115915000D01*
X167945000Y-121275000D02*
X167945000Y-118735000D01*
X109525000Y-121275000D02*
X109525000Y-116195000D01*
D11*
X126960000Y-89221000D02*
X124945000Y-89221000D01*
X131889000Y-87741000D02*
X124111000Y-87741000D01*
X130945000Y-89341000D02*
X129040000Y-89341000D01*
X129229000Y-90421000D02*
X126771000Y-90421000D01*
X130907000Y-89381000D02*
X129040000Y-89381000D01*
X126960000Y-89541000D02*
X125259000Y-89541000D01*
X131757000Y-88101000D02*
X129040000Y-88101000D01*
X131469000Y-88661000D02*
X129040000Y-88661000D01*
X131493000Y-88621000D02*
X129040000Y-88621000D01*
X129964000Y-90101000D02*
X126036000Y-90101000D01*
X126960000Y-87981000D02*
X124195000Y-87981000D01*
X126960000Y-89701000D02*
X125444000Y-89701000D01*
X126960000Y-89061000D02*
X124811000Y-89061000D01*
X131947000Y-87541000D02*
X124053000Y-87541000D01*
X132017000Y-87221000D02*
X123983000Y-87221000D01*
X130741000Y-89541000D02*
X129040000Y-89541000D01*
X126960000Y-89981000D02*
X125834000Y-89981000D01*
X129645000Y-90261000D02*
X126355000Y-90261000D01*
X131790000Y-88021000D02*
X129040000Y-88021000D01*
X131666000Y-88301000D02*
X129040000Y-88301000D01*
X126960000Y-89421000D02*
X125133000Y-89421000D01*
X131584000Y-88461000D02*
X129040000Y-88461000D01*
X131418000Y-88741000D02*
X129040000Y-88741000D01*
X126960000Y-88421000D02*
X124394000Y-88421000D01*
X131090000Y-89181000D02*
X129040000Y-89181000D01*
X132074000Y-86740000D02*
X123926000Y-86740000D01*
X126960000Y-88701000D02*
X124556000Y-88701000D01*
X131189000Y-89061000D02*
X129040000Y-89061000D01*
X132077000Y-86660000D02*
X123923000Y-86660000D01*
X126960000Y-89181000D02*
X124910000Y-89181000D01*
X126960000Y-89381000D02*
X125093000Y-89381000D01*
X126960000Y-88741000D02*
X124582000Y-88741000D01*
X131647000Y-88341000D02*
X129040000Y-88341000D01*
X131365000Y-88821000D02*
X129040000Y-88821000D01*
X130315000Y-82090302D02*
X130315000Y-82890302D01*
X131994000Y-87341000D02*
X124006000Y-87341000D01*
X130697000Y-89581000D02*
X129040000Y-89581000D01*
X130166000Y-89981000D02*
X129040000Y-89981000D01*
X130867000Y-89421000D02*
X129040000Y-89421000D01*
X126960000Y-89581000D02*
X125303000Y-89581000D01*
X126960000Y-88901000D02*
X124691000Y-88901000D01*
X126960000Y-89461000D02*
X125174000Y-89461000D01*
X131914000Y-87661000D02*
X124086000Y-87661000D01*
X132079000Y-86620000D02*
X123921000Y-86620000D01*
X126960000Y-88141000D02*
X124260000Y-88141000D01*
X126960000Y-88941000D02*
X124720000Y-88941000D01*
X131740000Y-88141000D02*
X129040000Y-88141000D01*
X130345000Y-89861000D02*
X129040000Y-89861000D01*
X129098000Y-90461000D02*
X126902000Y-90461000D01*
X126960000Y-89781000D02*
X125546000Y-89781000D01*
X131220000Y-89021000D02*
X129040000Y-89021000D01*
X131627000Y-88381000D02*
X129040000Y-88381000D01*
X126960000Y-89101000D02*
X124844000Y-89101000D01*
X130287000Y-89901000D02*
X129040000Y-89901000D01*
X126960000Y-89501000D02*
X125216000Y-89501000D01*
X130715000Y-82490302D02*
X129915000Y-82490302D01*
X131821000Y-87941000D02*
X124179000Y-87941000D01*
X132061000Y-86900000D02*
X123939000Y-86900000D01*
X130826000Y-89461000D02*
X129040000Y-89461000D01*
X126960000Y-88181000D02*
X124278000Y-88181000D01*
X126960000Y-88781000D02*
X124608000Y-88781000D01*
X131936000Y-87581000D02*
X124064000Y-87581000D01*
X126960000Y-89741000D02*
X125495000Y-89741000D01*
X126960000Y-88621000D02*
X124507000Y-88621000D01*
X126960000Y-88021000D02*
X124210000Y-88021000D01*
X131957000Y-87501000D02*
X124043000Y-87501000D01*
X130784000Y-89501000D02*
X129040000Y-89501000D01*
X131722000Y-88181000D02*
X129040000Y-88181000D01*
X131967000Y-87461000D02*
X124033000Y-87461000D01*
X131338000Y-88861000D02*
X129040000Y-88861000D01*
X130034000Y-90061000D02*
X125966000Y-90061000D01*
X129731000Y-90221000D02*
X126269000Y-90221000D01*
X131392000Y-88781000D02*
X129040000Y-88781000D01*
X129552000Y-90301000D02*
X126448000Y-90301000D01*
X131863000Y-87821000D02*
X124137000Y-87821000D01*
X132076000Y-86700000D02*
X123924000Y-86700000D01*
X131156000Y-89101000D02*
X129040000Y-89101000D01*
X131877000Y-87781000D02*
X124123000Y-87781000D01*
X131925000Y-87621000D02*
X124075000Y-87621000D01*
X129346000Y-90381000D02*
X126654000Y-90381000D01*
X131686000Y-88261000D02*
X129040000Y-88261000D01*
X126960000Y-88541000D02*
X124460000Y-88541000D01*
X130556000Y-89701000D02*
X129040000Y-89701000D01*
X132080000Y-86500000D02*
X123920000Y-86500000D01*
X128948000Y-90501000D02*
X127052000Y-90501000D01*
X126960000Y-88061000D02*
X124226000Y-88061000D01*
X131985000Y-87381000D02*
X124015000Y-87381000D01*
X130651000Y-89621000D02*
X129040000Y-89621000D01*
X128533000Y-90581000D02*
X127467000Y-90581000D01*
X126960000Y-88821000D02*
X124635000Y-88821000D01*
X126960000Y-90021000D02*
X125898000Y-90021000D01*
X130604000Y-89661000D02*
X129040000Y-89661000D01*
X131805000Y-87981000D02*
X129040000Y-87981000D01*
X126960000Y-88301000D02*
X124334000Y-88301000D01*
X132057000Y-86940000D02*
X123943000Y-86940000D01*
X130454000Y-89781000D02*
X129040000Y-89781000D01*
X126960000Y-89661000D02*
X125396000Y-89661000D01*
X131250000Y-88981000D02*
X129040000Y-88981000D01*
X131444000Y-88701000D02*
X129040000Y-88701000D01*
X131055000Y-89221000D02*
X129040000Y-89221000D01*
X132030000Y-87140000D02*
X123970000Y-87140000D01*
X126960000Y-88581000D02*
X124483000Y-88581000D01*
X128768000Y-90541000D02*
X127232000Y-90541000D01*
X132048000Y-87020000D02*
X123952000Y-87020000D01*
X126960000Y-88461000D02*
X124416000Y-88461000D01*
X132071000Y-86780000D02*
X123929000Y-86780000D01*
X129890000Y-90141000D02*
X126110000Y-90141000D01*
X131309000Y-88901000D02*
X129040000Y-88901000D01*
X126960000Y-88381000D02*
X124373000Y-88381000D01*
X131124000Y-89141000D02*
X129040000Y-89141000D01*
X126960000Y-88501000D02*
X124438000Y-88501000D01*
X126960000Y-88221000D02*
X124296000Y-88221000D01*
X126960000Y-88861000D02*
X124662000Y-88861000D01*
X131850000Y-87861000D02*
X124150000Y-87861000D01*
X126960000Y-89941000D02*
X125772000Y-89941000D01*
X132065000Y-86860000D02*
X123935000Y-86860000D01*
X132002000Y-87301000D02*
X123998000Y-87301000D01*
X126960000Y-88981000D02*
X124750000Y-88981000D01*
X132080000Y-86580000D02*
X123920000Y-86580000D01*
X126960000Y-89621000D02*
X125349000Y-89621000D01*
X131976000Y-87421000D02*
X124024000Y-87421000D01*
X132024000Y-87180000D02*
X123976000Y-87180000D01*
X132037000Y-87100000D02*
X123963000Y-87100000D01*
X126960000Y-89021000D02*
X124780000Y-89021000D01*
X126960000Y-89341000D02*
X125055000Y-89341000D01*
X130102000Y-90021000D02*
X129040000Y-90021000D01*
X131019000Y-89261000D02*
X129040000Y-89261000D01*
X131517000Y-88581000D02*
X129040000Y-88581000D01*
X126960000Y-89261000D02*
X124981000Y-89261000D01*
X131774000Y-88061000D02*
X129040000Y-88061000D01*
X126960000Y-89901000D02*
X125713000Y-89901000D01*
X126960000Y-89821000D02*
X125600000Y-89821000D01*
X126960000Y-89301000D02*
X125017000Y-89301000D01*
X126960000Y-89861000D02*
X125655000Y-89861000D01*
X130228000Y-89941000D02*
X129040000Y-89941000D01*
X131280000Y-88941000D02*
X129040000Y-88941000D01*
X131606000Y-88421000D02*
X129040000Y-88421000D01*
X130400000Y-89821000D02*
X129040000Y-89821000D01*
X131540000Y-88541000D02*
X129040000Y-88541000D01*
X132042000Y-87060000D02*
X123958000Y-87060000D01*
X132010000Y-87261000D02*
X123990000Y-87261000D01*
X129453000Y-90341000D02*
X126547000Y-90341000D01*
X126960000Y-88101000D02*
X124243000Y-88101000D01*
X132052000Y-86980000D02*
X123948000Y-86980000D01*
X126960000Y-89141000D02*
X124876000Y-89141000D01*
X132080000Y-86540000D02*
X123920000Y-86540000D01*
X129813000Y-90181000D02*
X126187000Y-90181000D01*
X131562000Y-88501000D02*
X129040000Y-88501000D01*
X130505000Y-89741000D02*
X129040000Y-89741000D01*
X131835000Y-87901000D02*
X124165000Y-87901000D01*
X126960000Y-88341000D02*
X124353000Y-88341000D01*
X130983000Y-89301000D02*
X129040000Y-89301000D01*
X126960000Y-88661000D02*
X124531000Y-88661000D01*
X131704000Y-88221000D02*
X129040000Y-88221000D01*
X126960000Y-88261000D02*
X124314000Y-88261000D01*
X132068000Y-86820000D02*
X123932000Y-86820000D01*
X131902000Y-87701000D02*
X124098000Y-87701000D01*
X132120000Y-86500000D02*
G75*
G03*
X132120000Y-86500000I-4120000J0D01*
G01*
X148800000Y-87150000D02*
X145200000Y-87150000D01*
X149324184Y-87877205D02*
G75*
G03*
X148800000Y-87150000I-2324184J-1122795D01*
G01*
X144643600Y-90098807D02*
G75*
G03*
X147000000Y-91600000I2356400J1098807D01*
G01*
X145200000Y-87150000D02*
G75*
G03*
X144675816Y-87877205I1800000J-1850000D01*
G01*
X147000000Y-91600000D02*
G75*
G03*
X149356400Y-90098807I0J2600000D01*
G01*
X119000000Y-106610000D02*
X123000000Y-106610000D01*
X141750000Y-96610000D02*
X122250000Y-96610000D01*
X119750000Y-96610000D02*
X116000000Y-96610000D01*
X144500000Y-96610000D02*
X144000000Y-96610000D01*
X116000000Y-96610000D02*
X116000000Y-106610000D01*
X116000000Y-106610000D02*
X116500000Y-106610000D01*
X125250000Y-106610000D02*
X141750000Y-106610000D01*
X144000000Y-106610000D02*
X144500000Y-106610000D01*
X144500000Y-106610000D02*
X144500000Y-96610000D01*
X155370000Y-76040000D02*
X155370000Y-82580000D01*
X152630000Y-82580000D02*
X152960000Y-82580000D01*
X155040000Y-76040000D02*
X155370000Y-76040000D01*
X152630000Y-76040000D02*
X152630000Y-82580000D01*
X152960000Y-76040000D02*
X152630000Y-76040000D01*
X155370000Y-82580000D02*
X155040000Y-82580000D01*
X141370000Y-82580000D02*
X141040000Y-82580000D01*
X141370000Y-76040000D02*
X141370000Y-82580000D01*
X141040000Y-76040000D02*
X141370000Y-76040000D01*
X138960000Y-76040000D02*
X138630000Y-76040000D01*
X138630000Y-82580000D02*
X138960000Y-82580000D01*
X138630000Y-76040000D02*
X138630000Y-82580000D01*
X145630000Y-76040000D02*
X145960000Y-76040000D01*
X145960000Y-82580000D02*
X145630000Y-82580000D01*
X148370000Y-82580000D02*
X148370000Y-76040000D01*
X148040000Y-82580000D02*
X148370000Y-82580000D01*
X148370000Y-76040000D02*
X148040000Y-76040000D01*
X145630000Y-82580000D02*
X145630000Y-76040000D01*
D10*
X109525000Y-73015000D02*
X109525000Y-67935000D01*
X167945000Y-73015000D02*
X167945000Y-70475000D01*
X167945000Y-70475000D02*
X165405000Y-70475000D01*
X109525000Y-73015000D02*
X167945000Y-73015000D01*
X165405000Y-70475000D02*
X165405000Y-67935000D01*
X168225000Y-67655000D02*
X166675000Y-67655000D01*
X109525000Y-67935000D02*
X165405000Y-67935000D01*
X168225000Y-69205000D02*
X168225000Y-67655000D01*
D11*
X153340000Y-98870000D02*
X153470000Y-98870000D01*
X153470000Y-99890000D02*
X150530000Y-99890000D01*
X153470000Y-104310000D02*
X153340000Y-104310000D01*
X153470000Y-99650000D02*
X150530000Y-99650000D01*
X150530000Y-98870000D02*
X150530000Y-104310000D01*
X150530000Y-104310000D02*
X150660000Y-104310000D01*
X153470000Y-98870000D02*
X153470000Y-104310000D01*
X153470000Y-99770000D02*
X150530000Y-99770000D01*
X150660000Y-98870000D02*
X150530000Y-98870000D01*
X114960000Y-89981000D02*
X113834000Y-89981000D01*
X117813000Y-90181000D02*
X114187000Y-90181000D01*
X120068000Y-86820000D02*
X111932000Y-86820000D01*
X120079000Y-86620000D02*
X111921000Y-86620000D01*
X117098000Y-90461000D02*
X114902000Y-90461000D01*
X114960000Y-89621000D02*
X113349000Y-89621000D01*
X119124000Y-89141000D02*
X117040000Y-89141000D01*
X114960000Y-88421000D02*
X112394000Y-88421000D01*
X117453000Y-90341000D02*
X114547000Y-90341000D01*
X119418000Y-88741000D02*
X117040000Y-88741000D01*
X114960000Y-88061000D02*
X112226000Y-88061000D01*
X119967000Y-87461000D02*
X112033000Y-87461000D01*
X119686000Y-88261000D02*
X117040000Y-88261000D01*
X118102000Y-90021000D02*
X117040000Y-90021000D01*
X119805000Y-87981000D02*
X117040000Y-87981000D01*
X118556000Y-89701000D02*
X117040000Y-89701000D01*
X114960000Y-88021000D02*
X112210000Y-88021000D01*
X114960000Y-88301000D02*
X112334000Y-88301000D01*
X117731000Y-90221000D02*
X114269000Y-90221000D01*
X117229000Y-90421000D02*
X114771000Y-90421000D01*
X120071000Y-86780000D02*
X111929000Y-86780000D01*
X118784000Y-89501000D02*
X117040000Y-89501000D01*
X119250000Y-88981000D02*
X117040000Y-88981000D01*
X119757000Y-88101000D02*
X117040000Y-88101000D01*
X118983000Y-89301000D02*
X117040000Y-89301000D01*
X114960000Y-89301000D02*
X113017000Y-89301000D01*
X119790000Y-88021000D02*
X117040000Y-88021000D01*
X119647000Y-88341000D02*
X117040000Y-88341000D01*
X118345000Y-89861000D02*
X117040000Y-89861000D01*
X118034000Y-90061000D02*
X113966000Y-90061000D01*
X120030000Y-87140000D02*
X111970000Y-87140000D01*
X117346000Y-90381000D02*
X114654000Y-90381000D01*
X114960000Y-89101000D02*
X112844000Y-89101000D01*
X119850000Y-87861000D02*
X112150000Y-87861000D01*
X114960000Y-89741000D02*
X113495000Y-89741000D01*
X114960000Y-88781000D02*
X112608000Y-88781000D01*
X119156000Y-89101000D02*
X117040000Y-89101000D01*
X120017000Y-87221000D02*
X111983000Y-87221000D01*
X114960000Y-89581000D02*
X113303000Y-89581000D01*
X120052000Y-86980000D02*
X111948000Y-86980000D01*
X114960000Y-88221000D02*
X112296000Y-88221000D01*
X114960000Y-88581000D02*
X112483000Y-88581000D01*
X118697000Y-89581000D02*
X117040000Y-89581000D01*
X119835000Y-87901000D02*
X112165000Y-87901000D01*
X120048000Y-87020000D02*
X111952000Y-87020000D01*
X116768000Y-90541000D02*
X115232000Y-90541000D01*
X117552000Y-90301000D02*
X114448000Y-90301000D01*
X116948000Y-90501000D02*
X115052000Y-90501000D01*
X118907000Y-89381000D02*
X117040000Y-89381000D01*
X119540000Y-88541000D02*
X117040000Y-88541000D01*
X118315000Y-82090302D02*
X118315000Y-82890302D01*
X119309000Y-88901000D02*
X117040000Y-88901000D01*
X118228000Y-89941000D02*
X117040000Y-89941000D01*
X119957000Y-87501000D02*
X112043000Y-87501000D01*
X114960000Y-89821000D02*
X113600000Y-89821000D01*
X118651000Y-89621000D02*
X117040000Y-89621000D01*
X114960000Y-89181000D02*
X112910000Y-89181000D01*
X119055000Y-89221000D02*
X117040000Y-89221000D01*
X119627000Y-88381000D02*
X117040000Y-88381000D01*
X119090000Y-89181000D02*
X117040000Y-89181000D01*
X114960000Y-88981000D02*
X112750000Y-88981000D01*
X118945000Y-89341000D02*
X117040000Y-89341000D01*
X114960000Y-88741000D02*
X112582000Y-88741000D01*
X114960000Y-89381000D02*
X113093000Y-89381000D01*
X120037000Y-87100000D02*
X111963000Y-87100000D01*
X114960000Y-89861000D02*
X113655000Y-89861000D01*
X118505000Y-89741000D02*
X117040000Y-89741000D01*
X119584000Y-88461000D02*
X117040000Y-88461000D01*
X119889000Y-87741000D02*
X112111000Y-87741000D01*
X120080000Y-86540000D02*
X111920000Y-86540000D01*
X119189000Y-89061000D02*
X117040000Y-89061000D01*
X116533000Y-90581000D02*
X115467000Y-90581000D01*
X118867000Y-89421000D02*
X117040000Y-89421000D01*
X118287000Y-89901000D02*
X117040000Y-89901000D01*
X120061000Y-86900000D02*
X111939000Y-86900000D01*
X119914000Y-87661000D02*
X112086000Y-87661000D01*
X114960000Y-89061000D02*
X112811000Y-89061000D01*
X114960000Y-88821000D02*
X112635000Y-88821000D01*
X114960000Y-89221000D02*
X112945000Y-89221000D01*
X120080000Y-86500000D02*
X111920000Y-86500000D01*
X119704000Y-88221000D02*
X117040000Y-88221000D01*
X118604000Y-89661000D02*
X117040000Y-89661000D01*
X114960000Y-87981000D02*
X112195000Y-87981000D01*
X114960000Y-89501000D02*
X113216000Y-89501000D01*
X118741000Y-89541000D02*
X117040000Y-89541000D01*
X114960000Y-89661000D02*
X113396000Y-89661000D01*
X114960000Y-88341000D02*
X112353000Y-88341000D01*
X119517000Y-88581000D02*
X117040000Y-88581000D01*
X118166000Y-89981000D02*
X117040000Y-89981000D01*
X119606000Y-88421000D02*
X117040000Y-88421000D01*
X119740000Y-88141000D02*
X117040000Y-88141000D01*
X114960000Y-89701000D02*
X113444000Y-89701000D01*
X114960000Y-89461000D02*
X113174000Y-89461000D01*
X119722000Y-88181000D02*
X117040000Y-88181000D01*
X119666000Y-88301000D02*
X117040000Y-88301000D01*
X114960000Y-88261000D02*
X112314000Y-88261000D01*
X117964000Y-90101000D02*
X114036000Y-90101000D01*
X119947000Y-87541000D02*
X112053000Y-87541000D01*
X114960000Y-90021000D02*
X113898000Y-90021000D01*
X114960000Y-88141000D02*
X112260000Y-88141000D01*
X118400000Y-89821000D02*
X117040000Y-89821000D01*
X114960000Y-88381000D02*
X112373000Y-88381000D01*
X114960000Y-88101000D02*
X112243000Y-88101000D01*
X119902000Y-87701000D02*
X112098000Y-87701000D01*
X114960000Y-89541000D02*
X113259000Y-89541000D01*
X114960000Y-88501000D02*
X112438000Y-88501000D01*
X120065000Y-86860000D02*
X111935000Y-86860000D01*
X119936000Y-87581000D02*
X112064000Y-87581000D01*
X119392000Y-88781000D02*
X117040000Y-88781000D01*
X114960000Y-89341000D02*
X113055000Y-89341000D01*
X114960000Y-88541000D02*
X112460000Y-88541000D01*
X114960000Y-89261000D02*
X112981000Y-89261000D01*
X114960000Y-88621000D02*
X112507000Y-88621000D01*
X119220000Y-89021000D02*
X117040000Y-89021000D01*
X119994000Y-87341000D02*
X112006000Y-87341000D01*
X114960000Y-88461000D02*
X112416000Y-88461000D01*
X120077000Y-86660000D02*
X111923000Y-86660000D01*
X114960000Y-89901000D02*
X113713000Y-89901000D01*
X119019000Y-89261000D02*
X117040000Y-89261000D01*
X114960000Y-89021000D02*
X112780000Y-89021000D01*
X119338000Y-88861000D02*
X117040000Y-88861000D01*
X119493000Y-88621000D02*
X117040000Y-88621000D01*
X119469000Y-88661000D02*
X117040000Y-88661000D01*
X120010000Y-87261000D02*
X111990000Y-87261000D01*
X120076000Y-86700000D02*
X111924000Y-86700000D01*
X119821000Y-87941000D02*
X112179000Y-87941000D01*
X114960000Y-88701000D02*
X112556000Y-88701000D01*
X119925000Y-87621000D02*
X112075000Y-87621000D01*
X114960000Y-89141000D02*
X112876000Y-89141000D01*
X118826000Y-89461000D02*
X117040000Y-89461000D01*
X119365000Y-88821000D02*
X117040000Y-88821000D01*
X119863000Y-87821000D02*
X112137000Y-87821000D01*
X114960000Y-89941000D02*
X113772000Y-89941000D01*
X119280000Y-88941000D02*
X117040000Y-88941000D01*
X114960000Y-89781000D02*
X113546000Y-89781000D01*
X114960000Y-89421000D02*
X113133000Y-89421000D01*
X120074000Y-86740000D02*
X111926000Y-86740000D01*
X114960000Y-88861000D02*
X112662000Y-88861000D01*
X120002000Y-87301000D02*
X111998000Y-87301000D01*
X114960000Y-88181000D02*
X112278000Y-88181000D01*
X119562000Y-88501000D02*
X117040000Y-88501000D01*
X120024000Y-87180000D02*
X111976000Y-87180000D01*
X119877000Y-87781000D02*
X112123000Y-87781000D01*
X120080000Y-86580000D02*
X111920000Y-86580000D01*
X120042000Y-87060000D02*
X111958000Y-87060000D01*
X119444000Y-88701000D02*
X117040000Y-88701000D01*
X119976000Y-87421000D02*
X112024000Y-87421000D01*
X119774000Y-88061000D02*
X117040000Y-88061000D01*
X120057000Y-86940000D02*
X111943000Y-86940000D01*
X117890000Y-90141000D02*
X114110000Y-90141000D01*
X117645000Y-90261000D02*
X114355000Y-90261000D01*
X118454000Y-89781000D02*
X117040000Y-89781000D01*
X118715000Y-82490302D02*
X117915000Y-82490302D01*
X114960000Y-88941000D02*
X112720000Y-88941000D01*
X119985000Y-87381000D02*
X112015000Y-87381000D01*
X114960000Y-88661000D02*
X112531000Y-88661000D01*
X114960000Y-88901000D02*
X112691000Y-88901000D01*
X120120000Y-86500000D02*
G75*
G03*
X120120000Y-86500000I-4120000J0D01*
G01*
D12*
X166675000Y-117465000D03*
D13*
X166675000Y-120005000D03*
X164135000Y-117465000D03*
X164135000Y-120005000D03*
X161595000Y-117465000D03*
X161595000Y-120005000D03*
X159055000Y-117465000D03*
X159055000Y-120005000D03*
X156515000Y-117465000D03*
X156515000Y-120005000D03*
X153975000Y-117465000D03*
X153975000Y-120005000D03*
X151435000Y-117465000D03*
X151435000Y-120005000D03*
X148895000Y-117465000D03*
X148895000Y-120005000D03*
X146355000Y-117465000D03*
X146355000Y-120005000D03*
X143815000Y-117465000D03*
X143815000Y-120005000D03*
X141275000Y-117465000D03*
X141275000Y-120005000D03*
X138735000Y-117465000D03*
X138735000Y-120005000D03*
X136195000Y-117465000D03*
X136195000Y-120005000D03*
X133655000Y-117465000D03*
X133655000Y-120005000D03*
X131115000Y-117465000D03*
X131115000Y-120005000D03*
X128575000Y-117465000D03*
X128575000Y-120005000D03*
X126035000Y-117465000D03*
X126035000Y-120005000D03*
X123495000Y-117465000D03*
X123495000Y-120005000D03*
X120955000Y-117465000D03*
X120955000Y-120005000D03*
X118415000Y-117465000D03*
X118415000Y-120005000D03*
X115875000Y-117465000D03*
X115875000Y-120005000D03*
X113335000Y-117465000D03*
X113335000Y-120005000D03*
X110795000Y-117465000D03*
X110795000Y-120005000D03*
D12*
X166675000Y-69205000D03*
D13*
X166675000Y-71745000D03*
X164135000Y-69205000D03*
X164135000Y-71745000D03*
X161595000Y-69205000D03*
X161595000Y-71745000D03*
X159055000Y-69205000D03*
X159055000Y-71745000D03*
X156515000Y-69205000D03*
X156515000Y-71745000D03*
X153975000Y-69205000D03*
X153975000Y-71745000D03*
X151435000Y-69205000D03*
X151435000Y-71745000D03*
X148895000Y-69205000D03*
X148895000Y-71745000D03*
X146355000Y-69205000D03*
X146355000Y-71745000D03*
X143815000Y-69205000D03*
X143815000Y-71745000D03*
X141275000Y-69205000D03*
X141275000Y-71745000D03*
X138735000Y-69205000D03*
X138735000Y-71745000D03*
X136195000Y-69205000D03*
X136195000Y-71745000D03*
X133655000Y-69205000D03*
X133655000Y-71745000D03*
X131115000Y-69205000D03*
X131115000Y-71745000D03*
X128575000Y-69205000D03*
X128575000Y-71745000D03*
X126035000Y-69205000D03*
X126035000Y-71745000D03*
X123495000Y-69205000D03*
X123495000Y-71745000D03*
X120955000Y-69205000D03*
X120955000Y-71745000D03*
X118415000Y-69205000D03*
X118415000Y-71745000D03*
X115875000Y-69205000D03*
X115875000Y-71745000D03*
X113335000Y-69205000D03*
X113335000Y-71745000D03*
X110795000Y-69205000D03*
X110795000Y-71745000D03*
%LPC*%
D14*
X107000000Y-95770000D03*
D15*
X107000000Y-99580000D03*
X107000000Y-103390000D03*
X107000000Y-107200000D03*
D12*
X166675000Y-117465000D03*
D13*
X166675000Y-120005000D03*
X164135000Y-117465000D03*
X164135000Y-120005000D03*
X161595000Y-117465000D03*
X161595000Y-120005000D03*
X159055000Y-117465000D03*
X159055000Y-120005000D03*
X156515000Y-117465000D03*
X156515000Y-120005000D03*
X153975000Y-117465000D03*
X153975000Y-120005000D03*
X151435000Y-117465000D03*
X151435000Y-120005000D03*
X148895000Y-117465000D03*
X148895000Y-120005000D03*
X146355000Y-117465000D03*
X146355000Y-120005000D03*
X143815000Y-117465000D03*
X143815000Y-120005000D03*
X141275000Y-117465000D03*
X141275000Y-120005000D03*
X138735000Y-117465000D03*
X138735000Y-120005000D03*
X136195000Y-117465000D03*
X136195000Y-120005000D03*
X133655000Y-117465000D03*
X133655000Y-120005000D03*
X131115000Y-117465000D03*
X131115000Y-120005000D03*
X128575000Y-117465000D03*
X128575000Y-120005000D03*
X126035000Y-117465000D03*
X126035000Y-120005000D03*
X123495000Y-117465000D03*
X123495000Y-120005000D03*
X120955000Y-117465000D03*
X120955000Y-120005000D03*
X118415000Y-117465000D03*
X118415000Y-120005000D03*
X115875000Y-117465000D03*
X115875000Y-120005000D03*
X113335000Y-117465000D03*
X113335000Y-120005000D03*
X110795000Y-117465000D03*
X110795000Y-120005000D03*
D16*
X128000000Y-84000000D03*
D17*
X128000000Y-89000000D03*
D18*
X149540000Y-89000000D03*
D19*
X147000000Y-89000000D03*
X144460000Y-89000000D03*
D20*
X143000000Y-97800000D03*
X120900000Y-97800000D03*
X117700000Y-105420000D03*
X124100000Y-105420000D03*
X143000000Y-105420000D03*
D17*
X154000000Y-75500000D03*
D21*
X154000000Y-83120000D03*
D17*
X140000000Y-75500000D03*
D21*
X140000000Y-83120000D03*
D17*
X147000000Y-83120000D03*
D21*
X147000000Y-75500000D03*
D22*
X171755000Y-70475000D03*
X171755000Y-118735000D03*
X105715000Y-73650000D03*
X105715000Y-115560000D03*
D12*
X166675000Y-69205000D03*
D13*
X166675000Y-71745000D03*
X164135000Y-69205000D03*
X164135000Y-71745000D03*
X161595000Y-69205000D03*
X161595000Y-71745000D03*
X159055000Y-69205000D03*
X159055000Y-71745000D03*
X156515000Y-69205000D03*
X156515000Y-71745000D03*
X153975000Y-69205000D03*
X153975000Y-71745000D03*
X151435000Y-69205000D03*
X151435000Y-71745000D03*
X148895000Y-69205000D03*
X148895000Y-71745000D03*
X146355000Y-69205000D03*
X146355000Y-71745000D03*
X143815000Y-69205000D03*
X143815000Y-71745000D03*
X141275000Y-69205000D03*
X141275000Y-71745000D03*
X138735000Y-69205000D03*
X138735000Y-71745000D03*
X136195000Y-69205000D03*
X136195000Y-71745000D03*
X133655000Y-69205000D03*
X133655000Y-71745000D03*
X131115000Y-69205000D03*
X131115000Y-71745000D03*
X128575000Y-69205000D03*
X128575000Y-71745000D03*
X126035000Y-69205000D03*
X126035000Y-71745000D03*
X123495000Y-69205000D03*
X123495000Y-71745000D03*
X120955000Y-69205000D03*
X120955000Y-71745000D03*
X118415000Y-69205000D03*
X118415000Y-71745000D03*
X115875000Y-69205000D03*
X115875000Y-71745000D03*
X113335000Y-69205000D03*
X113335000Y-71745000D03*
X110795000Y-69205000D03*
X110795000Y-71745000D03*
D23*
X152000000Y-97780000D03*
D24*
X152000000Y-105400000D03*
D16*
X116000000Y-84000000D03*
D17*
X116000000Y-89000000D03*
M02*
