%TF.GenerationSoftware,KiCad,Pcbnew,6.0.11-2627ca5db0~126~ubuntu20.04.1*%
%TF.CreationDate,2023-02-26T18:19:30-08:00*%
%TF.ProjectId,stingray,7374696e-6772-4617-992e-6b696361645f,A1*%
%TF.SameCoordinates,Original*%
%TF.FileFunction,Drillmap*%
%TF.FilePolarity,Positive*%
%FSLAX45Y45*%
G04 Gerber Fmt 4.5, Leading zero omitted, Abs format (unit mm)*
G04 Created by KiCad (PCBNEW 6.0.11-2627ca5db0~126~ubuntu20.04.1) date 2023-02-26 18:19:30*
%MOMM*%
%LPD*%
G01*
G04 APERTURE LIST*
%ADD10C,0.002540*%
%ADD11C,0.200000*%
%ADD12C,0.075000*%
%ADD13C,0.080000*%
%ADD14C,0.101600*%
%ADD15C,0.110000*%
%ADD16C,0.120000*%
%ADD17C,0.130000*%
G04 APERTURE END LIST*
D10*
X17700000Y-10603500D02*
X16477000Y-10603500D01*
X11270000Y-12191000D02*
X17700000Y-12191000D01*
X10000000Y-8000000D02*
X10000000Y-10921000D01*
X17700000Y-6730000D02*
X11270000Y-6730000D01*
X16477000Y-10603500D02*
X16477000Y-8825500D01*
X10000000Y-10921000D02*
G75*
G03*
X11270000Y-12191000I1270000J0D01*
G01*
X16477000Y-8825500D02*
X17700000Y-8825500D01*
X17700000Y-8825500D02*
X17700000Y-6730000D01*
X11270000Y-6730000D02*
G75*
G03*
X10000000Y-8000000I0J-1270000D01*
G01*
X17700000Y-12191000D02*
X17700000Y-10603500D01*
D11*
D12*
X14635500Y-9062500D02*
X14710500Y-9137500D01*
X14710500Y-9062500D02*
X14635500Y-9137500D01*
X14762500Y-9062500D02*
X14837500Y-9137500D01*
X14837500Y-9062500D02*
X14762500Y-9137500D01*
X14889500Y-9062500D02*
X14964500Y-9137500D01*
X14964500Y-9062500D02*
X14889500Y-9137500D01*
D13*
X11640000Y-8400000D02*
G75*
G03*
X11640000Y-8400000I-40000J0D01*
G01*
X11640000Y-8900000D02*
G75*
G03*
X11640000Y-8900000I-40000J0D01*
G01*
X12940000Y-8398675D02*
G75*
G03*
X12940000Y-8398675I-40000J0D01*
G01*
X12940000Y-8898675D02*
G75*
G03*
X12940000Y-8898675I-40000J0D01*
G01*
X14040000Y-7550000D02*
G75*
G03*
X14040000Y-7550000I-40000J0D01*
G01*
X14040000Y-8566000D02*
G75*
G03*
X14040000Y-8566000I-40000J0D01*
G01*
X14790000Y-7550000D02*
G75*
G03*
X14790000Y-7550000I-40000J0D01*
G01*
X14790000Y-8566000D02*
G75*
G03*
X14790000Y-8566000I-40000J0D01*
G01*
X15440000Y-7550000D02*
G75*
G03*
X15440000Y-7550000I-40000J0D01*
G01*
X15440000Y-8566000D02*
G75*
G03*
X15440000Y-8566000I-40000J0D01*
G01*
D14*
X11079500Y-6869700D02*
X11079500Y-6971300D01*
X11028700Y-6920500D02*
X11130300Y-6920500D01*
X11079500Y-7123700D02*
X11079500Y-7225300D01*
X11028700Y-7174500D02*
X11130300Y-7174500D01*
X11079500Y-11695700D02*
X11079500Y-11797300D01*
X11028700Y-11746500D02*
X11130300Y-11746500D01*
X11079500Y-11949700D02*
X11079500Y-12051300D01*
X11028700Y-12000500D02*
X11130300Y-12000500D01*
X11333500Y-6869700D02*
X11333500Y-6971300D01*
X11282700Y-6920500D02*
X11384300Y-6920500D01*
X11333500Y-7123700D02*
X11333500Y-7225300D01*
X11282700Y-7174500D02*
X11384300Y-7174500D01*
X11333500Y-11695700D02*
X11333500Y-11797300D01*
X11282700Y-11746500D02*
X11384300Y-11746500D01*
X11333500Y-11949700D02*
X11333500Y-12051300D01*
X11282700Y-12000500D02*
X11384300Y-12000500D01*
X11587500Y-6869700D02*
X11587500Y-6971300D01*
X11536700Y-6920500D02*
X11638300Y-6920500D01*
X11587500Y-7123700D02*
X11587500Y-7225300D01*
X11536700Y-7174500D02*
X11638300Y-7174500D01*
X11587500Y-11695700D02*
X11587500Y-11797300D01*
X11536700Y-11746500D02*
X11638300Y-11746500D01*
X11587500Y-11949700D02*
X11587500Y-12051300D01*
X11536700Y-12000500D02*
X11638300Y-12000500D01*
X11841500Y-6869700D02*
X11841500Y-6971300D01*
X11790700Y-6920500D02*
X11892300Y-6920500D01*
X11841500Y-7123700D02*
X11841500Y-7225300D01*
X11790700Y-7174500D02*
X11892300Y-7174500D01*
X11841500Y-11695700D02*
X11841500Y-11797300D01*
X11790700Y-11746500D02*
X11892300Y-11746500D01*
X11841500Y-11949700D02*
X11841500Y-12051300D01*
X11790700Y-12000500D02*
X11892300Y-12000500D01*
X12095500Y-6869700D02*
X12095500Y-6971300D01*
X12044700Y-6920500D02*
X12146300Y-6920500D01*
X12095500Y-7123700D02*
X12095500Y-7225300D01*
X12044700Y-7174500D02*
X12146300Y-7174500D01*
X12095500Y-11695700D02*
X12095500Y-11797300D01*
X12044700Y-11746500D02*
X12146300Y-11746500D01*
X12095500Y-11949700D02*
X12095500Y-12051300D01*
X12044700Y-12000500D02*
X12146300Y-12000500D01*
X12349500Y-6869700D02*
X12349500Y-6971300D01*
X12298700Y-6920500D02*
X12400300Y-6920500D01*
X12349500Y-7123700D02*
X12349500Y-7225300D01*
X12298700Y-7174500D02*
X12400300Y-7174500D01*
X12349500Y-11695700D02*
X12349500Y-11797300D01*
X12298700Y-11746500D02*
X12400300Y-11746500D01*
X12349500Y-11949700D02*
X12349500Y-12051300D01*
X12298700Y-12000500D02*
X12400300Y-12000500D01*
X12603500Y-6869700D02*
X12603500Y-6971300D01*
X12552700Y-6920500D02*
X12654300Y-6920500D01*
X12603500Y-7123700D02*
X12603500Y-7225300D01*
X12552700Y-7174500D02*
X12654300Y-7174500D01*
X12603500Y-11695700D02*
X12603500Y-11797300D01*
X12552700Y-11746500D02*
X12654300Y-11746500D01*
X12603500Y-11949700D02*
X12603500Y-12051300D01*
X12552700Y-12000500D02*
X12654300Y-12000500D01*
X12857500Y-6869700D02*
X12857500Y-6971300D01*
X12806700Y-6920500D02*
X12908300Y-6920500D01*
X12857500Y-7123700D02*
X12857500Y-7225300D01*
X12806700Y-7174500D02*
X12908300Y-7174500D01*
X12857500Y-11695700D02*
X12857500Y-11797300D01*
X12806700Y-11746500D02*
X12908300Y-11746500D01*
X12857500Y-11949700D02*
X12857500Y-12051300D01*
X12806700Y-12000500D02*
X12908300Y-12000500D01*
X13111500Y-6869700D02*
X13111500Y-6971300D01*
X13060700Y-6920500D02*
X13162300Y-6920500D01*
X13111500Y-7123700D02*
X13111500Y-7225300D01*
X13060700Y-7174500D02*
X13162300Y-7174500D01*
X13111500Y-11695700D02*
X13111500Y-11797300D01*
X13060700Y-11746500D02*
X13162300Y-11746500D01*
X13111500Y-11949700D02*
X13111500Y-12051300D01*
X13060700Y-12000500D02*
X13162300Y-12000500D01*
X13365500Y-6869700D02*
X13365500Y-6971300D01*
X13314700Y-6920500D02*
X13416300Y-6920500D01*
X13365500Y-7123700D02*
X13365500Y-7225300D01*
X13314700Y-7174500D02*
X13416300Y-7174500D01*
X13365500Y-11695700D02*
X13365500Y-11797300D01*
X13314700Y-11746500D02*
X13416300Y-11746500D01*
X13365500Y-11949700D02*
X13365500Y-12051300D01*
X13314700Y-12000500D02*
X13416300Y-12000500D01*
X13619500Y-6869700D02*
X13619500Y-6971300D01*
X13568700Y-6920500D02*
X13670300Y-6920500D01*
X13619500Y-7123700D02*
X13619500Y-7225300D01*
X13568700Y-7174500D02*
X13670300Y-7174500D01*
X13619500Y-11695700D02*
X13619500Y-11797300D01*
X13568700Y-11746500D02*
X13670300Y-11746500D01*
X13619500Y-11949700D02*
X13619500Y-12051300D01*
X13568700Y-12000500D02*
X13670300Y-12000500D01*
X13873500Y-6869700D02*
X13873500Y-6971300D01*
X13822700Y-6920500D02*
X13924300Y-6920500D01*
X13873500Y-7123700D02*
X13873500Y-7225300D01*
X13822700Y-7174500D02*
X13924300Y-7174500D01*
X13873500Y-11695700D02*
X13873500Y-11797300D01*
X13822700Y-11746500D02*
X13924300Y-11746500D01*
X13873500Y-11949700D02*
X13873500Y-12051300D01*
X13822700Y-12000500D02*
X13924300Y-12000500D01*
X14127500Y-6869700D02*
X14127500Y-6971300D01*
X14076700Y-6920500D02*
X14178300Y-6920500D01*
X14127500Y-7123700D02*
X14127500Y-7225300D01*
X14076700Y-7174500D02*
X14178300Y-7174500D01*
X14127500Y-11695700D02*
X14127500Y-11797300D01*
X14076700Y-11746500D02*
X14178300Y-11746500D01*
X14127500Y-11949700D02*
X14127500Y-12051300D01*
X14076700Y-12000500D02*
X14178300Y-12000500D01*
X14381500Y-6869700D02*
X14381500Y-6971300D01*
X14330700Y-6920500D02*
X14432300Y-6920500D01*
X14381500Y-7123700D02*
X14381500Y-7225300D01*
X14330700Y-7174500D02*
X14432300Y-7174500D01*
X14381500Y-11695700D02*
X14381500Y-11797300D01*
X14330700Y-11746500D02*
X14432300Y-11746500D01*
X14381500Y-11949700D02*
X14381500Y-12051300D01*
X14330700Y-12000500D02*
X14432300Y-12000500D01*
X14635500Y-6869700D02*
X14635500Y-6971300D01*
X14584700Y-6920500D02*
X14686300Y-6920500D01*
X14635500Y-7123700D02*
X14635500Y-7225300D01*
X14584700Y-7174500D02*
X14686300Y-7174500D01*
X14635500Y-11695700D02*
X14635500Y-11797300D01*
X14584700Y-11746500D02*
X14686300Y-11746500D01*
X14635500Y-11949700D02*
X14635500Y-12051300D01*
X14584700Y-12000500D02*
X14686300Y-12000500D01*
X14889500Y-6869700D02*
X14889500Y-6971300D01*
X14838700Y-6920500D02*
X14940300Y-6920500D01*
X14889500Y-7123700D02*
X14889500Y-7225300D01*
X14838700Y-7174500D02*
X14940300Y-7174500D01*
X14889500Y-11695700D02*
X14889500Y-11797300D01*
X14838700Y-11746500D02*
X14940300Y-11746500D01*
X14889500Y-11949700D02*
X14889500Y-12051300D01*
X14838700Y-12000500D02*
X14940300Y-12000500D01*
X15143500Y-6869700D02*
X15143500Y-6971300D01*
X15092700Y-6920500D02*
X15194300Y-6920500D01*
X15143500Y-7123700D02*
X15143500Y-7225300D01*
X15092700Y-7174500D02*
X15194300Y-7174500D01*
X15143500Y-11695700D02*
X15143500Y-11797300D01*
X15092700Y-11746500D02*
X15194300Y-11746500D01*
X15143500Y-11949700D02*
X15143500Y-12051300D01*
X15092700Y-12000500D02*
X15194300Y-12000500D01*
X15397500Y-6869700D02*
X15397500Y-6971300D01*
X15346700Y-6920500D02*
X15448300Y-6920500D01*
X15397500Y-7123700D02*
X15397500Y-7225300D01*
X15346700Y-7174500D02*
X15448300Y-7174500D01*
X15397500Y-11695700D02*
X15397500Y-11797300D01*
X15346700Y-11746500D02*
X15448300Y-11746500D01*
X15397500Y-11949700D02*
X15397500Y-12051300D01*
X15346700Y-12000500D02*
X15448300Y-12000500D01*
X15651500Y-6869700D02*
X15651500Y-6971300D01*
X15600700Y-6920500D02*
X15702300Y-6920500D01*
X15651500Y-7123700D02*
X15651500Y-7225300D01*
X15600700Y-7174500D02*
X15702300Y-7174500D01*
X15651500Y-11695700D02*
X15651500Y-11797300D01*
X15600700Y-11746500D02*
X15702300Y-11746500D01*
X15651500Y-11949700D02*
X15651500Y-12051300D01*
X15600700Y-12000500D02*
X15702300Y-12000500D01*
X15905500Y-6869700D02*
X15905500Y-6971300D01*
X15854700Y-6920500D02*
X15956300Y-6920500D01*
X15905500Y-7123700D02*
X15905500Y-7225300D01*
X15854700Y-7174500D02*
X15956300Y-7174500D01*
X15905500Y-11695700D02*
X15905500Y-11797300D01*
X15854700Y-11746500D02*
X15956300Y-11746500D01*
X15905500Y-11949700D02*
X15905500Y-12051300D01*
X15854700Y-12000500D02*
X15956300Y-12000500D01*
X16159500Y-6869700D02*
X16159500Y-6971300D01*
X16108700Y-6920500D02*
X16210300Y-6920500D01*
X16159500Y-7123700D02*
X16159500Y-7225300D01*
X16108700Y-7174500D02*
X16210300Y-7174500D01*
X16159500Y-11695700D02*
X16159500Y-11797300D01*
X16108700Y-11746500D02*
X16210300Y-11746500D01*
X16159500Y-11949700D02*
X16159500Y-12051300D01*
X16108700Y-12000500D02*
X16210300Y-12000500D01*
X16413500Y-6869700D02*
X16413500Y-6971300D01*
X16362700Y-6920500D02*
X16464300Y-6920500D01*
X16413500Y-7123700D02*
X16413500Y-7225300D01*
X16362700Y-7174500D02*
X16464300Y-7174500D01*
X16413500Y-11695700D02*
X16413500Y-11797300D01*
X16362700Y-11746500D02*
X16464300Y-11746500D01*
X16413500Y-11949700D02*
X16413500Y-12051300D01*
X16362700Y-12000500D02*
X16464300Y-12000500D01*
X16667500Y-6869700D02*
X16667500Y-6971300D01*
X16616700Y-6920500D02*
X16718300Y-6920500D01*
X16667500Y-7123700D02*
X16667500Y-7225300D01*
X16616700Y-7174500D02*
X16718300Y-7174500D01*
X16667500Y-11695700D02*
X16667500Y-11797300D01*
X16616700Y-11746500D02*
X16718300Y-11746500D01*
X16667500Y-11949700D02*
X16667500Y-12051300D01*
X16616700Y-12000500D02*
X16718300Y-12000500D01*
D15*
X15238891Y-9816891D02*
X15238891Y-9739109D01*
X15161109Y-9739109D01*
X15161109Y-9816891D01*
X15238891Y-9816891D01*
X15238891Y-10832891D02*
X15238891Y-10755109D01*
X15161109Y-10755109D01*
X15161109Y-10832891D01*
X15238891Y-10832891D01*
D16*
X10561000Y-9637000D02*
X10621000Y-9577000D01*
X10561000Y-9517000D01*
X10501000Y-9577000D01*
X10561000Y-9637000D01*
X10561000Y-10018000D02*
X10621000Y-9958000D01*
X10561000Y-9898000D01*
X10501000Y-9958000D01*
X10561000Y-10018000D01*
X10561000Y-10399000D02*
X10621000Y-10339000D01*
X10561000Y-10279000D01*
X10501000Y-10339000D01*
X10561000Y-10399000D01*
X10561000Y-10780000D02*
X10621000Y-10720000D01*
X10561000Y-10660000D01*
X10501000Y-10720000D01*
X10561000Y-10780000D01*
D17*
X11705000Y-10477000D02*
X11835000Y-10607000D01*
X11835000Y-10477000D02*
X11705000Y-10607000D01*
X11835000Y-10542000D02*
G75*
G03*
X11835000Y-10542000I-65000J0D01*
G01*
X12025000Y-9715000D02*
X12155000Y-9845000D01*
X12155000Y-9715000D02*
X12025000Y-9845000D01*
X12155000Y-9780000D02*
G75*
G03*
X12155000Y-9780000I-65000J0D01*
G01*
X12345000Y-10477000D02*
X12475000Y-10607000D01*
X12475000Y-10477000D02*
X12345000Y-10607000D01*
X12475000Y-10542000D02*
G75*
G03*
X12475000Y-10542000I-65000J0D01*
G01*
X14235000Y-9715000D02*
X14365000Y-9845000D01*
X14365000Y-9715000D02*
X14235000Y-9845000D01*
X14365000Y-9780000D02*
G75*
G03*
X14365000Y-9780000I-65000J0D01*
G01*
X14235000Y-10477000D02*
X14365000Y-10607000D01*
X14365000Y-10477000D02*
X14235000Y-10607000D01*
X14365000Y-10542000D02*
G75*
G03*
X14365000Y-10542000I-65000J0D01*
G01*
D11*
X10257492Y-12501603D02*
X10257492Y-12301603D01*
X10305111Y-12301603D01*
X10333683Y-12311127D01*
X10352730Y-12330175D01*
X10362254Y-12349222D01*
X10371778Y-12387317D01*
X10371778Y-12415889D01*
X10362254Y-12453984D01*
X10352730Y-12473032D01*
X10333683Y-12492079D01*
X10305111Y-12501603D01*
X10257492Y-12501603D01*
X10457492Y-12501603D02*
X10457492Y-12368270D01*
X10457492Y-12406365D02*
X10467016Y-12387317D01*
X10476540Y-12377794D01*
X10495587Y-12368270D01*
X10514635Y-12368270D01*
X10581302Y-12501603D02*
X10581302Y-12368270D01*
X10581302Y-12301603D02*
X10571778Y-12311127D01*
X10581302Y-12320651D01*
X10590825Y-12311127D01*
X10581302Y-12301603D01*
X10581302Y-12320651D01*
X10705111Y-12501603D02*
X10686063Y-12492079D01*
X10676540Y-12473032D01*
X10676540Y-12301603D01*
X10809873Y-12501603D02*
X10790825Y-12492079D01*
X10781302Y-12473032D01*
X10781302Y-12301603D01*
X11038444Y-12501603D02*
X11038444Y-12301603D01*
X11105111Y-12444460D01*
X11171778Y-12301603D01*
X11171778Y-12501603D01*
X11352730Y-12501603D02*
X11352730Y-12396841D01*
X11343206Y-12377794D01*
X11324159Y-12368270D01*
X11286063Y-12368270D01*
X11267016Y-12377794D01*
X11352730Y-12492079D02*
X11333682Y-12501603D01*
X11286063Y-12501603D01*
X11267016Y-12492079D01*
X11257492Y-12473032D01*
X11257492Y-12453984D01*
X11267016Y-12434936D01*
X11286063Y-12425413D01*
X11333682Y-12425413D01*
X11352730Y-12415889D01*
X11447968Y-12368270D02*
X11447968Y-12568270D01*
X11447968Y-12377794D02*
X11467016Y-12368270D01*
X11505111Y-12368270D01*
X11524159Y-12377794D01*
X11533682Y-12387317D01*
X11543206Y-12406365D01*
X11543206Y-12463508D01*
X11533682Y-12482555D01*
X11524159Y-12492079D01*
X11505111Y-12501603D01*
X11467016Y-12501603D01*
X11447968Y-12492079D01*
X11628921Y-12482555D02*
X11638444Y-12492079D01*
X11628921Y-12501603D01*
X11619397Y-12492079D01*
X11628921Y-12482555D01*
X11628921Y-12501603D01*
X11628921Y-12377794D02*
X11638444Y-12387317D01*
X11628921Y-12396841D01*
X11619397Y-12387317D01*
X11628921Y-12377794D01*
X11628921Y-12396841D01*
D12*
X9924873Y-12793627D02*
X9999873Y-12868627D01*
X9999873Y-12793627D02*
X9924873Y-12868627D01*
D11*
X10295587Y-12721603D02*
X10314635Y-12721603D01*
X10333683Y-12731127D01*
X10343206Y-12740651D01*
X10352730Y-12759698D01*
X10362254Y-12797794D01*
X10362254Y-12845413D01*
X10352730Y-12883508D01*
X10343206Y-12902555D01*
X10333683Y-12912079D01*
X10314635Y-12921603D01*
X10295587Y-12921603D01*
X10276540Y-12912079D01*
X10267016Y-12902555D01*
X10257492Y-12883508D01*
X10247968Y-12845413D01*
X10247968Y-12797794D01*
X10257492Y-12759698D01*
X10267016Y-12740651D01*
X10276540Y-12731127D01*
X10295587Y-12721603D01*
X10447968Y-12902555D02*
X10457492Y-12912079D01*
X10447968Y-12921603D01*
X10438444Y-12912079D01*
X10447968Y-12902555D01*
X10447968Y-12921603D01*
X10524159Y-12721603D02*
X10657492Y-12721603D01*
X10571778Y-12921603D01*
X10828921Y-12721603D02*
X10733683Y-12721603D01*
X10724159Y-12816841D01*
X10733683Y-12807317D01*
X10752730Y-12797794D01*
X10800349Y-12797794D01*
X10819397Y-12807317D01*
X10828921Y-12816841D01*
X10838444Y-12835889D01*
X10838444Y-12883508D01*
X10828921Y-12902555D01*
X10819397Y-12912079D01*
X10800349Y-12921603D01*
X10752730Y-12921603D01*
X10733683Y-12912079D01*
X10724159Y-12902555D01*
X10962254Y-12721603D02*
X10981302Y-12721603D01*
X11000349Y-12731127D01*
X11009873Y-12740651D01*
X11019397Y-12759698D01*
X11028921Y-12797794D01*
X11028921Y-12845413D01*
X11019397Y-12883508D01*
X11009873Y-12902555D01*
X11000349Y-12912079D01*
X10981302Y-12921603D01*
X10962254Y-12921603D01*
X10943206Y-12912079D01*
X10933683Y-12902555D01*
X10924159Y-12883508D01*
X10914635Y-12845413D01*
X10914635Y-12797794D01*
X10924159Y-12759698D01*
X10933683Y-12740651D01*
X10943206Y-12731127D01*
X10962254Y-12721603D01*
X11114635Y-12921603D02*
X11114635Y-12788270D01*
X11114635Y-12807317D02*
X11124159Y-12797794D01*
X11143206Y-12788270D01*
X11171778Y-12788270D01*
X11190825Y-12797794D01*
X11200349Y-12816841D01*
X11200349Y-12921603D01*
X11200349Y-12816841D02*
X11209873Y-12797794D01*
X11228921Y-12788270D01*
X11257492Y-12788270D01*
X11276540Y-12797794D01*
X11286063Y-12816841D01*
X11286063Y-12921603D01*
X11381301Y-12921603D02*
X11381301Y-12788270D01*
X11381301Y-12807317D02*
X11390825Y-12797794D01*
X11409873Y-12788270D01*
X11438444Y-12788270D01*
X11457492Y-12797794D01*
X11467016Y-12816841D01*
X11467016Y-12921603D01*
X11467016Y-12816841D02*
X11476540Y-12797794D01*
X11495587Y-12788270D01*
X11524159Y-12788270D01*
X11543206Y-12797794D01*
X11552730Y-12816841D01*
X11552730Y-12921603D01*
X11943206Y-12712079D02*
X11771778Y-12969222D01*
X12200349Y-12721603D02*
X12219397Y-12721603D01*
X12238444Y-12731127D01*
X12247968Y-12740651D01*
X12257492Y-12759698D01*
X12267016Y-12797794D01*
X12267016Y-12845413D01*
X12257492Y-12883508D01*
X12247968Y-12902555D01*
X12238444Y-12912079D01*
X12219397Y-12921603D01*
X12200349Y-12921603D01*
X12181301Y-12912079D01*
X12171778Y-12902555D01*
X12162254Y-12883508D01*
X12152730Y-12845413D01*
X12152730Y-12797794D01*
X12162254Y-12759698D01*
X12171778Y-12740651D01*
X12181301Y-12731127D01*
X12200349Y-12721603D01*
X12352730Y-12902555D02*
X12362254Y-12912079D01*
X12352730Y-12921603D01*
X12343206Y-12912079D01*
X12352730Y-12902555D01*
X12352730Y-12921603D01*
X12486063Y-12721603D02*
X12505111Y-12721603D01*
X12524159Y-12731127D01*
X12533682Y-12740651D01*
X12543206Y-12759698D01*
X12552730Y-12797794D01*
X12552730Y-12845413D01*
X12543206Y-12883508D01*
X12533682Y-12902555D01*
X12524159Y-12912079D01*
X12505111Y-12921603D01*
X12486063Y-12921603D01*
X12467016Y-12912079D01*
X12457492Y-12902555D01*
X12447968Y-12883508D01*
X12438444Y-12845413D01*
X12438444Y-12797794D01*
X12447968Y-12759698D01*
X12457492Y-12740651D01*
X12467016Y-12731127D01*
X12486063Y-12721603D01*
X12628921Y-12740651D02*
X12638444Y-12731127D01*
X12657492Y-12721603D01*
X12705111Y-12721603D01*
X12724159Y-12731127D01*
X12733682Y-12740651D01*
X12743206Y-12759698D01*
X12743206Y-12778746D01*
X12733682Y-12807317D01*
X12619397Y-12921603D01*
X12743206Y-12921603D01*
X12838444Y-12921603D02*
X12876540Y-12921603D01*
X12895587Y-12912079D01*
X12905111Y-12902555D01*
X12924159Y-12873984D01*
X12933682Y-12835889D01*
X12933682Y-12759698D01*
X12924159Y-12740651D01*
X12914635Y-12731127D01*
X12895587Y-12721603D01*
X12857492Y-12721603D01*
X12838444Y-12731127D01*
X12828921Y-12740651D01*
X12819397Y-12759698D01*
X12819397Y-12807317D01*
X12828921Y-12826365D01*
X12838444Y-12835889D01*
X12857492Y-12845413D01*
X12895587Y-12845413D01*
X12914635Y-12835889D01*
X12924159Y-12826365D01*
X12933682Y-12807317D01*
X13114635Y-12721603D02*
X13019397Y-12721603D01*
X13009873Y-12816841D01*
X13019397Y-12807317D01*
X13038444Y-12797794D01*
X13086063Y-12797794D01*
X13105111Y-12807317D01*
X13114635Y-12816841D01*
X13124159Y-12835889D01*
X13124159Y-12883508D01*
X13114635Y-12902555D01*
X13105111Y-12912079D01*
X13086063Y-12921603D01*
X13038444Y-12921603D01*
X13019397Y-12912079D01*
X13009873Y-12902555D01*
X13200349Y-12721603D02*
X13200349Y-12759698D01*
X13276540Y-12721603D02*
X13276540Y-12759698D01*
X13571778Y-12997794D02*
X13562254Y-12988270D01*
X13543206Y-12959698D01*
X13533682Y-12940651D01*
X13524159Y-12912079D01*
X13514635Y-12864460D01*
X13514635Y-12826365D01*
X13524159Y-12778746D01*
X13533682Y-12750175D01*
X13543206Y-12731127D01*
X13562254Y-12702555D01*
X13571778Y-12693032D01*
X13628921Y-12721603D02*
X13752730Y-12721603D01*
X13686063Y-12797794D01*
X13714635Y-12797794D01*
X13733682Y-12807317D01*
X13743206Y-12816841D01*
X13752730Y-12835889D01*
X13752730Y-12883508D01*
X13743206Y-12902555D01*
X13733682Y-12912079D01*
X13714635Y-12921603D01*
X13657492Y-12921603D01*
X13638444Y-12912079D01*
X13628921Y-12902555D01*
X13990825Y-12921603D02*
X13990825Y-12721603D01*
X14076540Y-12921603D02*
X14076540Y-12816841D01*
X14067016Y-12797794D01*
X14047968Y-12788270D01*
X14019397Y-12788270D01*
X14000349Y-12797794D01*
X13990825Y-12807317D01*
X14200349Y-12921603D02*
X14181301Y-12912079D01*
X14171778Y-12902555D01*
X14162254Y-12883508D01*
X14162254Y-12826365D01*
X14171778Y-12807317D01*
X14181301Y-12797794D01*
X14200349Y-12788270D01*
X14228921Y-12788270D01*
X14247968Y-12797794D01*
X14257492Y-12807317D01*
X14267016Y-12826365D01*
X14267016Y-12883508D01*
X14257492Y-12902555D01*
X14247968Y-12912079D01*
X14228921Y-12921603D01*
X14200349Y-12921603D01*
X14381301Y-12921603D02*
X14362254Y-12912079D01*
X14352730Y-12893032D01*
X14352730Y-12721603D01*
X14533682Y-12912079D02*
X14514635Y-12921603D01*
X14476540Y-12921603D01*
X14457492Y-12912079D01*
X14447968Y-12893032D01*
X14447968Y-12816841D01*
X14457492Y-12797794D01*
X14476540Y-12788270D01*
X14514635Y-12788270D01*
X14533682Y-12797794D01*
X14543206Y-12816841D01*
X14543206Y-12835889D01*
X14447968Y-12854936D01*
X14619397Y-12912079D02*
X14638444Y-12921603D01*
X14676540Y-12921603D01*
X14695587Y-12912079D01*
X14705111Y-12893032D01*
X14705111Y-12883508D01*
X14695587Y-12864460D01*
X14676540Y-12854936D01*
X14647968Y-12854936D01*
X14628921Y-12845413D01*
X14619397Y-12826365D01*
X14619397Y-12816841D01*
X14628921Y-12797794D01*
X14647968Y-12788270D01*
X14676540Y-12788270D01*
X14695587Y-12797794D01*
X14771778Y-12997794D02*
X14781301Y-12988270D01*
X14800349Y-12959698D01*
X14809873Y-12940651D01*
X14819397Y-12912079D01*
X14828921Y-12864460D01*
X14828921Y-12826365D01*
X14819397Y-12778746D01*
X14809873Y-12750175D01*
X14800349Y-12731127D01*
X14781301Y-12702555D01*
X14771778Y-12693032D01*
D13*
X9999873Y-13095127D02*
G75*
G03*
X9999873Y-13095127I-40000J0D01*
G01*
D11*
X10295587Y-12985603D02*
X10314635Y-12985603D01*
X10333683Y-12995127D01*
X10343206Y-13004651D01*
X10352730Y-13023698D01*
X10362254Y-13061794D01*
X10362254Y-13109413D01*
X10352730Y-13147508D01*
X10343206Y-13166555D01*
X10333683Y-13176079D01*
X10314635Y-13185603D01*
X10295587Y-13185603D01*
X10276540Y-13176079D01*
X10267016Y-13166555D01*
X10257492Y-13147508D01*
X10247968Y-13109413D01*
X10247968Y-13061794D01*
X10257492Y-13023698D01*
X10267016Y-13004651D01*
X10276540Y-12995127D01*
X10295587Y-12985603D01*
X10447968Y-13166555D02*
X10457492Y-13176079D01*
X10447968Y-13185603D01*
X10438444Y-13176079D01*
X10447968Y-13166555D01*
X10447968Y-13185603D01*
X10571778Y-13071317D02*
X10552730Y-13061794D01*
X10543206Y-13052270D01*
X10533683Y-13033222D01*
X10533683Y-13023698D01*
X10543206Y-13004651D01*
X10552730Y-12995127D01*
X10571778Y-12985603D01*
X10609873Y-12985603D01*
X10628921Y-12995127D01*
X10638444Y-13004651D01*
X10647968Y-13023698D01*
X10647968Y-13033222D01*
X10638444Y-13052270D01*
X10628921Y-13061794D01*
X10609873Y-13071317D01*
X10571778Y-13071317D01*
X10552730Y-13080841D01*
X10543206Y-13090365D01*
X10533683Y-13109413D01*
X10533683Y-13147508D01*
X10543206Y-13166555D01*
X10552730Y-13176079D01*
X10571778Y-13185603D01*
X10609873Y-13185603D01*
X10628921Y-13176079D01*
X10638444Y-13166555D01*
X10647968Y-13147508D01*
X10647968Y-13109413D01*
X10638444Y-13090365D01*
X10628921Y-13080841D01*
X10609873Y-13071317D01*
X10771778Y-12985603D02*
X10790825Y-12985603D01*
X10809873Y-12995127D01*
X10819397Y-13004651D01*
X10828921Y-13023698D01*
X10838444Y-13061794D01*
X10838444Y-13109413D01*
X10828921Y-13147508D01*
X10819397Y-13166555D01*
X10809873Y-13176079D01*
X10790825Y-13185603D01*
X10771778Y-13185603D01*
X10752730Y-13176079D01*
X10743206Y-13166555D01*
X10733683Y-13147508D01*
X10724159Y-13109413D01*
X10724159Y-13061794D01*
X10733683Y-13023698D01*
X10743206Y-13004651D01*
X10752730Y-12995127D01*
X10771778Y-12985603D01*
X10962254Y-12985603D02*
X10981302Y-12985603D01*
X11000349Y-12995127D01*
X11009873Y-13004651D01*
X11019397Y-13023698D01*
X11028921Y-13061794D01*
X11028921Y-13109413D01*
X11019397Y-13147508D01*
X11009873Y-13166555D01*
X11000349Y-13176079D01*
X10981302Y-13185603D01*
X10962254Y-13185603D01*
X10943206Y-13176079D01*
X10933683Y-13166555D01*
X10924159Y-13147508D01*
X10914635Y-13109413D01*
X10914635Y-13061794D01*
X10924159Y-13023698D01*
X10933683Y-13004651D01*
X10943206Y-12995127D01*
X10962254Y-12985603D01*
X11114635Y-13185603D02*
X11114635Y-13052270D01*
X11114635Y-13071317D02*
X11124159Y-13061794D01*
X11143206Y-13052270D01*
X11171778Y-13052270D01*
X11190825Y-13061794D01*
X11200349Y-13080841D01*
X11200349Y-13185603D01*
X11200349Y-13080841D02*
X11209873Y-13061794D01*
X11228921Y-13052270D01*
X11257492Y-13052270D01*
X11276540Y-13061794D01*
X11286063Y-13080841D01*
X11286063Y-13185603D01*
X11381301Y-13185603D02*
X11381301Y-13052270D01*
X11381301Y-13071317D02*
X11390825Y-13061794D01*
X11409873Y-13052270D01*
X11438444Y-13052270D01*
X11457492Y-13061794D01*
X11467016Y-13080841D01*
X11467016Y-13185603D01*
X11467016Y-13080841D02*
X11476540Y-13061794D01*
X11495587Y-13052270D01*
X11524159Y-13052270D01*
X11543206Y-13061794D01*
X11552730Y-13080841D01*
X11552730Y-13185603D01*
X11943206Y-12976079D02*
X11771778Y-13233222D01*
X12200349Y-12985603D02*
X12219397Y-12985603D01*
X12238444Y-12995127D01*
X12247968Y-13004651D01*
X12257492Y-13023698D01*
X12267016Y-13061794D01*
X12267016Y-13109413D01*
X12257492Y-13147508D01*
X12247968Y-13166555D01*
X12238444Y-13176079D01*
X12219397Y-13185603D01*
X12200349Y-13185603D01*
X12181301Y-13176079D01*
X12171778Y-13166555D01*
X12162254Y-13147508D01*
X12152730Y-13109413D01*
X12152730Y-13061794D01*
X12162254Y-13023698D01*
X12171778Y-13004651D01*
X12181301Y-12995127D01*
X12200349Y-12985603D01*
X12352730Y-13166555D02*
X12362254Y-13176079D01*
X12352730Y-13185603D01*
X12343206Y-13176079D01*
X12352730Y-13166555D01*
X12352730Y-13185603D01*
X12486063Y-12985603D02*
X12505111Y-12985603D01*
X12524159Y-12995127D01*
X12533682Y-13004651D01*
X12543206Y-13023698D01*
X12552730Y-13061794D01*
X12552730Y-13109413D01*
X12543206Y-13147508D01*
X12533682Y-13166555D01*
X12524159Y-13176079D01*
X12505111Y-13185603D01*
X12486063Y-13185603D01*
X12467016Y-13176079D01*
X12457492Y-13166555D01*
X12447968Y-13147508D01*
X12438444Y-13109413D01*
X12438444Y-13061794D01*
X12447968Y-13023698D01*
X12457492Y-13004651D01*
X12467016Y-12995127D01*
X12486063Y-12985603D01*
X12619397Y-12985603D02*
X12743206Y-12985603D01*
X12676540Y-13061794D01*
X12705111Y-13061794D01*
X12724159Y-13071317D01*
X12733682Y-13080841D01*
X12743206Y-13099889D01*
X12743206Y-13147508D01*
X12733682Y-13166555D01*
X12724159Y-13176079D01*
X12705111Y-13185603D01*
X12647968Y-13185603D01*
X12628921Y-13176079D01*
X12619397Y-13166555D01*
X12933682Y-13185603D02*
X12819397Y-13185603D01*
X12876540Y-13185603D02*
X12876540Y-12985603D01*
X12857492Y-13014175D01*
X12838444Y-13033222D01*
X12819397Y-13042746D01*
X13114635Y-12985603D02*
X13019397Y-12985603D01*
X13009873Y-13080841D01*
X13019397Y-13071317D01*
X13038444Y-13061794D01*
X13086063Y-13061794D01*
X13105111Y-13071317D01*
X13114635Y-13080841D01*
X13124159Y-13099889D01*
X13124159Y-13147508D01*
X13114635Y-13166555D01*
X13105111Y-13176079D01*
X13086063Y-13185603D01*
X13038444Y-13185603D01*
X13019397Y-13176079D01*
X13009873Y-13166555D01*
X13200349Y-12985603D02*
X13200349Y-13023698D01*
X13276540Y-12985603D02*
X13276540Y-13023698D01*
X13571778Y-13261794D02*
X13562254Y-13252270D01*
X13543206Y-13223698D01*
X13533682Y-13204651D01*
X13524159Y-13176079D01*
X13514635Y-13128460D01*
X13514635Y-13090365D01*
X13524159Y-13042746D01*
X13533682Y-13014175D01*
X13543206Y-12995127D01*
X13562254Y-12966555D01*
X13571778Y-12957032D01*
X13752730Y-13185603D02*
X13638444Y-13185603D01*
X13695587Y-13185603D02*
X13695587Y-12985603D01*
X13676540Y-13014175D01*
X13657492Y-13033222D01*
X13638444Y-13042746D01*
X13876540Y-12985603D02*
X13895587Y-12985603D01*
X13914635Y-12995127D01*
X13924159Y-13004651D01*
X13933682Y-13023698D01*
X13943206Y-13061794D01*
X13943206Y-13109413D01*
X13933682Y-13147508D01*
X13924159Y-13166555D01*
X13914635Y-13176079D01*
X13895587Y-13185603D01*
X13876540Y-13185603D01*
X13857492Y-13176079D01*
X13847968Y-13166555D01*
X13838444Y-13147508D01*
X13828921Y-13109413D01*
X13828921Y-13061794D01*
X13838444Y-13023698D01*
X13847968Y-13004651D01*
X13857492Y-12995127D01*
X13876540Y-12985603D01*
X14181301Y-13185603D02*
X14181301Y-12985603D01*
X14267016Y-13185603D02*
X14267016Y-13080841D01*
X14257492Y-13061794D01*
X14238444Y-13052270D01*
X14209873Y-13052270D01*
X14190825Y-13061794D01*
X14181301Y-13071317D01*
X14390825Y-13185603D02*
X14371778Y-13176079D01*
X14362254Y-13166555D01*
X14352730Y-13147508D01*
X14352730Y-13090365D01*
X14362254Y-13071317D01*
X14371778Y-13061794D01*
X14390825Y-13052270D01*
X14419397Y-13052270D01*
X14438444Y-13061794D01*
X14447968Y-13071317D01*
X14457492Y-13090365D01*
X14457492Y-13147508D01*
X14447968Y-13166555D01*
X14438444Y-13176079D01*
X14419397Y-13185603D01*
X14390825Y-13185603D01*
X14571778Y-13185603D02*
X14552730Y-13176079D01*
X14543206Y-13157032D01*
X14543206Y-12985603D01*
X14724159Y-13176079D02*
X14705111Y-13185603D01*
X14667016Y-13185603D01*
X14647968Y-13176079D01*
X14638444Y-13157032D01*
X14638444Y-13080841D01*
X14647968Y-13061794D01*
X14667016Y-13052270D01*
X14705111Y-13052270D01*
X14724159Y-13061794D01*
X14733682Y-13080841D01*
X14733682Y-13099889D01*
X14638444Y-13118936D01*
X14809873Y-13176079D02*
X14828921Y-13185603D01*
X14867016Y-13185603D01*
X14886063Y-13176079D01*
X14895587Y-13157032D01*
X14895587Y-13147508D01*
X14886063Y-13128460D01*
X14867016Y-13118936D01*
X14838444Y-13118936D01*
X14819397Y-13109413D01*
X14809873Y-13090365D01*
X14809873Y-13080841D01*
X14819397Y-13061794D01*
X14838444Y-13052270D01*
X14867016Y-13052270D01*
X14886063Y-13061794D01*
X14962254Y-13261794D02*
X14971778Y-13252270D01*
X14990825Y-13223698D01*
X15000349Y-13204651D01*
X15009873Y-13176079D01*
X15019397Y-13128460D01*
X15019397Y-13090365D01*
X15009873Y-13042746D01*
X15000349Y-13014175D01*
X14990825Y-12995127D01*
X14971778Y-12966555D01*
X14962254Y-12957032D01*
D14*
X9949073Y-13308327D02*
X9949073Y-13409927D01*
X9898273Y-13359127D02*
X9999873Y-13359127D01*
D11*
X10362254Y-13449603D02*
X10247968Y-13449603D01*
X10305111Y-13449603D02*
X10305111Y-13249603D01*
X10286063Y-13278175D01*
X10267016Y-13297222D01*
X10247968Y-13306746D01*
X10447968Y-13430555D02*
X10457492Y-13440079D01*
X10447968Y-13449603D01*
X10438444Y-13440079D01*
X10447968Y-13430555D01*
X10447968Y-13449603D01*
X10581302Y-13249603D02*
X10600349Y-13249603D01*
X10619397Y-13259127D01*
X10628921Y-13268651D01*
X10638444Y-13287698D01*
X10647968Y-13325794D01*
X10647968Y-13373413D01*
X10638444Y-13411508D01*
X10628921Y-13430555D01*
X10619397Y-13440079D01*
X10600349Y-13449603D01*
X10581302Y-13449603D01*
X10562254Y-13440079D01*
X10552730Y-13430555D01*
X10543206Y-13411508D01*
X10533683Y-13373413D01*
X10533683Y-13325794D01*
X10543206Y-13287698D01*
X10552730Y-13268651D01*
X10562254Y-13259127D01*
X10581302Y-13249603D01*
X10838444Y-13449603D02*
X10724159Y-13449603D01*
X10781302Y-13449603D02*
X10781302Y-13249603D01*
X10762254Y-13278175D01*
X10743206Y-13297222D01*
X10724159Y-13306746D01*
X11009873Y-13249603D02*
X10971778Y-13249603D01*
X10952730Y-13259127D01*
X10943206Y-13268651D01*
X10924159Y-13297222D01*
X10914635Y-13335317D01*
X10914635Y-13411508D01*
X10924159Y-13430555D01*
X10933683Y-13440079D01*
X10952730Y-13449603D01*
X10990825Y-13449603D01*
X11009873Y-13440079D01*
X11019397Y-13430555D01*
X11028921Y-13411508D01*
X11028921Y-13363889D01*
X11019397Y-13344841D01*
X11009873Y-13335317D01*
X10990825Y-13325794D01*
X10952730Y-13325794D01*
X10933683Y-13335317D01*
X10924159Y-13344841D01*
X10914635Y-13363889D01*
X11114635Y-13449603D02*
X11114635Y-13316270D01*
X11114635Y-13335317D02*
X11124159Y-13325794D01*
X11143206Y-13316270D01*
X11171778Y-13316270D01*
X11190825Y-13325794D01*
X11200349Y-13344841D01*
X11200349Y-13449603D01*
X11200349Y-13344841D02*
X11209873Y-13325794D01*
X11228921Y-13316270D01*
X11257492Y-13316270D01*
X11276540Y-13325794D01*
X11286063Y-13344841D01*
X11286063Y-13449603D01*
X11381301Y-13449603D02*
X11381301Y-13316270D01*
X11381301Y-13335317D02*
X11390825Y-13325794D01*
X11409873Y-13316270D01*
X11438444Y-13316270D01*
X11457492Y-13325794D01*
X11467016Y-13344841D01*
X11467016Y-13449603D01*
X11467016Y-13344841D02*
X11476540Y-13325794D01*
X11495587Y-13316270D01*
X11524159Y-13316270D01*
X11543206Y-13325794D01*
X11552730Y-13344841D01*
X11552730Y-13449603D01*
X11943206Y-13240079D02*
X11771778Y-13497222D01*
X12200349Y-13249603D02*
X12219397Y-13249603D01*
X12238444Y-13259127D01*
X12247968Y-13268651D01*
X12257492Y-13287698D01*
X12267016Y-13325794D01*
X12267016Y-13373413D01*
X12257492Y-13411508D01*
X12247968Y-13430555D01*
X12238444Y-13440079D01*
X12219397Y-13449603D01*
X12200349Y-13449603D01*
X12181301Y-13440079D01*
X12171778Y-13430555D01*
X12162254Y-13411508D01*
X12152730Y-13373413D01*
X12152730Y-13325794D01*
X12162254Y-13287698D01*
X12171778Y-13268651D01*
X12181301Y-13259127D01*
X12200349Y-13249603D01*
X12352730Y-13430555D02*
X12362254Y-13440079D01*
X12352730Y-13449603D01*
X12343206Y-13440079D01*
X12352730Y-13430555D01*
X12352730Y-13449603D01*
X12486063Y-13249603D02*
X12505111Y-13249603D01*
X12524159Y-13259127D01*
X12533682Y-13268651D01*
X12543206Y-13287698D01*
X12552730Y-13325794D01*
X12552730Y-13373413D01*
X12543206Y-13411508D01*
X12533682Y-13430555D01*
X12524159Y-13440079D01*
X12505111Y-13449603D01*
X12486063Y-13449603D01*
X12467016Y-13440079D01*
X12457492Y-13430555D01*
X12447968Y-13411508D01*
X12438444Y-13373413D01*
X12438444Y-13325794D01*
X12447968Y-13287698D01*
X12457492Y-13268651D01*
X12467016Y-13259127D01*
X12486063Y-13249603D01*
X12724159Y-13316270D02*
X12724159Y-13449603D01*
X12676540Y-13240079D02*
X12628921Y-13382936D01*
X12752730Y-13382936D01*
X12867016Y-13249603D02*
X12886063Y-13249603D01*
X12905111Y-13259127D01*
X12914635Y-13268651D01*
X12924159Y-13287698D01*
X12933682Y-13325794D01*
X12933682Y-13373413D01*
X12924159Y-13411508D01*
X12914635Y-13430555D01*
X12905111Y-13440079D01*
X12886063Y-13449603D01*
X12867016Y-13449603D01*
X12847968Y-13440079D01*
X12838444Y-13430555D01*
X12828921Y-13411508D01*
X12819397Y-13373413D01*
X12819397Y-13325794D01*
X12828921Y-13287698D01*
X12838444Y-13268651D01*
X12847968Y-13259127D01*
X12867016Y-13249603D01*
X13057492Y-13249603D02*
X13076540Y-13249603D01*
X13095587Y-13259127D01*
X13105111Y-13268651D01*
X13114635Y-13287698D01*
X13124159Y-13325794D01*
X13124159Y-13373413D01*
X13114635Y-13411508D01*
X13105111Y-13430555D01*
X13095587Y-13440079D01*
X13076540Y-13449603D01*
X13057492Y-13449603D01*
X13038444Y-13440079D01*
X13028921Y-13430555D01*
X13019397Y-13411508D01*
X13009873Y-13373413D01*
X13009873Y-13325794D01*
X13019397Y-13287698D01*
X13028921Y-13268651D01*
X13038444Y-13259127D01*
X13057492Y-13249603D01*
X13200349Y-13249603D02*
X13200349Y-13287698D01*
X13276540Y-13249603D02*
X13276540Y-13287698D01*
X13571778Y-13525794D02*
X13562254Y-13516270D01*
X13543206Y-13487698D01*
X13533682Y-13468651D01*
X13524159Y-13440079D01*
X13514635Y-13392460D01*
X13514635Y-13354365D01*
X13524159Y-13306746D01*
X13533682Y-13278175D01*
X13543206Y-13259127D01*
X13562254Y-13230555D01*
X13571778Y-13221032D01*
X13657492Y-13449603D02*
X13695587Y-13449603D01*
X13714635Y-13440079D01*
X13724159Y-13430555D01*
X13743206Y-13401984D01*
X13752730Y-13363889D01*
X13752730Y-13287698D01*
X13743206Y-13268651D01*
X13733682Y-13259127D01*
X13714635Y-13249603D01*
X13676540Y-13249603D01*
X13657492Y-13259127D01*
X13647968Y-13268651D01*
X13638444Y-13287698D01*
X13638444Y-13335317D01*
X13647968Y-13354365D01*
X13657492Y-13363889D01*
X13676540Y-13373413D01*
X13714635Y-13373413D01*
X13733682Y-13363889D01*
X13743206Y-13354365D01*
X13752730Y-13335317D01*
X13828921Y-13268651D02*
X13838444Y-13259127D01*
X13857492Y-13249603D01*
X13905111Y-13249603D01*
X13924159Y-13259127D01*
X13933682Y-13268651D01*
X13943206Y-13287698D01*
X13943206Y-13306746D01*
X13933682Y-13335317D01*
X13819397Y-13449603D01*
X13943206Y-13449603D01*
X14181301Y-13449603D02*
X14181301Y-13249603D01*
X14267016Y-13449603D02*
X14267016Y-13344841D01*
X14257492Y-13325794D01*
X14238444Y-13316270D01*
X14209873Y-13316270D01*
X14190825Y-13325794D01*
X14181301Y-13335317D01*
X14390825Y-13449603D02*
X14371778Y-13440079D01*
X14362254Y-13430555D01*
X14352730Y-13411508D01*
X14352730Y-13354365D01*
X14362254Y-13335317D01*
X14371778Y-13325794D01*
X14390825Y-13316270D01*
X14419397Y-13316270D01*
X14438444Y-13325794D01*
X14447968Y-13335317D01*
X14457492Y-13354365D01*
X14457492Y-13411508D01*
X14447968Y-13430555D01*
X14438444Y-13440079D01*
X14419397Y-13449603D01*
X14390825Y-13449603D01*
X14571778Y-13449603D02*
X14552730Y-13440079D01*
X14543206Y-13421032D01*
X14543206Y-13249603D01*
X14724159Y-13440079D02*
X14705111Y-13449603D01*
X14667016Y-13449603D01*
X14647968Y-13440079D01*
X14638444Y-13421032D01*
X14638444Y-13344841D01*
X14647968Y-13325794D01*
X14667016Y-13316270D01*
X14705111Y-13316270D01*
X14724159Y-13325794D01*
X14733682Y-13344841D01*
X14733682Y-13363889D01*
X14638444Y-13382936D01*
X14809873Y-13440079D02*
X14828921Y-13449603D01*
X14867016Y-13449603D01*
X14886063Y-13440079D01*
X14895587Y-13421032D01*
X14895587Y-13411508D01*
X14886063Y-13392460D01*
X14867016Y-13382936D01*
X14838444Y-13382936D01*
X14819397Y-13373413D01*
X14809873Y-13354365D01*
X14809873Y-13344841D01*
X14819397Y-13325794D01*
X14838444Y-13316270D01*
X14867016Y-13316270D01*
X14886063Y-13325794D01*
X14962254Y-13525794D02*
X14971778Y-13516270D01*
X14990825Y-13487698D01*
X15000349Y-13468651D01*
X15009873Y-13440079D01*
X15019397Y-13392460D01*
X15019397Y-13354365D01*
X15009873Y-13306746D01*
X15000349Y-13278175D01*
X14990825Y-13259127D01*
X14971778Y-13230555D01*
X14962254Y-13221032D01*
D15*
X9983764Y-13662018D02*
X9983764Y-13584236D01*
X9905982Y-13584236D01*
X9905982Y-13662018D01*
X9983764Y-13662018D01*
D11*
X10362254Y-13713603D02*
X10247968Y-13713603D01*
X10305111Y-13713603D02*
X10305111Y-13513603D01*
X10286063Y-13542175D01*
X10267016Y-13561222D01*
X10247968Y-13570746D01*
X10447968Y-13694555D02*
X10457492Y-13704079D01*
X10447968Y-13713603D01*
X10438444Y-13704079D01*
X10447968Y-13694555D01*
X10447968Y-13713603D01*
X10647968Y-13713603D02*
X10533683Y-13713603D01*
X10590825Y-13713603D02*
X10590825Y-13513603D01*
X10571778Y-13542175D01*
X10552730Y-13561222D01*
X10533683Y-13570746D01*
X10771778Y-13513603D02*
X10790825Y-13513603D01*
X10809873Y-13523127D01*
X10819397Y-13532651D01*
X10828921Y-13551698D01*
X10838444Y-13589794D01*
X10838444Y-13637413D01*
X10828921Y-13675508D01*
X10819397Y-13694555D01*
X10809873Y-13704079D01*
X10790825Y-13713603D01*
X10771778Y-13713603D01*
X10752730Y-13704079D01*
X10743206Y-13694555D01*
X10733683Y-13675508D01*
X10724159Y-13637413D01*
X10724159Y-13589794D01*
X10733683Y-13551698D01*
X10743206Y-13532651D01*
X10752730Y-13523127D01*
X10771778Y-13513603D01*
X10962254Y-13513603D02*
X10981302Y-13513603D01*
X11000349Y-13523127D01*
X11009873Y-13532651D01*
X11019397Y-13551698D01*
X11028921Y-13589794D01*
X11028921Y-13637413D01*
X11019397Y-13675508D01*
X11009873Y-13694555D01*
X11000349Y-13704079D01*
X10981302Y-13713603D01*
X10962254Y-13713603D01*
X10943206Y-13704079D01*
X10933683Y-13694555D01*
X10924159Y-13675508D01*
X10914635Y-13637413D01*
X10914635Y-13589794D01*
X10924159Y-13551698D01*
X10933683Y-13532651D01*
X10943206Y-13523127D01*
X10962254Y-13513603D01*
X11114635Y-13713603D02*
X11114635Y-13580270D01*
X11114635Y-13599317D02*
X11124159Y-13589794D01*
X11143206Y-13580270D01*
X11171778Y-13580270D01*
X11190825Y-13589794D01*
X11200349Y-13608841D01*
X11200349Y-13713603D01*
X11200349Y-13608841D02*
X11209873Y-13589794D01*
X11228921Y-13580270D01*
X11257492Y-13580270D01*
X11276540Y-13589794D01*
X11286063Y-13608841D01*
X11286063Y-13713603D01*
X11381301Y-13713603D02*
X11381301Y-13580270D01*
X11381301Y-13599317D02*
X11390825Y-13589794D01*
X11409873Y-13580270D01*
X11438444Y-13580270D01*
X11457492Y-13589794D01*
X11467016Y-13608841D01*
X11467016Y-13713603D01*
X11467016Y-13608841D02*
X11476540Y-13589794D01*
X11495587Y-13580270D01*
X11524159Y-13580270D01*
X11543206Y-13589794D01*
X11552730Y-13608841D01*
X11552730Y-13713603D01*
X11943206Y-13504079D02*
X11771778Y-13761222D01*
X12200349Y-13513603D02*
X12219397Y-13513603D01*
X12238444Y-13523127D01*
X12247968Y-13532651D01*
X12257492Y-13551698D01*
X12267016Y-13589794D01*
X12267016Y-13637413D01*
X12257492Y-13675508D01*
X12247968Y-13694555D01*
X12238444Y-13704079D01*
X12219397Y-13713603D01*
X12200349Y-13713603D01*
X12181301Y-13704079D01*
X12171778Y-13694555D01*
X12162254Y-13675508D01*
X12152730Y-13637413D01*
X12152730Y-13589794D01*
X12162254Y-13551698D01*
X12171778Y-13532651D01*
X12181301Y-13523127D01*
X12200349Y-13513603D01*
X12352730Y-13694555D02*
X12362254Y-13704079D01*
X12352730Y-13713603D01*
X12343206Y-13704079D01*
X12352730Y-13694555D01*
X12352730Y-13713603D01*
X12486063Y-13513603D02*
X12505111Y-13513603D01*
X12524159Y-13523127D01*
X12533682Y-13532651D01*
X12543206Y-13551698D01*
X12552730Y-13589794D01*
X12552730Y-13637413D01*
X12543206Y-13675508D01*
X12533682Y-13694555D01*
X12524159Y-13704079D01*
X12505111Y-13713603D01*
X12486063Y-13713603D01*
X12467016Y-13704079D01*
X12457492Y-13694555D01*
X12447968Y-13675508D01*
X12438444Y-13637413D01*
X12438444Y-13589794D01*
X12447968Y-13551698D01*
X12457492Y-13532651D01*
X12467016Y-13523127D01*
X12486063Y-13513603D01*
X12724159Y-13580270D02*
X12724159Y-13713603D01*
X12676540Y-13504079D02*
X12628921Y-13646936D01*
X12752730Y-13646936D01*
X12809873Y-13513603D02*
X12933682Y-13513603D01*
X12867016Y-13589794D01*
X12895587Y-13589794D01*
X12914635Y-13599317D01*
X12924159Y-13608841D01*
X12933682Y-13627889D01*
X12933682Y-13675508D01*
X12924159Y-13694555D01*
X12914635Y-13704079D01*
X12895587Y-13713603D01*
X12838444Y-13713603D01*
X12819397Y-13704079D01*
X12809873Y-13694555D01*
X13000349Y-13513603D02*
X13124159Y-13513603D01*
X13057492Y-13589794D01*
X13086063Y-13589794D01*
X13105111Y-13599317D01*
X13114635Y-13608841D01*
X13124159Y-13627889D01*
X13124159Y-13675508D01*
X13114635Y-13694555D01*
X13105111Y-13704079D01*
X13086063Y-13713603D01*
X13028921Y-13713603D01*
X13009873Y-13704079D01*
X13000349Y-13694555D01*
X13200349Y-13513603D02*
X13200349Y-13551698D01*
X13276540Y-13513603D02*
X13276540Y-13551698D01*
X13571778Y-13789794D02*
X13562254Y-13780270D01*
X13543206Y-13751698D01*
X13533682Y-13732651D01*
X13524159Y-13704079D01*
X13514635Y-13656460D01*
X13514635Y-13618365D01*
X13524159Y-13570746D01*
X13533682Y-13542175D01*
X13543206Y-13523127D01*
X13562254Y-13494555D01*
X13571778Y-13485032D01*
X13638444Y-13532651D02*
X13647968Y-13523127D01*
X13667016Y-13513603D01*
X13714635Y-13513603D01*
X13733682Y-13523127D01*
X13743206Y-13532651D01*
X13752730Y-13551698D01*
X13752730Y-13570746D01*
X13743206Y-13599317D01*
X13628921Y-13713603D01*
X13752730Y-13713603D01*
X13990825Y-13713603D02*
X13990825Y-13513603D01*
X14076540Y-13713603D02*
X14076540Y-13608841D01*
X14067016Y-13589794D01*
X14047968Y-13580270D01*
X14019397Y-13580270D01*
X14000349Y-13589794D01*
X13990825Y-13599317D01*
X14200349Y-13713603D02*
X14181301Y-13704079D01*
X14171778Y-13694555D01*
X14162254Y-13675508D01*
X14162254Y-13618365D01*
X14171778Y-13599317D01*
X14181301Y-13589794D01*
X14200349Y-13580270D01*
X14228921Y-13580270D01*
X14247968Y-13589794D01*
X14257492Y-13599317D01*
X14267016Y-13618365D01*
X14267016Y-13675508D01*
X14257492Y-13694555D01*
X14247968Y-13704079D01*
X14228921Y-13713603D01*
X14200349Y-13713603D01*
X14381301Y-13713603D02*
X14362254Y-13704079D01*
X14352730Y-13685032D01*
X14352730Y-13513603D01*
X14533682Y-13704079D02*
X14514635Y-13713603D01*
X14476540Y-13713603D01*
X14457492Y-13704079D01*
X14447968Y-13685032D01*
X14447968Y-13608841D01*
X14457492Y-13589794D01*
X14476540Y-13580270D01*
X14514635Y-13580270D01*
X14533682Y-13589794D01*
X14543206Y-13608841D01*
X14543206Y-13627889D01*
X14447968Y-13646936D01*
X14619397Y-13704079D02*
X14638444Y-13713603D01*
X14676540Y-13713603D01*
X14695587Y-13704079D01*
X14705111Y-13685032D01*
X14705111Y-13675508D01*
X14695587Y-13656460D01*
X14676540Y-13646936D01*
X14647968Y-13646936D01*
X14628921Y-13637413D01*
X14619397Y-13618365D01*
X14619397Y-13608841D01*
X14628921Y-13589794D01*
X14647968Y-13580270D01*
X14676540Y-13580270D01*
X14695587Y-13589794D01*
X14771778Y-13789794D02*
X14781301Y-13780270D01*
X14800349Y-13751698D01*
X14809873Y-13732651D01*
X14819397Y-13704079D01*
X14828921Y-13656460D01*
X14828921Y-13618365D01*
X14819397Y-13570746D01*
X14809873Y-13542175D01*
X14800349Y-13523127D01*
X14781301Y-13494555D01*
X14771778Y-13485032D01*
D16*
X9939873Y-13947127D02*
X9999873Y-13887127D01*
X9939873Y-13827127D01*
X9879873Y-13887127D01*
X9939873Y-13947127D01*
D11*
X10362254Y-13977603D02*
X10247968Y-13977603D01*
X10305111Y-13977603D02*
X10305111Y-13777603D01*
X10286063Y-13806175D01*
X10267016Y-13825222D01*
X10247968Y-13834746D01*
X10447968Y-13958555D02*
X10457492Y-13968079D01*
X10447968Y-13977603D01*
X10438444Y-13968079D01*
X10447968Y-13958555D01*
X10447968Y-13977603D01*
X10533683Y-13796651D02*
X10543206Y-13787127D01*
X10562254Y-13777603D01*
X10609873Y-13777603D01*
X10628921Y-13787127D01*
X10638444Y-13796651D01*
X10647968Y-13815698D01*
X10647968Y-13834746D01*
X10638444Y-13863317D01*
X10524159Y-13977603D01*
X10647968Y-13977603D01*
X10771778Y-13777603D02*
X10790825Y-13777603D01*
X10809873Y-13787127D01*
X10819397Y-13796651D01*
X10828921Y-13815698D01*
X10838444Y-13853794D01*
X10838444Y-13901413D01*
X10828921Y-13939508D01*
X10819397Y-13958555D01*
X10809873Y-13968079D01*
X10790825Y-13977603D01*
X10771778Y-13977603D01*
X10752730Y-13968079D01*
X10743206Y-13958555D01*
X10733683Y-13939508D01*
X10724159Y-13901413D01*
X10724159Y-13853794D01*
X10733683Y-13815698D01*
X10743206Y-13796651D01*
X10752730Y-13787127D01*
X10771778Y-13777603D01*
X10962254Y-13777603D02*
X10981302Y-13777603D01*
X11000349Y-13787127D01*
X11009873Y-13796651D01*
X11019397Y-13815698D01*
X11028921Y-13853794D01*
X11028921Y-13901413D01*
X11019397Y-13939508D01*
X11009873Y-13958555D01*
X11000349Y-13968079D01*
X10981302Y-13977603D01*
X10962254Y-13977603D01*
X10943206Y-13968079D01*
X10933683Y-13958555D01*
X10924159Y-13939508D01*
X10914635Y-13901413D01*
X10914635Y-13853794D01*
X10924159Y-13815698D01*
X10933683Y-13796651D01*
X10943206Y-13787127D01*
X10962254Y-13777603D01*
X11114635Y-13977603D02*
X11114635Y-13844270D01*
X11114635Y-13863317D02*
X11124159Y-13853794D01*
X11143206Y-13844270D01*
X11171778Y-13844270D01*
X11190825Y-13853794D01*
X11200349Y-13872841D01*
X11200349Y-13977603D01*
X11200349Y-13872841D02*
X11209873Y-13853794D01*
X11228921Y-13844270D01*
X11257492Y-13844270D01*
X11276540Y-13853794D01*
X11286063Y-13872841D01*
X11286063Y-13977603D01*
X11381301Y-13977603D02*
X11381301Y-13844270D01*
X11381301Y-13863317D02*
X11390825Y-13853794D01*
X11409873Y-13844270D01*
X11438444Y-13844270D01*
X11457492Y-13853794D01*
X11467016Y-13872841D01*
X11467016Y-13977603D01*
X11467016Y-13872841D02*
X11476540Y-13853794D01*
X11495587Y-13844270D01*
X11524159Y-13844270D01*
X11543206Y-13853794D01*
X11552730Y-13872841D01*
X11552730Y-13977603D01*
X11943206Y-13768079D02*
X11771778Y-14025222D01*
X12200349Y-13777603D02*
X12219397Y-13777603D01*
X12238444Y-13787127D01*
X12247968Y-13796651D01*
X12257492Y-13815698D01*
X12267016Y-13853794D01*
X12267016Y-13901413D01*
X12257492Y-13939508D01*
X12247968Y-13958555D01*
X12238444Y-13968079D01*
X12219397Y-13977603D01*
X12200349Y-13977603D01*
X12181301Y-13968079D01*
X12171778Y-13958555D01*
X12162254Y-13939508D01*
X12152730Y-13901413D01*
X12152730Y-13853794D01*
X12162254Y-13815698D01*
X12171778Y-13796651D01*
X12181301Y-13787127D01*
X12200349Y-13777603D01*
X12352730Y-13958555D02*
X12362254Y-13968079D01*
X12352730Y-13977603D01*
X12343206Y-13968079D01*
X12352730Y-13958555D01*
X12352730Y-13977603D01*
X12486063Y-13777603D02*
X12505111Y-13777603D01*
X12524159Y-13787127D01*
X12533682Y-13796651D01*
X12543206Y-13815698D01*
X12552730Y-13853794D01*
X12552730Y-13901413D01*
X12543206Y-13939508D01*
X12533682Y-13958555D01*
X12524159Y-13968079D01*
X12505111Y-13977603D01*
X12486063Y-13977603D01*
X12467016Y-13968079D01*
X12457492Y-13958555D01*
X12447968Y-13939508D01*
X12438444Y-13901413D01*
X12438444Y-13853794D01*
X12447968Y-13815698D01*
X12457492Y-13796651D01*
X12467016Y-13787127D01*
X12486063Y-13777603D01*
X12724159Y-13844270D02*
X12724159Y-13977603D01*
X12676540Y-13768079D02*
X12628921Y-13910936D01*
X12752730Y-13910936D01*
X12809873Y-13777603D02*
X12943206Y-13777603D01*
X12857492Y-13977603D01*
X13009873Y-13796651D02*
X13019397Y-13787127D01*
X13038444Y-13777603D01*
X13086063Y-13777603D01*
X13105111Y-13787127D01*
X13114635Y-13796651D01*
X13124159Y-13815698D01*
X13124159Y-13834746D01*
X13114635Y-13863317D01*
X13000349Y-13977603D01*
X13124159Y-13977603D01*
X13200349Y-13777603D02*
X13200349Y-13815698D01*
X13276540Y-13777603D02*
X13276540Y-13815698D01*
X13571778Y-14053794D02*
X13562254Y-14044270D01*
X13543206Y-14015698D01*
X13533682Y-13996651D01*
X13524159Y-13968079D01*
X13514635Y-13920460D01*
X13514635Y-13882365D01*
X13524159Y-13834746D01*
X13533682Y-13806175D01*
X13543206Y-13787127D01*
X13562254Y-13758555D01*
X13571778Y-13749032D01*
X13733682Y-13844270D02*
X13733682Y-13977603D01*
X13686063Y-13768079D02*
X13638444Y-13910936D01*
X13762254Y-13910936D01*
X13990825Y-13977603D02*
X13990825Y-13777603D01*
X14076540Y-13977603D02*
X14076540Y-13872841D01*
X14067016Y-13853794D01*
X14047968Y-13844270D01*
X14019397Y-13844270D01*
X14000349Y-13853794D01*
X13990825Y-13863317D01*
X14200349Y-13977603D02*
X14181301Y-13968079D01*
X14171778Y-13958555D01*
X14162254Y-13939508D01*
X14162254Y-13882365D01*
X14171778Y-13863317D01*
X14181301Y-13853794D01*
X14200349Y-13844270D01*
X14228921Y-13844270D01*
X14247968Y-13853794D01*
X14257492Y-13863317D01*
X14267016Y-13882365D01*
X14267016Y-13939508D01*
X14257492Y-13958555D01*
X14247968Y-13968079D01*
X14228921Y-13977603D01*
X14200349Y-13977603D01*
X14381301Y-13977603D02*
X14362254Y-13968079D01*
X14352730Y-13949032D01*
X14352730Y-13777603D01*
X14533682Y-13968079D02*
X14514635Y-13977603D01*
X14476540Y-13977603D01*
X14457492Y-13968079D01*
X14447968Y-13949032D01*
X14447968Y-13872841D01*
X14457492Y-13853794D01*
X14476540Y-13844270D01*
X14514635Y-13844270D01*
X14533682Y-13853794D01*
X14543206Y-13872841D01*
X14543206Y-13891889D01*
X14447968Y-13910936D01*
X14619397Y-13968079D02*
X14638444Y-13977603D01*
X14676540Y-13977603D01*
X14695587Y-13968079D01*
X14705111Y-13949032D01*
X14705111Y-13939508D01*
X14695587Y-13920460D01*
X14676540Y-13910936D01*
X14647968Y-13910936D01*
X14628921Y-13901413D01*
X14619397Y-13882365D01*
X14619397Y-13872841D01*
X14628921Y-13853794D01*
X14647968Y-13844270D01*
X14676540Y-13844270D01*
X14695587Y-13853794D01*
X14771778Y-14053794D02*
X14781301Y-14044270D01*
X14800349Y-14015698D01*
X14809873Y-13996651D01*
X14819397Y-13968079D01*
X14828921Y-13920460D01*
X14828921Y-13882365D01*
X14819397Y-13834746D01*
X14809873Y-13806175D01*
X14800349Y-13787127D01*
X14781301Y-13758555D01*
X14771778Y-13749032D01*
D17*
X9869873Y-14086127D02*
X9999873Y-14216127D01*
X9999873Y-14086127D02*
X9869873Y-14216127D01*
X9999873Y-14151127D02*
G75*
G03*
X9999873Y-14151127I-65000J0D01*
G01*
D11*
X10362254Y-14241603D02*
X10247968Y-14241603D01*
X10305111Y-14241603D02*
X10305111Y-14041603D01*
X10286063Y-14070175D01*
X10267016Y-14089222D01*
X10247968Y-14098746D01*
X10447968Y-14222555D02*
X10457492Y-14232079D01*
X10447968Y-14241603D01*
X10438444Y-14232079D01*
X10447968Y-14222555D01*
X10447968Y-14241603D01*
X10524159Y-14041603D02*
X10647968Y-14041603D01*
X10581302Y-14117794D01*
X10609873Y-14117794D01*
X10628921Y-14127317D01*
X10638444Y-14136841D01*
X10647968Y-14155889D01*
X10647968Y-14203508D01*
X10638444Y-14222555D01*
X10628921Y-14232079D01*
X10609873Y-14241603D01*
X10552730Y-14241603D01*
X10533683Y-14232079D01*
X10524159Y-14222555D01*
X10771778Y-14041603D02*
X10790825Y-14041603D01*
X10809873Y-14051127D01*
X10819397Y-14060651D01*
X10828921Y-14079698D01*
X10838444Y-14117794D01*
X10838444Y-14165413D01*
X10828921Y-14203508D01*
X10819397Y-14222555D01*
X10809873Y-14232079D01*
X10790825Y-14241603D01*
X10771778Y-14241603D01*
X10752730Y-14232079D01*
X10743206Y-14222555D01*
X10733683Y-14203508D01*
X10724159Y-14165413D01*
X10724159Y-14117794D01*
X10733683Y-14079698D01*
X10743206Y-14060651D01*
X10752730Y-14051127D01*
X10771778Y-14041603D01*
X10962254Y-14041603D02*
X10981302Y-14041603D01*
X11000349Y-14051127D01*
X11009873Y-14060651D01*
X11019397Y-14079698D01*
X11028921Y-14117794D01*
X11028921Y-14165413D01*
X11019397Y-14203508D01*
X11009873Y-14222555D01*
X11000349Y-14232079D01*
X10981302Y-14241603D01*
X10962254Y-14241603D01*
X10943206Y-14232079D01*
X10933683Y-14222555D01*
X10924159Y-14203508D01*
X10914635Y-14165413D01*
X10914635Y-14117794D01*
X10924159Y-14079698D01*
X10933683Y-14060651D01*
X10943206Y-14051127D01*
X10962254Y-14041603D01*
X11114635Y-14241603D02*
X11114635Y-14108270D01*
X11114635Y-14127317D02*
X11124159Y-14117794D01*
X11143206Y-14108270D01*
X11171778Y-14108270D01*
X11190825Y-14117794D01*
X11200349Y-14136841D01*
X11200349Y-14241603D01*
X11200349Y-14136841D02*
X11209873Y-14117794D01*
X11228921Y-14108270D01*
X11257492Y-14108270D01*
X11276540Y-14117794D01*
X11286063Y-14136841D01*
X11286063Y-14241603D01*
X11381301Y-14241603D02*
X11381301Y-14108270D01*
X11381301Y-14127317D02*
X11390825Y-14117794D01*
X11409873Y-14108270D01*
X11438444Y-14108270D01*
X11457492Y-14117794D01*
X11467016Y-14136841D01*
X11467016Y-14241603D01*
X11467016Y-14136841D02*
X11476540Y-14117794D01*
X11495587Y-14108270D01*
X11524159Y-14108270D01*
X11543206Y-14117794D01*
X11552730Y-14136841D01*
X11552730Y-14241603D01*
X11943206Y-14032079D02*
X11771778Y-14289222D01*
X12200349Y-14041603D02*
X12219397Y-14041603D01*
X12238444Y-14051127D01*
X12247968Y-14060651D01*
X12257492Y-14079698D01*
X12267016Y-14117794D01*
X12267016Y-14165413D01*
X12257492Y-14203508D01*
X12247968Y-14222555D01*
X12238444Y-14232079D01*
X12219397Y-14241603D01*
X12200349Y-14241603D01*
X12181301Y-14232079D01*
X12171778Y-14222555D01*
X12162254Y-14203508D01*
X12152730Y-14165413D01*
X12152730Y-14117794D01*
X12162254Y-14079698D01*
X12171778Y-14060651D01*
X12181301Y-14051127D01*
X12200349Y-14041603D01*
X12352730Y-14222555D02*
X12362254Y-14232079D01*
X12352730Y-14241603D01*
X12343206Y-14232079D01*
X12352730Y-14222555D01*
X12352730Y-14241603D01*
X12486063Y-14041603D02*
X12505111Y-14041603D01*
X12524159Y-14051127D01*
X12533682Y-14060651D01*
X12543206Y-14079698D01*
X12552730Y-14117794D01*
X12552730Y-14165413D01*
X12543206Y-14203508D01*
X12533682Y-14222555D01*
X12524159Y-14232079D01*
X12505111Y-14241603D01*
X12486063Y-14241603D01*
X12467016Y-14232079D01*
X12457492Y-14222555D01*
X12447968Y-14203508D01*
X12438444Y-14165413D01*
X12438444Y-14117794D01*
X12447968Y-14079698D01*
X12457492Y-14060651D01*
X12467016Y-14051127D01*
X12486063Y-14041603D01*
X12733682Y-14041603D02*
X12638444Y-14041603D01*
X12628921Y-14136841D01*
X12638444Y-14127317D01*
X12657492Y-14117794D01*
X12705111Y-14117794D01*
X12724159Y-14127317D01*
X12733682Y-14136841D01*
X12743206Y-14155889D01*
X12743206Y-14203508D01*
X12733682Y-14222555D01*
X12724159Y-14232079D01*
X12705111Y-14241603D01*
X12657492Y-14241603D01*
X12638444Y-14232079D01*
X12628921Y-14222555D01*
X12933682Y-14241603D02*
X12819397Y-14241603D01*
X12876540Y-14241603D02*
X12876540Y-14041603D01*
X12857492Y-14070175D01*
X12838444Y-14089222D01*
X12819397Y-14098746D01*
X13009873Y-14060651D02*
X13019397Y-14051127D01*
X13038444Y-14041603D01*
X13086063Y-14041603D01*
X13105111Y-14051127D01*
X13114635Y-14060651D01*
X13124159Y-14079698D01*
X13124159Y-14098746D01*
X13114635Y-14127317D01*
X13000349Y-14241603D01*
X13124159Y-14241603D01*
X13200349Y-14041603D02*
X13200349Y-14079698D01*
X13276540Y-14041603D02*
X13276540Y-14079698D01*
X13571778Y-14317794D02*
X13562254Y-14308270D01*
X13543206Y-14279698D01*
X13533682Y-14260651D01*
X13524159Y-14232079D01*
X13514635Y-14184460D01*
X13514635Y-14146365D01*
X13524159Y-14098746D01*
X13533682Y-14070175D01*
X13543206Y-14051127D01*
X13562254Y-14022555D01*
X13571778Y-14013032D01*
X13743206Y-14041603D02*
X13647968Y-14041603D01*
X13638444Y-14136841D01*
X13647968Y-14127317D01*
X13667016Y-14117794D01*
X13714635Y-14117794D01*
X13733682Y-14127317D01*
X13743206Y-14136841D01*
X13752730Y-14155889D01*
X13752730Y-14203508D01*
X13743206Y-14222555D01*
X13733682Y-14232079D01*
X13714635Y-14241603D01*
X13667016Y-14241603D01*
X13647968Y-14232079D01*
X13638444Y-14222555D01*
X13990825Y-14241603D02*
X13990825Y-14041603D01*
X14076540Y-14241603D02*
X14076540Y-14136841D01*
X14067016Y-14117794D01*
X14047968Y-14108270D01*
X14019397Y-14108270D01*
X14000349Y-14117794D01*
X13990825Y-14127317D01*
X14200349Y-14241603D02*
X14181301Y-14232079D01*
X14171778Y-14222555D01*
X14162254Y-14203508D01*
X14162254Y-14146365D01*
X14171778Y-14127317D01*
X14181301Y-14117794D01*
X14200349Y-14108270D01*
X14228921Y-14108270D01*
X14247968Y-14117794D01*
X14257492Y-14127317D01*
X14267016Y-14146365D01*
X14267016Y-14203508D01*
X14257492Y-14222555D01*
X14247968Y-14232079D01*
X14228921Y-14241603D01*
X14200349Y-14241603D01*
X14381301Y-14241603D02*
X14362254Y-14232079D01*
X14352730Y-14213032D01*
X14352730Y-14041603D01*
X14533682Y-14232079D02*
X14514635Y-14241603D01*
X14476540Y-14241603D01*
X14457492Y-14232079D01*
X14447968Y-14213032D01*
X14447968Y-14136841D01*
X14457492Y-14117794D01*
X14476540Y-14108270D01*
X14514635Y-14108270D01*
X14533682Y-14117794D01*
X14543206Y-14136841D01*
X14543206Y-14155889D01*
X14447968Y-14174936D01*
X14619397Y-14232079D02*
X14638444Y-14241603D01*
X14676540Y-14241603D01*
X14695587Y-14232079D01*
X14705111Y-14213032D01*
X14705111Y-14203508D01*
X14695587Y-14184460D01*
X14676540Y-14174936D01*
X14647968Y-14174936D01*
X14628921Y-14165413D01*
X14619397Y-14146365D01*
X14619397Y-14136841D01*
X14628921Y-14117794D01*
X14647968Y-14108270D01*
X14676540Y-14108270D01*
X14695587Y-14117794D01*
X14771778Y-14317794D02*
X14781301Y-14308270D01*
X14800349Y-14279698D01*
X14809873Y-14260651D01*
X14819397Y-14232079D01*
X14828921Y-14184460D01*
X14828921Y-14146365D01*
X14819397Y-14098746D01*
X14809873Y-14070175D01*
X14800349Y-14051127D01*
X14781301Y-14022555D01*
X14771778Y-14013032D01*
M02*
