G04 #@! TF.GenerationSoftware,KiCad,Pcbnew,6.0.11-2627ca5db0~126~ubuntu20.04.1*
G04 #@! TF.CreationDate,2023-02-26T18:19:28-08:00*
G04 #@! TF.ProjectId,stingray,7374696e-6772-4617-992e-6b696361645f,A1*
G04 #@! TF.SameCoordinates,Original*
G04 #@! TF.FileFunction,Copper,L2,Bot*
G04 #@! TF.FilePolarity,Positive*
%FSLAX46Y46*%
G04 Gerber Fmt 4.6, Leading zero omitted, Abs format (unit mm)*
G04 Created by KiCad (PCBNEW 6.0.11-2627ca5db0~126~ubuntu20.04.1) date 2023-02-26 18:19:28*
%MOMM*%
%LPD*%
G01*
G04 APERTURE LIST*
G04 Aperture macros list*
%AMRoundRect*
0 Rectangle with rounded corners*
0 $1 Rounding radius*
0 $2 $3 $4 $5 $6 $7 $8 $9 X,Y pos of 4 corners*
0 Add a 4 corners polygon primitive as box body*
4,1,4,$2,$3,$4,$5,$6,$7,$8,$9,$2,$3,0*
0 Add four circle primitives for the rounded corners*
1,1,$1+$1,$2,$3*
1,1,$1+$1,$4,$5*
1,1,$1+$1,$6,$7*
1,1,$1+$1,$8,$9*
0 Add four rect primitives between the rounded corners*
20,1,$1+$1,$2,$3,$4,$5,0*
20,1,$1+$1,$4,$5,$6,$7,0*
20,1,$1+$1,$6,$7,$8,$9,0*
20,1,$1+$1,$8,$9,$2,$3,0*%
G04 Aperture macros list end*
G04 #@! TA.AperFunction,ComponentPad*
%ADD10C,1.600000*%
G04 #@! TD*
G04 #@! TA.AperFunction,ComponentPad*
%ADD11O,1.600000X1.600000*%
G04 #@! TD*
G04 #@! TA.AperFunction,ComponentPad*
%ADD12R,1.050000X1.500000*%
G04 #@! TD*
G04 #@! TA.AperFunction,ComponentPad*
%ADD13O,1.050000X1.500000*%
G04 #@! TD*
G04 #@! TA.AperFunction,ComponentPad*
%ADD14R,2.200000X2.200000*%
G04 #@! TD*
G04 #@! TA.AperFunction,ComponentPad*
%ADD15O,2.200000X2.200000*%
G04 #@! TD*
G04 #@! TA.AperFunction,ComponentPad*
%ADD16O,3.600000X1.800000*%
G04 #@! TD*
G04 #@! TA.AperFunction,ComponentPad*
%ADD17RoundRect,0.250000X-1.550000X0.650000X-1.550000X-0.650000X1.550000X-0.650000X1.550000X0.650000X0*%
G04 #@! TD*
G04 #@! TA.AperFunction,ComponentPad*
%ADD18R,1.727200X1.727200*%
G04 #@! TD*
G04 #@! TA.AperFunction,ComponentPad*
%ADD19O,1.727200X1.727200*%
G04 #@! TD*
G04 #@! TA.AperFunction,ComponentPad*
%ADD20R,1.600000X1.600000*%
G04 #@! TD*
G04 #@! TA.AperFunction,ComponentPad*
%ADD21C,2.300000*%
G04 #@! TD*
G04 #@! TA.AperFunction,Conductor*
%ADD22C,2.000000*%
G04 #@! TD*
G04 APERTURE END LIST*
D10*
X147500000Y-85660000D03*
D11*
X147500000Y-75500000D03*
D10*
X140000000Y-75500000D03*
D11*
X140000000Y-85660000D03*
D10*
X154000000Y-75500000D03*
D11*
X154000000Y-85660000D03*
D12*
X149270000Y-91000000D03*
D13*
X148000000Y-91000000D03*
X146730000Y-91000000D03*
D14*
X152000000Y-97780000D03*
D15*
X152000000Y-107940000D03*
D16*
X105610000Y-107200000D03*
X105610000Y-103390000D03*
X105610000Y-99580000D03*
D17*
X105610000Y-95770000D03*
D18*
X166675000Y-117465000D03*
D19*
X166675000Y-120005000D03*
X164135000Y-117465000D03*
X164135000Y-120005000D03*
X161595000Y-117465000D03*
X161595000Y-120005000D03*
X159055000Y-117465000D03*
X159055000Y-120005000D03*
X156515000Y-117465000D03*
X156515000Y-120005000D03*
X153975000Y-117465000D03*
X153975000Y-120005000D03*
X151435000Y-117465000D03*
X151435000Y-120005000D03*
X148895000Y-117465000D03*
X148895000Y-120005000D03*
X146355000Y-117465000D03*
X146355000Y-120005000D03*
X143815000Y-117465000D03*
X143815000Y-120005000D03*
X141275000Y-117465000D03*
X141275000Y-120005000D03*
X138735000Y-117465000D03*
X138735000Y-120005000D03*
X136195000Y-117465000D03*
X136195000Y-120005000D03*
X133655000Y-117465000D03*
X133655000Y-120005000D03*
X131115000Y-117465000D03*
X131115000Y-120005000D03*
X128575000Y-117465000D03*
X128575000Y-120005000D03*
X126035000Y-117465000D03*
X126035000Y-120005000D03*
X123495000Y-117465000D03*
X123495000Y-120005000D03*
X120955000Y-117465000D03*
X120955000Y-120005000D03*
X118415000Y-117465000D03*
X118415000Y-120005000D03*
X115875000Y-117465000D03*
X115875000Y-120005000D03*
X113335000Y-117465000D03*
X113335000Y-120005000D03*
X110795000Y-117465000D03*
X110795000Y-120005000D03*
D20*
X129000000Y-83986745D03*
D10*
X129000000Y-88986745D03*
D21*
X143000000Y-97800000D03*
X120900000Y-97800000D03*
X117700000Y-105420000D03*
X124100000Y-105420000D03*
X143000000Y-105420000D03*
D18*
X166675000Y-69205000D03*
D19*
X166675000Y-71745000D03*
X164135000Y-69205000D03*
X164135000Y-71745000D03*
X161595000Y-69205000D03*
X161595000Y-71745000D03*
X159055000Y-69205000D03*
X159055000Y-71745000D03*
X156515000Y-69205000D03*
X156515000Y-71745000D03*
X153975000Y-69205000D03*
X153975000Y-71745000D03*
X151435000Y-69205000D03*
X151435000Y-71745000D03*
X148895000Y-69205000D03*
X148895000Y-71745000D03*
X146355000Y-69205000D03*
X146355000Y-71745000D03*
X143815000Y-69205000D03*
X143815000Y-71745000D03*
X141275000Y-69205000D03*
X141275000Y-71745000D03*
X138735000Y-69205000D03*
X138735000Y-71745000D03*
X136195000Y-69205000D03*
X136195000Y-71745000D03*
X133655000Y-69205000D03*
X133655000Y-71745000D03*
X131115000Y-69205000D03*
X131115000Y-71745000D03*
X128575000Y-69205000D03*
X128575000Y-71745000D03*
X126035000Y-69205000D03*
X126035000Y-71745000D03*
X123495000Y-69205000D03*
X123495000Y-71745000D03*
X120955000Y-69205000D03*
X120955000Y-71745000D03*
X118415000Y-69205000D03*
X118415000Y-71745000D03*
X115875000Y-69205000D03*
X115875000Y-71745000D03*
X113335000Y-69205000D03*
X113335000Y-71745000D03*
X110795000Y-69205000D03*
X110795000Y-71745000D03*
D20*
X116000000Y-84000000D03*
D10*
X116000000Y-89000000D03*
D22*
X105610000Y-107200000D02*
X109950000Y-107200000D01*
X166675000Y-69205000D02*
X166675000Y-71745000D01*
X166675000Y-71745000D02*
X166675000Y-74325000D01*
G04 #@! TA.AperFunction,Conductor*
G36*
X167941663Y-73020253D02*
G01*
X167988387Y-73073708D01*
X168000000Y-73126544D01*
X168000000Y-86874000D01*
X167979998Y-86942121D01*
X167926342Y-86988614D01*
X167874000Y-87000000D01*
X163500000Y-87000000D01*
X163500000Y-107000000D01*
X167874000Y-107000000D01*
X167942121Y-107020002D01*
X167988614Y-107073658D01*
X168000000Y-107126000D01*
X168000000Y-115874000D01*
X167979998Y-115942121D01*
X167926342Y-115988614D01*
X167874000Y-116000000D01*
X110032650Y-116000000D01*
X109971459Y-115984144D01*
X109872472Y-115929151D01*
X109822639Y-115878585D01*
X109807860Y-115811975D01*
X109820173Y-115591732D01*
X109820345Y-115588661D01*
X109803549Y-115187913D01*
X109747726Y-114790716D01*
X109653411Y-114400863D01*
X109521502Y-114022073D01*
X109488635Y-113950942D01*
X109354553Y-113660761D01*
X109354548Y-113660751D01*
X109353260Y-113657964D01*
X109150290Y-113312009D01*
X108914529Y-112987513D01*
X108648228Y-112687571D01*
X108645983Y-112685492D01*
X108645976Y-112685485D01*
X108356182Y-112417133D01*
X108356179Y-112417130D01*
X108353929Y-112415047D01*
X108235941Y-112325489D01*
X108036893Y-112174403D01*
X108036891Y-112174401D01*
X108034441Y-112172542D01*
X107692813Y-111962371D01*
X107332307Y-111786540D01*
X107329426Y-111785469D01*
X107329420Y-111785466D01*
X107095540Y-111698487D01*
X106956363Y-111646728D01*
X106568570Y-111544269D01*
X106405243Y-111517815D01*
X106175676Y-111480633D01*
X106175669Y-111480632D01*
X106172630Y-111480140D01*
X106169550Y-111479946D01*
X106169548Y-111479946D01*
X105846558Y-111459625D01*
X105846542Y-111459624D01*
X105844563Y-111459500D01*
X105613894Y-111459500D01*
X105612368Y-111459575D01*
X105612353Y-111459575D01*
X105449126Y-111467559D01*
X105314379Y-111474149D01*
X104917582Y-111532743D01*
X104914585Y-111533490D01*
X104914581Y-111533491D01*
X104791126Y-111564272D01*
X104528396Y-111629777D01*
X104525488Y-111630812D01*
X104525483Y-111630814D01*
X104344316Y-111695325D01*
X104150537Y-111764327D01*
X103787610Y-111935107D01*
X103784981Y-111936674D01*
X103784972Y-111936679D01*
X103528424Y-112089613D01*
X103443081Y-112140488D01*
X103440616Y-112142306D01*
X103440600Y-112142316D01*
X103340578Y-112216059D01*
X103273878Y-112240384D01*
X103204617Y-112224787D01*
X101064809Y-111036005D01*
X101014975Y-110985438D01*
X101000000Y-110925861D01*
X101000000Y-107563431D01*
X103151787Y-107563431D01*
X103182449Y-107691144D01*
X103185498Y-107700529D01*
X103278086Y-107924057D01*
X103282567Y-107932851D01*
X103408986Y-108139148D01*
X103414786Y-108147130D01*
X103571917Y-108331108D01*
X103578892Y-108338083D01*
X103762870Y-108495214D01*
X103770852Y-108501014D01*
X103977149Y-108627433D01*
X103985943Y-108631914D01*
X104209471Y-108724502D01*
X104218856Y-108727551D01*
X104454118Y-108784033D01*
X104463865Y-108785576D01*
X104644675Y-108799807D01*
X104649600Y-108800000D01*
X105241885Y-108800000D01*
X105257124Y-108795525D01*
X105258329Y-108794135D01*
X105260000Y-108786452D01*
X105260000Y-108781885D01*
X105960000Y-108781885D01*
X105964475Y-108797124D01*
X105965865Y-108798329D01*
X105973548Y-108800000D01*
X106570400Y-108800000D01*
X106575325Y-108799807D01*
X106756135Y-108785576D01*
X106765882Y-108784033D01*
X107001144Y-108727551D01*
X107010529Y-108724502D01*
X107234057Y-108631914D01*
X107242851Y-108627433D01*
X107449148Y-108501014D01*
X107457130Y-108495214D01*
X107641108Y-108338083D01*
X107648083Y-108331108D01*
X107805214Y-108147130D01*
X107811014Y-108139148D01*
X107933052Y-107940000D01*
X150386526Y-107940000D01*
X150406391Y-108192403D01*
X150465495Y-108438591D01*
X150467388Y-108443162D01*
X150467389Y-108443164D01*
X150543716Y-108627433D01*
X150562384Y-108672502D01*
X150694672Y-108888376D01*
X150859102Y-109080898D01*
X151051624Y-109245328D01*
X151267498Y-109377616D01*
X151272068Y-109379509D01*
X151272072Y-109379511D01*
X151496836Y-109472611D01*
X151501409Y-109474505D01*
X151586032Y-109494821D01*
X151742784Y-109532454D01*
X151742790Y-109532455D01*
X151747597Y-109533609D01*
X152000000Y-109553474D01*
X152252403Y-109533609D01*
X152257210Y-109532455D01*
X152257216Y-109532454D01*
X152413968Y-109494821D01*
X152498591Y-109474505D01*
X152503164Y-109472611D01*
X152727928Y-109379511D01*
X152727932Y-109379509D01*
X152732502Y-109377616D01*
X152948376Y-109245328D01*
X153140898Y-109080898D01*
X153305328Y-108888376D01*
X153437616Y-108672502D01*
X153456285Y-108627433D01*
X153532611Y-108443164D01*
X153532612Y-108443162D01*
X153534505Y-108438591D01*
X153593609Y-108192403D01*
X153613474Y-107940000D01*
X153593609Y-107687597D01*
X153534505Y-107441409D01*
X153437616Y-107207498D01*
X153305328Y-106991624D01*
X153140898Y-106799102D01*
X152948376Y-106634672D01*
X152732502Y-106502384D01*
X152727932Y-106500491D01*
X152727928Y-106500489D01*
X152503164Y-106407389D01*
X152503162Y-106407388D01*
X152498591Y-106405495D01*
X152413968Y-106385179D01*
X152257216Y-106347546D01*
X152257210Y-106347545D01*
X152252403Y-106346391D01*
X152000000Y-106326526D01*
X151747597Y-106346391D01*
X151742790Y-106347545D01*
X151742784Y-106347546D01*
X151586032Y-106385179D01*
X151501409Y-106405495D01*
X151496838Y-106407388D01*
X151496836Y-106407389D01*
X151272072Y-106500489D01*
X151272068Y-106500491D01*
X151267498Y-106502384D01*
X151051624Y-106634672D01*
X150859102Y-106799102D01*
X150694672Y-106991624D01*
X150562384Y-107207498D01*
X150465495Y-107441409D01*
X150406391Y-107687597D01*
X150386526Y-107940000D01*
X107933052Y-107940000D01*
X107937433Y-107932851D01*
X107941914Y-107924057D01*
X108034502Y-107700529D01*
X108037551Y-107691144D01*
X108067208Y-107567615D01*
X108066503Y-107553530D01*
X108057624Y-107550000D01*
X105978115Y-107550000D01*
X105962876Y-107554475D01*
X105961671Y-107555865D01*
X105960000Y-107563548D01*
X105960000Y-108781885D01*
X105260000Y-108781885D01*
X105260000Y-107568115D01*
X105255525Y-107552876D01*
X105254135Y-107551671D01*
X105246452Y-107550000D01*
X103166678Y-107550000D01*
X103153147Y-107553973D01*
X103151787Y-107563431D01*
X101000000Y-107563431D01*
X101000000Y-106832385D01*
X103152792Y-106832385D01*
X103153497Y-106846470D01*
X103162376Y-106850000D01*
X105241885Y-106850000D01*
X105257124Y-106845525D01*
X105258329Y-106844135D01*
X105260000Y-106836452D01*
X105260000Y-106831885D01*
X105960000Y-106831885D01*
X105964475Y-106847124D01*
X105965865Y-106848329D01*
X105973548Y-106850000D01*
X108053322Y-106850000D01*
X108066853Y-106846027D01*
X108068213Y-106836569D01*
X108037551Y-106708856D01*
X108034502Y-106699471D01*
X107941914Y-106475943D01*
X107937433Y-106467149D01*
X107811014Y-106260852D01*
X107805214Y-106252870D01*
X107648083Y-106068892D01*
X107641108Y-106061917D01*
X107457130Y-105904786D01*
X107449148Y-105898986D01*
X107242851Y-105772567D01*
X107234057Y-105768086D01*
X107010529Y-105675498D01*
X107001144Y-105672449D01*
X106765882Y-105615967D01*
X106756135Y-105614424D01*
X106575325Y-105600193D01*
X106570399Y-105600000D01*
X105978115Y-105600000D01*
X105962876Y-105604475D01*
X105961671Y-105605865D01*
X105960000Y-105613548D01*
X105960000Y-106831885D01*
X105260000Y-106831885D01*
X105260000Y-105618115D01*
X105255525Y-105602876D01*
X105254135Y-105601671D01*
X105246452Y-105600000D01*
X104649601Y-105600000D01*
X104644675Y-105600193D01*
X104463865Y-105614424D01*
X104454118Y-105615967D01*
X104218856Y-105672449D01*
X104209471Y-105675498D01*
X103985943Y-105768086D01*
X103977149Y-105772567D01*
X103770852Y-105898986D01*
X103762870Y-105904786D01*
X103578892Y-106061917D01*
X103571917Y-106068892D01*
X103414786Y-106252870D01*
X103408986Y-106260852D01*
X103282567Y-106467149D01*
X103278086Y-106475943D01*
X103185498Y-106699471D01*
X103182449Y-106708856D01*
X103152792Y-106832385D01*
X101000000Y-106832385D01*
X101000000Y-105420000D01*
X116036372Y-105420000D01*
X116056854Y-105680249D01*
X116058008Y-105685056D01*
X116058009Y-105685062D01*
X116062086Y-105702042D01*
X116117796Y-105934089D01*
X116119689Y-105938660D01*
X116119690Y-105938662D01*
X116191048Y-106110934D01*
X116217697Y-106175271D01*
X116354097Y-106397856D01*
X116523637Y-106596363D01*
X116722144Y-106765903D01*
X116944729Y-106902303D01*
X116949299Y-106904196D01*
X116949303Y-106904198D01*
X117170542Y-106995838D01*
X117185911Y-107002204D01*
X117260045Y-107020002D01*
X117434938Y-107061991D01*
X117434944Y-107061992D01*
X117439751Y-107063146D01*
X117700000Y-107083628D01*
X117960249Y-107063146D01*
X117965056Y-107061992D01*
X117965062Y-107061991D01*
X118139955Y-107020002D01*
X118214089Y-107002204D01*
X118229458Y-106995838D01*
X118450697Y-106904198D01*
X118450701Y-106904196D01*
X118455271Y-106902303D01*
X118677856Y-106765903D01*
X118876363Y-106596363D01*
X119045903Y-106397856D01*
X119182303Y-106175271D01*
X119208953Y-106110934D01*
X119280310Y-105938662D01*
X119280311Y-105938660D01*
X119282204Y-105934089D01*
X119337914Y-105702042D01*
X119341991Y-105685062D01*
X119341992Y-105685056D01*
X119343146Y-105680249D01*
X119363628Y-105420000D01*
X122436372Y-105420000D01*
X122456854Y-105680249D01*
X122458008Y-105685056D01*
X122458009Y-105685062D01*
X122462086Y-105702042D01*
X122517796Y-105934089D01*
X122519689Y-105938660D01*
X122519690Y-105938662D01*
X122591048Y-106110934D01*
X122617697Y-106175271D01*
X122754097Y-106397856D01*
X122923637Y-106596363D01*
X123122144Y-106765903D01*
X123344729Y-106902303D01*
X123349299Y-106904196D01*
X123349303Y-106904198D01*
X123570542Y-106995838D01*
X123585911Y-107002204D01*
X123660045Y-107020002D01*
X123834938Y-107061991D01*
X123834944Y-107061992D01*
X123839751Y-107063146D01*
X124100000Y-107083628D01*
X124360249Y-107063146D01*
X124365056Y-107061992D01*
X124365062Y-107061991D01*
X124539955Y-107020002D01*
X124614089Y-107002204D01*
X124629458Y-106995838D01*
X124850697Y-106904198D01*
X124850701Y-106904196D01*
X124855271Y-106902303D01*
X125077856Y-106765903D01*
X125276363Y-106596363D01*
X125445903Y-106397856D01*
X125582303Y-106175271D01*
X125608953Y-106110934D01*
X125680310Y-105938662D01*
X125680311Y-105938660D01*
X125682204Y-105934089D01*
X125737914Y-105702042D01*
X125741991Y-105685062D01*
X125741992Y-105685056D01*
X125743146Y-105680249D01*
X125763628Y-105420000D01*
X141336372Y-105420000D01*
X141356854Y-105680249D01*
X141358008Y-105685056D01*
X141358009Y-105685062D01*
X141362086Y-105702042D01*
X141417796Y-105934089D01*
X141419689Y-105938660D01*
X141419690Y-105938662D01*
X141491048Y-106110934D01*
X141517697Y-106175271D01*
X141654097Y-106397856D01*
X141823637Y-106596363D01*
X142022144Y-106765903D01*
X142244729Y-106902303D01*
X142249299Y-106904196D01*
X142249303Y-106904198D01*
X142470542Y-106995838D01*
X142485911Y-107002204D01*
X142560045Y-107020002D01*
X142734938Y-107061991D01*
X142734944Y-107061992D01*
X142739751Y-107063146D01*
X143000000Y-107083628D01*
X143260249Y-107063146D01*
X143265056Y-107061992D01*
X143265062Y-107061991D01*
X143439955Y-107020002D01*
X143514089Y-107002204D01*
X143529458Y-106995838D01*
X143750697Y-106904198D01*
X143750701Y-106904196D01*
X143755271Y-106902303D01*
X143977856Y-106765903D01*
X144176363Y-106596363D01*
X144345903Y-106397856D01*
X144482303Y-106175271D01*
X144508953Y-106110934D01*
X144580310Y-105938662D01*
X144580311Y-105938660D01*
X144582204Y-105934089D01*
X144637914Y-105702042D01*
X144641991Y-105685062D01*
X144641992Y-105685056D01*
X144643146Y-105680249D01*
X144663628Y-105420000D01*
X144643146Y-105159751D01*
X144641992Y-105154944D01*
X144641991Y-105154938D01*
X144583359Y-104910723D01*
X144582204Y-104905911D01*
X144537304Y-104797513D01*
X144484198Y-104669303D01*
X144484196Y-104669299D01*
X144482303Y-104664729D01*
X144345903Y-104442144D01*
X144176363Y-104243637D01*
X143977856Y-104074097D01*
X143755271Y-103937697D01*
X143750701Y-103935804D01*
X143750697Y-103935802D01*
X143518662Y-103839690D01*
X143518660Y-103839689D01*
X143514089Y-103837796D01*
X143361578Y-103801181D01*
X143265062Y-103778009D01*
X143265056Y-103778008D01*
X143260249Y-103776854D01*
X143000000Y-103756372D01*
X142739751Y-103776854D01*
X142734944Y-103778008D01*
X142734938Y-103778009D01*
X142638422Y-103801181D01*
X142485911Y-103837796D01*
X142481340Y-103839689D01*
X142481338Y-103839690D01*
X142249303Y-103935802D01*
X142249299Y-103935804D01*
X142244729Y-103937697D01*
X142022144Y-104074097D01*
X141823637Y-104243637D01*
X141654097Y-104442144D01*
X141517697Y-104664729D01*
X141515804Y-104669299D01*
X141515802Y-104669303D01*
X141462696Y-104797513D01*
X141417796Y-104905911D01*
X141416641Y-104910723D01*
X141358009Y-105154938D01*
X141358008Y-105154944D01*
X141356854Y-105159751D01*
X141336372Y-105420000D01*
X125763628Y-105420000D01*
X125743146Y-105159751D01*
X125741992Y-105154944D01*
X125741991Y-105154938D01*
X125683359Y-104910723D01*
X125682204Y-104905911D01*
X125637304Y-104797513D01*
X125584198Y-104669303D01*
X125584196Y-104669299D01*
X125582303Y-104664729D01*
X125445903Y-104442144D01*
X125276363Y-104243637D01*
X125077856Y-104074097D01*
X124855271Y-103937697D01*
X124850701Y-103935804D01*
X124850697Y-103935802D01*
X124618662Y-103839690D01*
X124618660Y-103839689D01*
X124614089Y-103837796D01*
X124461578Y-103801181D01*
X124365062Y-103778009D01*
X124365056Y-103778008D01*
X124360249Y-103776854D01*
X124100000Y-103756372D01*
X123839751Y-103776854D01*
X123834944Y-103778008D01*
X123834938Y-103778009D01*
X123738422Y-103801181D01*
X123585911Y-103837796D01*
X123581340Y-103839689D01*
X123581338Y-103839690D01*
X123349303Y-103935802D01*
X123349299Y-103935804D01*
X123344729Y-103937697D01*
X123122144Y-104074097D01*
X122923637Y-104243637D01*
X122754097Y-104442144D01*
X122617697Y-104664729D01*
X122615804Y-104669299D01*
X122615802Y-104669303D01*
X122562696Y-104797513D01*
X122517796Y-104905911D01*
X122516641Y-104910723D01*
X122458009Y-105154938D01*
X122458008Y-105154944D01*
X122456854Y-105159751D01*
X122436372Y-105420000D01*
X119363628Y-105420000D01*
X119343146Y-105159751D01*
X119341992Y-105154944D01*
X119341991Y-105154938D01*
X119283359Y-104910723D01*
X119282204Y-104905911D01*
X119237304Y-104797513D01*
X119184198Y-104669303D01*
X119184196Y-104669299D01*
X119182303Y-104664729D01*
X119045903Y-104442144D01*
X118876363Y-104243637D01*
X118677856Y-104074097D01*
X118455271Y-103937697D01*
X118450701Y-103935804D01*
X118450697Y-103935802D01*
X118218662Y-103839690D01*
X118218660Y-103839689D01*
X118214089Y-103837796D01*
X118061578Y-103801181D01*
X117965062Y-103778009D01*
X117965056Y-103778008D01*
X117960249Y-103776854D01*
X117700000Y-103756372D01*
X117439751Y-103776854D01*
X117434944Y-103778008D01*
X117434938Y-103778009D01*
X117338422Y-103801181D01*
X117185911Y-103837796D01*
X117181340Y-103839689D01*
X117181338Y-103839690D01*
X116949303Y-103935802D01*
X116949299Y-103935804D01*
X116944729Y-103937697D01*
X116722144Y-104074097D01*
X116523637Y-104243637D01*
X116354097Y-104442144D01*
X116217697Y-104664729D01*
X116215804Y-104669299D01*
X116215802Y-104669303D01*
X116162696Y-104797513D01*
X116117796Y-104905911D01*
X116116641Y-104910723D01*
X116058009Y-105154938D01*
X116058008Y-105154944D01*
X116056854Y-105159751D01*
X116036372Y-105420000D01*
X101000000Y-105420000D01*
X101000000Y-103323411D01*
X103297977Y-103323411D01*
X103306945Y-103562274D01*
X103356030Y-103796211D01*
X103443829Y-104018533D01*
X103567832Y-104222883D01*
X103571329Y-104226913D01*
X103661090Y-104330353D01*
X103724493Y-104403419D01*
X103728619Y-104406802D01*
X103728623Y-104406806D01*
X103827629Y-104487985D01*
X103909333Y-104554978D01*
X103913969Y-104557617D01*
X103913972Y-104557619D01*
X104027386Y-104622178D01*
X104117066Y-104673227D01*
X104341753Y-104754784D01*
X104347002Y-104755733D01*
X104347005Y-104755734D01*
X104572885Y-104796580D01*
X104572893Y-104796581D01*
X104576969Y-104797318D01*
X104595359Y-104798185D01*
X104600544Y-104798430D01*
X104600551Y-104798430D01*
X104602032Y-104798500D01*
X106570012Y-104798500D01*
X106748175Y-104783383D01*
X106753339Y-104782043D01*
X106753343Y-104782042D01*
X106974375Y-104724673D01*
X106974380Y-104724671D01*
X106979540Y-104723332D01*
X107119002Y-104660509D01*
X107192619Y-104627347D01*
X107192622Y-104627346D01*
X107197480Y-104625157D01*
X107395762Y-104491666D01*
X107568718Y-104326674D01*
X107711402Y-104134900D01*
X107743630Y-104071513D01*
X107817314Y-103926586D01*
X107817314Y-103926585D01*
X107819733Y-103921828D01*
X107871109Y-103756372D01*
X107889032Y-103698651D01*
X107889033Y-103698645D01*
X107890616Y-103693548D01*
X107922023Y-103456589D01*
X107913055Y-103217726D01*
X107863970Y-102983789D01*
X107776171Y-102761467D01*
X107652168Y-102557117D01*
X107562103Y-102453326D01*
X107499007Y-102380614D01*
X107499005Y-102380612D01*
X107495507Y-102376581D01*
X107491381Y-102373198D01*
X107491377Y-102373194D01*
X107314795Y-102228407D01*
X107310667Y-102225022D01*
X107306031Y-102222383D01*
X107306028Y-102222381D01*
X107107577Y-102109416D01*
X107102934Y-102106773D01*
X106878247Y-102025216D01*
X106872998Y-102024267D01*
X106872995Y-102024266D01*
X106647115Y-101983420D01*
X106647107Y-101983419D01*
X106643031Y-101982682D01*
X106624641Y-101981815D01*
X106619456Y-101981570D01*
X106619449Y-101981570D01*
X106617968Y-101981500D01*
X104649988Y-101981500D01*
X104471825Y-101996617D01*
X104466661Y-101997957D01*
X104466657Y-101997958D01*
X104245625Y-102055327D01*
X104245620Y-102055329D01*
X104240460Y-102056668D01*
X104235594Y-102058860D01*
X104027381Y-102152653D01*
X104027378Y-102152654D01*
X104022520Y-102154843D01*
X103824238Y-102288334D01*
X103651282Y-102453326D01*
X103508598Y-102645100D01*
X103400267Y-102858172D01*
X103364826Y-102972312D01*
X103330968Y-103081349D01*
X103330967Y-103081355D01*
X103329384Y-103086452D01*
X103297977Y-103323411D01*
X101000000Y-103323411D01*
X101000000Y-99513411D01*
X103297977Y-99513411D01*
X103306945Y-99752274D01*
X103356030Y-99986211D01*
X103443829Y-100208533D01*
X103567832Y-100412883D01*
X103571329Y-100416913D01*
X103661090Y-100520353D01*
X103724493Y-100593419D01*
X103728619Y-100596802D01*
X103728623Y-100596806D01*
X103827629Y-100677985D01*
X103909333Y-100744978D01*
X103913969Y-100747617D01*
X103913972Y-100747619D01*
X104027386Y-100812178D01*
X104117066Y-100863227D01*
X104341753Y-100944784D01*
X104347002Y-100945733D01*
X104347005Y-100945734D01*
X104572885Y-100986580D01*
X104572893Y-100986581D01*
X104576969Y-100987318D01*
X104595359Y-100988185D01*
X104600544Y-100988430D01*
X104600551Y-100988430D01*
X104602032Y-100988500D01*
X106570012Y-100988500D01*
X106748175Y-100973383D01*
X106753339Y-100972043D01*
X106753343Y-100972042D01*
X106974375Y-100914673D01*
X106974380Y-100914671D01*
X106979540Y-100913332D01*
X107096636Y-100860584D01*
X107192619Y-100817347D01*
X107192622Y-100817346D01*
X107197480Y-100815157D01*
X107395762Y-100681666D01*
X107568718Y-100516674D01*
X107711402Y-100324900D01*
X107819733Y-100111828D01*
X107860361Y-99980984D01*
X107889032Y-99888651D01*
X107889033Y-99888645D01*
X107890616Y-99883548D01*
X107922023Y-99646589D01*
X107913055Y-99407726D01*
X107863970Y-99173789D01*
X107776171Y-98951467D01*
X107652168Y-98747117D01*
X107562103Y-98643326D01*
X107499007Y-98570614D01*
X107499005Y-98570612D01*
X107495507Y-98566581D01*
X107491381Y-98563198D01*
X107491377Y-98563194D01*
X107314795Y-98418407D01*
X107310667Y-98415022D01*
X107306031Y-98412383D01*
X107306028Y-98412381D01*
X107107577Y-98299416D01*
X107102934Y-98296773D01*
X106878247Y-98215216D01*
X106872998Y-98214267D01*
X106872995Y-98214266D01*
X106647115Y-98173420D01*
X106647107Y-98173419D01*
X106643031Y-98172682D01*
X106624641Y-98171815D01*
X106619456Y-98171570D01*
X106619449Y-98171570D01*
X106617968Y-98171500D01*
X104649988Y-98171500D01*
X104471825Y-98186617D01*
X104466661Y-98187957D01*
X104466657Y-98187958D01*
X104245625Y-98245327D01*
X104245620Y-98245329D01*
X104240460Y-98246668D01*
X104235594Y-98248860D01*
X104027381Y-98342653D01*
X104027378Y-98342654D01*
X104022520Y-98344843D01*
X103824238Y-98478334D01*
X103651282Y-98643326D01*
X103508598Y-98835100D01*
X103506182Y-98839851D01*
X103506180Y-98839855D01*
X103402686Y-99043414D01*
X103400267Y-99048172D01*
X103370919Y-99142687D01*
X103330968Y-99271349D01*
X103330967Y-99271355D01*
X103329384Y-99276452D01*
X103315315Y-99382598D01*
X103307239Y-99443534D01*
X103297977Y-99513411D01*
X101000000Y-99513411D01*
X101000000Y-97800000D01*
X119236372Y-97800000D01*
X119256854Y-98060249D01*
X119258008Y-98065056D01*
X119258009Y-98065062D01*
X119283563Y-98171500D01*
X119317796Y-98314089D01*
X119319689Y-98318660D01*
X119319690Y-98318662D01*
X119385829Y-98478334D01*
X119417697Y-98555271D01*
X119554097Y-98777856D01*
X119723637Y-98976363D01*
X119922144Y-99145903D01*
X120144729Y-99282303D01*
X120149299Y-99284196D01*
X120149303Y-99284198D01*
X120381338Y-99380310D01*
X120385911Y-99382204D01*
X120410599Y-99388131D01*
X120634938Y-99441991D01*
X120634944Y-99441992D01*
X120639751Y-99443146D01*
X120900000Y-99463628D01*
X121160249Y-99443146D01*
X121165056Y-99441992D01*
X121165062Y-99441991D01*
X121389401Y-99388131D01*
X121414089Y-99382204D01*
X121418662Y-99380310D01*
X121650697Y-99284198D01*
X121650701Y-99284196D01*
X121655271Y-99282303D01*
X121877856Y-99145903D01*
X122076363Y-98976363D01*
X122245903Y-98777856D01*
X122382303Y-98555271D01*
X122414172Y-98478334D01*
X122480310Y-98318662D01*
X122480311Y-98318660D01*
X122482204Y-98314089D01*
X122516437Y-98171500D01*
X122541991Y-98065062D01*
X122541992Y-98065056D01*
X122543146Y-98060249D01*
X122563628Y-97800000D01*
X141336372Y-97800000D01*
X141356854Y-98060249D01*
X141358008Y-98065056D01*
X141358009Y-98065062D01*
X141383563Y-98171500D01*
X141417796Y-98314089D01*
X141419689Y-98318660D01*
X141419690Y-98318662D01*
X141485829Y-98478334D01*
X141517697Y-98555271D01*
X141654097Y-98777856D01*
X141823637Y-98976363D01*
X142022144Y-99145903D01*
X142244729Y-99282303D01*
X142249299Y-99284196D01*
X142249303Y-99284198D01*
X142481338Y-99380310D01*
X142485911Y-99382204D01*
X142510599Y-99388131D01*
X142734938Y-99441991D01*
X142734944Y-99441992D01*
X142739751Y-99443146D01*
X143000000Y-99463628D01*
X143260249Y-99443146D01*
X143265056Y-99441992D01*
X143265062Y-99441991D01*
X143489401Y-99388131D01*
X143514089Y-99382204D01*
X143518662Y-99380310D01*
X143750697Y-99284198D01*
X143750701Y-99284196D01*
X143755271Y-99282303D01*
X143977856Y-99145903D01*
X144176363Y-98976363D01*
X144217554Y-98928134D01*
X150391500Y-98928134D01*
X150398255Y-98990316D01*
X150449385Y-99126705D01*
X150536739Y-99243261D01*
X150653295Y-99330615D01*
X150789684Y-99381745D01*
X150851866Y-99388500D01*
X153148134Y-99388500D01*
X153210316Y-99381745D01*
X153346705Y-99330615D01*
X153463261Y-99243261D01*
X153550615Y-99126705D01*
X153601745Y-98990316D01*
X153608500Y-98928134D01*
X153608500Y-96631866D01*
X153601745Y-96569684D01*
X153550615Y-96433295D01*
X153463261Y-96316739D01*
X153346705Y-96229385D01*
X153210316Y-96178255D01*
X153148134Y-96171500D01*
X150851866Y-96171500D01*
X150789684Y-96178255D01*
X150653295Y-96229385D01*
X150536739Y-96316739D01*
X150449385Y-96433295D01*
X150398255Y-96569684D01*
X150391500Y-96631866D01*
X150391500Y-98928134D01*
X144217554Y-98928134D01*
X144345903Y-98777856D01*
X144482303Y-98555271D01*
X144514172Y-98478334D01*
X144580310Y-98318662D01*
X144580311Y-98318660D01*
X144582204Y-98314089D01*
X144616437Y-98171500D01*
X144641991Y-98065062D01*
X144641992Y-98065056D01*
X144643146Y-98060249D01*
X144663628Y-97800000D01*
X144643146Y-97539751D01*
X144641992Y-97534944D01*
X144641991Y-97534938D01*
X144583359Y-97290723D01*
X144582204Y-97285911D01*
X144537577Y-97178172D01*
X144484198Y-97049303D01*
X144484196Y-97049299D01*
X144482303Y-97044729D01*
X144345903Y-96822144D01*
X144176363Y-96623637D01*
X143977856Y-96454097D01*
X143755271Y-96317697D01*
X143750701Y-96315804D01*
X143750697Y-96315802D01*
X143518662Y-96219690D01*
X143518660Y-96219689D01*
X143514089Y-96217796D01*
X143425069Y-96196424D01*
X143265062Y-96158009D01*
X143265056Y-96158008D01*
X143260249Y-96156854D01*
X143000000Y-96136372D01*
X142739751Y-96156854D01*
X142734944Y-96158008D01*
X142734938Y-96158009D01*
X142574931Y-96196424D01*
X142485911Y-96217796D01*
X142481340Y-96219689D01*
X142481338Y-96219690D01*
X142249303Y-96315802D01*
X142249299Y-96315804D01*
X142244729Y-96317697D01*
X142022144Y-96454097D01*
X141823637Y-96623637D01*
X141654097Y-96822144D01*
X141517697Y-97044729D01*
X141515804Y-97049299D01*
X141515802Y-97049303D01*
X141462423Y-97178172D01*
X141417796Y-97285911D01*
X141416641Y-97290723D01*
X141358009Y-97534938D01*
X141358008Y-97534944D01*
X141356854Y-97539751D01*
X141336372Y-97800000D01*
X122563628Y-97800000D01*
X122543146Y-97539751D01*
X122541992Y-97534944D01*
X122541991Y-97534938D01*
X122483359Y-97290723D01*
X122482204Y-97285911D01*
X122437577Y-97178172D01*
X122384198Y-97049303D01*
X122384196Y-97049299D01*
X122382303Y-97044729D01*
X122245903Y-96822144D01*
X122076363Y-96623637D01*
X121877856Y-96454097D01*
X121655271Y-96317697D01*
X121650701Y-96315804D01*
X121650697Y-96315802D01*
X121418662Y-96219690D01*
X121418660Y-96219689D01*
X121414089Y-96217796D01*
X121325069Y-96196424D01*
X121165062Y-96158009D01*
X121165056Y-96158008D01*
X121160249Y-96156854D01*
X120900000Y-96136372D01*
X120639751Y-96156854D01*
X120634944Y-96158008D01*
X120634938Y-96158009D01*
X120474931Y-96196424D01*
X120385911Y-96217796D01*
X120381340Y-96219689D01*
X120381338Y-96219690D01*
X120149303Y-96315802D01*
X120149299Y-96315804D01*
X120144729Y-96317697D01*
X119922144Y-96454097D01*
X119723637Y-96623637D01*
X119554097Y-96822144D01*
X119417697Y-97044729D01*
X119415804Y-97049299D01*
X119415802Y-97049303D01*
X119362423Y-97178172D01*
X119317796Y-97285911D01*
X119316641Y-97290723D01*
X119258009Y-97534938D01*
X119258008Y-97534944D01*
X119256854Y-97539751D01*
X119236372Y-97800000D01*
X101000000Y-97800000D01*
X101000000Y-96470400D01*
X103301500Y-96470400D01*
X103301837Y-96473646D01*
X103301837Y-96473650D01*
X103311034Y-96562285D01*
X103312474Y-96576166D01*
X103314655Y-96582702D01*
X103314655Y-96582704D01*
X103329567Y-96627399D01*
X103368450Y-96743946D01*
X103461522Y-96894348D01*
X103586697Y-97019305D01*
X103592927Y-97023145D01*
X103592928Y-97023146D01*
X103730090Y-97107694D01*
X103737262Y-97112115D01*
X103817005Y-97138564D01*
X103898611Y-97165632D01*
X103898613Y-97165632D01*
X103905139Y-97167797D01*
X103911975Y-97168497D01*
X103911978Y-97168498D01*
X103955031Y-97172909D01*
X104009600Y-97178500D01*
X107210400Y-97178500D01*
X107213646Y-97178163D01*
X107213650Y-97178163D01*
X107309308Y-97168238D01*
X107309312Y-97168237D01*
X107316166Y-97167526D01*
X107322702Y-97165345D01*
X107322704Y-97165345D01*
X107454806Y-97121272D01*
X107483946Y-97111550D01*
X107634348Y-97018478D01*
X107759305Y-96893303D01*
X107852115Y-96742738D01*
X107907797Y-96574861D01*
X107918500Y-96470400D01*
X107918500Y-95069600D01*
X107907526Y-94963834D01*
X107851550Y-94796054D01*
X107758478Y-94645652D01*
X107633303Y-94520695D01*
X107627072Y-94516854D01*
X107488968Y-94431725D01*
X107488966Y-94431724D01*
X107482738Y-94427885D01*
X107322254Y-94374655D01*
X107321389Y-94374368D01*
X107321387Y-94374368D01*
X107314861Y-94372203D01*
X107308025Y-94371503D01*
X107308022Y-94371502D01*
X107264969Y-94367091D01*
X107210400Y-94361500D01*
X104009600Y-94361500D01*
X104006354Y-94361837D01*
X104006350Y-94361837D01*
X103910692Y-94371762D01*
X103910688Y-94371763D01*
X103903834Y-94372474D01*
X103897298Y-94374655D01*
X103897296Y-94374655D01*
X103765194Y-94418728D01*
X103736054Y-94428450D01*
X103585652Y-94521522D01*
X103460695Y-94646697D01*
X103367885Y-94797262D01*
X103312203Y-94965139D01*
X103301500Y-95069600D01*
X103301500Y-96470400D01*
X101000000Y-96470400D01*
X101000000Y-91276004D01*
X145696500Y-91276004D01*
X145711277Y-91426713D01*
X145769858Y-91620742D01*
X145865010Y-91799698D01*
X145993110Y-91956763D01*
X145997857Y-91960690D01*
X145997859Y-91960692D01*
X146144528Y-92082027D01*
X146144531Y-92082029D01*
X146149278Y-92085956D01*
X146327565Y-92182356D01*
X146424372Y-92212323D01*
X146515293Y-92240468D01*
X146515296Y-92240469D01*
X146521180Y-92242290D01*
X146527305Y-92242934D01*
X146527306Y-92242934D01*
X146716622Y-92262832D01*
X146716623Y-92262832D01*
X146722750Y-92263476D01*
X146806014Y-92255898D01*
X146918457Y-92245665D01*
X146918460Y-92245664D01*
X146924596Y-92245106D01*
X146930502Y-92243368D01*
X146930506Y-92243367D01*
X147113120Y-92189620D01*
X147113119Y-92189620D01*
X147119029Y-92187881D01*
X147124486Y-92185028D01*
X147124489Y-92185027D01*
X147208837Y-92140931D01*
X147298460Y-92094077D01*
X147298462Y-92094077D01*
X147298645Y-92093981D01*
X147298663Y-92094016D01*
X147364441Y-92074111D01*
X147425409Y-92089271D01*
X147597565Y-92182356D01*
X147694372Y-92212323D01*
X147785293Y-92240468D01*
X147785296Y-92240469D01*
X147791180Y-92242290D01*
X147797305Y-92242934D01*
X147797306Y-92242934D01*
X147986622Y-92262832D01*
X147986623Y-92262832D01*
X147992750Y-92263476D01*
X148074608Y-92256026D01*
X148186699Y-92245825D01*
X148256352Y-92259570D01*
X148287214Y-92282211D01*
X148304530Y-92299527D01*
X148316399Y-92308834D01*
X148448329Y-92388734D01*
X148462073Y-92394940D01*
X148610112Y-92441332D01*
X148623162Y-92443945D01*
X148686162Y-92449734D01*
X148691950Y-92450000D01*
X148901885Y-92450000D01*
X148917124Y-92445525D01*
X148918329Y-92444135D01*
X148920000Y-92436452D01*
X148920000Y-92431885D01*
X149620000Y-92431885D01*
X149624475Y-92447124D01*
X149625865Y-92448329D01*
X149633548Y-92450000D01*
X149848050Y-92450000D01*
X149853838Y-92449734D01*
X149916838Y-92443945D01*
X149929888Y-92441332D01*
X150077927Y-92394940D01*
X150091671Y-92388734D01*
X150223601Y-92308834D01*
X150235470Y-92299527D01*
X150344527Y-92190470D01*
X150353834Y-92178601D01*
X150433734Y-92046671D01*
X150439940Y-92032927D01*
X150486332Y-91884888D01*
X150488945Y-91871838D01*
X150494734Y-91808838D01*
X150495000Y-91803050D01*
X150495000Y-91368115D01*
X150490525Y-91352876D01*
X150489135Y-91351671D01*
X150481452Y-91350000D01*
X149638115Y-91350000D01*
X149622876Y-91354475D01*
X149621671Y-91355865D01*
X149620000Y-91363548D01*
X149620000Y-92431885D01*
X148920000Y-92431885D01*
X148920000Y-91729258D01*
X148935585Y-91668557D01*
X148951556Y-91639506D01*
X148954523Y-91634109D01*
X149015807Y-91440916D01*
X149016739Y-91432615D01*
X149033107Y-91286683D01*
X149033500Y-91283183D01*
X149033500Y-90723996D01*
X149024469Y-90631885D01*
X149620000Y-90631885D01*
X149624475Y-90647124D01*
X149625865Y-90648329D01*
X149633548Y-90650000D01*
X150476885Y-90650000D01*
X150492124Y-90645525D01*
X150493329Y-90644135D01*
X150495000Y-90636452D01*
X150495000Y-90196950D01*
X150494734Y-90191162D01*
X150488945Y-90128162D01*
X150486332Y-90115112D01*
X150439940Y-89967073D01*
X150433734Y-89953329D01*
X150353834Y-89821399D01*
X150344527Y-89809530D01*
X150235470Y-89700473D01*
X150223601Y-89691166D01*
X150091671Y-89611266D01*
X150077927Y-89605060D01*
X149929888Y-89558668D01*
X149916838Y-89556055D01*
X149853838Y-89550266D01*
X149848050Y-89550000D01*
X149638115Y-89550000D01*
X149622876Y-89554475D01*
X149621671Y-89555865D01*
X149620000Y-89563548D01*
X149620000Y-90631885D01*
X149024469Y-90631885D01*
X149018723Y-90573287D01*
X148960142Y-90379258D01*
X148956158Y-90371764D01*
X148934748Y-90331498D01*
X148920000Y-90272345D01*
X148920000Y-89568115D01*
X148915525Y-89552876D01*
X148914135Y-89551671D01*
X148906452Y-89550000D01*
X148691950Y-89550000D01*
X148686162Y-89550266D01*
X148623162Y-89556055D01*
X148610112Y-89558668D01*
X148462073Y-89605060D01*
X148448329Y-89611266D01*
X148316399Y-89691166D01*
X148304530Y-89700473D01*
X148286131Y-89718872D01*
X148223819Y-89752898D01*
X148183865Y-89755087D01*
X148013378Y-89737168D01*
X148013377Y-89737168D01*
X148007250Y-89736524D01*
X147923986Y-89744102D01*
X147811543Y-89754335D01*
X147811540Y-89754336D01*
X147805404Y-89754894D01*
X147799498Y-89756632D01*
X147799494Y-89756633D01*
X147718144Y-89780576D01*
X147610971Y-89812119D01*
X147605514Y-89814972D01*
X147605511Y-89814973D01*
X147521163Y-89859069D01*
X147431540Y-89905923D01*
X147431538Y-89905923D01*
X147431355Y-89906019D01*
X147431337Y-89905984D01*
X147365559Y-89925889D01*
X147304591Y-89910729D01*
X147295815Y-89905984D01*
X147132435Y-89817644D01*
X147004263Y-89777968D01*
X146944707Y-89759532D01*
X146944704Y-89759531D01*
X146938820Y-89757710D01*
X146932695Y-89757066D01*
X146932694Y-89757066D01*
X146743378Y-89737168D01*
X146743377Y-89737168D01*
X146737250Y-89736524D01*
X146653986Y-89744102D01*
X146541543Y-89754335D01*
X146541540Y-89754336D01*
X146535404Y-89754894D01*
X146529498Y-89756632D01*
X146529494Y-89756633D01*
X146448144Y-89780576D01*
X146340971Y-89812119D01*
X146335514Y-89814972D01*
X146335511Y-89814973D01*
X146251163Y-89859069D01*
X146161355Y-89906019D01*
X146003399Y-90033019D01*
X145873119Y-90188281D01*
X145870155Y-90193673D01*
X145870152Y-90193677D01*
X145816441Y-90291378D01*
X145775477Y-90365891D01*
X145714193Y-90559084D01*
X145713507Y-90565201D01*
X145713506Y-90565205D01*
X145711912Y-90579420D01*
X145696500Y-90716817D01*
X145696500Y-91276004D01*
X101000000Y-91276004D01*
X101000000Y-90278739D01*
X115221856Y-90278739D01*
X115227137Y-90285794D01*
X115345192Y-90354780D01*
X115354475Y-90359227D01*
X115575248Y-90443532D01*
X115585150Y-90446409D01*
X115816709Y-90493520D01*
X115826962Y-90494743D01*
X116063114Y-90503403D01*
X116073400Y-90502936D01*
X116307805Y-90472907D01*
X116317890Y-90470764D01*
X116544248Y-90402853D01*
X116553825Y-90399100D01*
X116766058Y-90295128D01*
X116772350Y-90291378D01*
X116780217Y-90281359D01*
X116773229Y-90268204D01*
X116770509Y-90265484D01*
X128221856Y-90265484D01*
X128227137Y-90272539D01*
X128345192Y-90341525D01*
X128354475Y-90345972D01*
X128575248Y-90430277D01*
X128585150Y-90433154D01*
X128816709Y-90480265D01*
X128826962Y-90481488D01*
X129063114Y-90490148D01*
X129073400Y-90489681D01*
X129307805Y-90459652D01*
X129317890Y-90457509D01*
X129544248Y-90389598D01*
X129553825Y-90385845D01*
X129766058Y-90281873D01*
X129772350Y-90278123D01*
X129780217Y-90268104D01*
X129773229Y-90254949D01*
X129012812Y-89494532D01*
X128998868Y-89486918D01*
X128997035Y-89487049D01*
X128990420Y-89491300D01*
X128228616Y-90253104D01*
X128221856Y-90265484D01*
X116770509Y-90265484D01*
X116012812Y-89507787D01*
X115998868Y-89500173D01*
X115997035Y-89500304D01*
X115990420Y-89504555D01*
X115228616Y-90266359D01*
X115221856Y-90278739D01*
X101000000Y-90278739D01*
X101000000Y-88968382D01*
X114495605Y-88968382D01*
X114509209Y-89204306D01*
X114510645Y-89214527D01*
X114562598Y-89445057D01*
X114565677Y-89454885D01*
X114654585Y-89673839D01*
X114659238Y-89683050D01*
X114711606Y-89768506D01*
X114722064Y-89777968D01*
X114730840Y-89774185D01*
X115492213Y-89012812D01*
X115498591Y-89001132D01*
X116500173Y-89001132D01*
X116500304Y-89002965D01*
X116504555Y-89009580D01*
X117268993Y-89774018D01*
X117281003Y-89780576D01*
X117291047Y-89772902D01*
X117292449Y-89770569D01*
X117397151Y-89558720D01*
X117400950Y-89549125D01*
X117469645Y-89323026D01*
X117471824Y-89312945D01*
X117502907Y-89076848D01*
X117503426Y-89070174D01*
X117505059Y-89003365D01*
X117504865Y-88996647D01*
X117501452Y-88955127D01*
X127495605Y-88955127D01*
X127509209Y-89191051D01*
X127510645Y-89201272D01*
X127562598Y-89431802D01*
X127565677Y-89441630D01*
X127654585Y-89660584D01*
X127659238Y-89669795D01*
X127711606Y-89755251D01*
X127722064Y-89764713D01*
X127730840Y-89760930D01*
X128492213Y-88999557D01*
X128498591Y-88987877D01*
X129500173Y-88987877D01*
X129500304Y-88989710D01*
X129504555Y-88996325D01*
X130268993Y-89760763D01*
X130281003Y-89767321D01*
X130291047Y-89759647D01*
X130292449Y-89757314D01*
X130397151Y-89545465D01*
X130400950Y-89535870D01*
X130469645Y-89309771D01*
X130471824Y-89299690D01*
X130502907Y-89063593D01*
X130503426Y-89056919D01*
X130505059Y-88990110D01*
X130504865Y-88983392D01*
X130485354Y-88746067D01*
X130483671Y-88735905D01*
X130426100Y-88506701D01*
X130422782Y-88496954D01*
X130328546Y-88280226D01*
X130323679Y-88271150D01*
X130289089Y-88217681D01*
X130278403Y-88208479D01*
X130268838Y-88212882D01*
X129507787Y-88973933D01*
X129500173Y-88987877D01*
X128498591Y-88987877D01*
X128499827Y-88985613D01*
X128499696Y-88983780D01*
X128495445Y-88977165D01*
X127732602Y-88214322D01*
X127721066Y-88208022D01*
X127708784Y-88217645D01*
X127694201Y-88239022D01*
X127689112Y-88247981D01*
X127589611Y-88462338D01*
X127586054Y-88472006D01*
X127522901Y-88699727D01*
X127520970Y-88709847D01*
X127495857Y-88944838D01*
X127495605Y-88955127D01*
X117501452Y-88955127D01*
X117485354Y-88759322D01*
X117483671Y-88749160D01*
X117426100Y-88519956D01*
X117422782Y-88510209D01*
X117328546Y-88293481D01*
X117323679Y-88284405D01*
X117289089Y-88230936D01*
X117278403Y-88221734D01*
X117268838Y-88226137D01*
X116507787Y-88987188D01*
X116500173Y-89001132D01*
X115498591Y-89001132D01*
X115499827Y-88998868D01*
X115499696Y-88997035D01*
X115495445Y-88990420D01*
X114732602Y-88227577D01*
X114721066Y-88221277D01*
X114708784Y-88230900D01*
X114694201Y-88252277D01*
X114689112Y-88261236D01*
X114589611Y-88475593D01*
X114586054Y-88485261D01*
X114522901Y-88712982D01*
X114520970Y-88723102D01*
X114495857Y-88958093D01*
X114495605Y-88968382D01*
X101000000Y-88968382D01*
X101000000Y-87719760D01*
X115219230Y-87719760D01*
X115221656Y-87726681D01*
X115987188Y-88492213D01*
X116001132Y-88499827D01*
X116002965Y-88499696D01*
X116009580Y-88495445D01*
X116772284Y-87732741D01*
X116779044Y-87720361D01*
X116774230Y-87713931D01*
X116760778Y-87706505D01*
X128219230Y-87706505D01*
X128221656Y-87713426D01*
X128987188Y-88478958D01*
X129001132Y-88486572D01*
X129002965Y-88486441D01*
X129009580Y-88482190D01*
X129772284Y-87719486D01*
X129779044Y-87707106D01*
X129774230Y-87700676D01*
X129621518Y-87616375D01*
X129612119Y-87612150D01*
X129389357Y-87533265D01*
X129379386Y-87530631D01*
X129146736Y-87489191D01*
X129136482Y-87488221D01*
X128900177Y-87485333D01*
X128889893Y-87486053D01*
X128656300Y-87521798D01*
X128646272Y-87524187D01*
X128421653Y-87597603D01*
X128412144Y-87601600D01*
X128229398Y-87696733D01*
X128219230Y-87706505D01*
X116760778Y-87706505D01*
X116621518Y-87629630D01*
X116612119Y-87625405D01*
X116389357Y-87546520D01*
X116379386Y-87543886D01*
X116146736Y-87502446D01*
X116136482Y-87501476D01*
X115900177Y-87498588D01*
X115889893Y-87499308D01*
X115656300Y-87535053D01*
X115646272Y-87537442D01*
X115421653Y-87610858D01*
X115412144Y-87614855D01*
X115229398Y-87709988D01*
X115219230Y-87719760D01*
X101000000Y-87719760D01*
X101000000Y-86023966D01*
X138544323Y-86023966D01*
X138562596Y-86105050D01*
X138565679Y-86114890D01*
X138654588Y-86333847D01*
X138659231Y-86343038D01*
X138782713Y-86544542D01*
X138788796Y-86552853D01*
X138943520Y-86731470D01*
X138950887Y-86738685D01*
X139132712Y-86889639D01*
X139141144Y-86895544D01*
X139345192Y-87014780D01*
X139354475Y-87019227D01*
X139575248Y-87103532D01*
X139585150Y-87106409D01*
X139632248Y-87115991D01*
X139646299Y-87114796D01*
X139650000Y-87104450D01*
X139650000Y-87103015D01*
X140350000Y-87103015D01*
X140353973Y-87116546D01*
X140361617Y-87117645D01*
X140544248Y-87062853D01*
X140553825Y-87059100D01*
X140766055Y-86955130D01*
X140774903Y-86949856D01*
X140967302Y-86812619D01*
X140975164Y-86805975D01*
X141142562Y-86639160D01*
X141149239Y-86631315D01*
X141287140Y-86439404D01*
X141292451Y-86430566D01*
X141397152Y-86218718D01*
X141400948Y-86209134D01*
X141456183Y-86027331D01*
X141456315Y-86013233D01*
X141449409Y-86010000D01*
X140368115Y-86010000D01*
X140352876Y-86014475D01*
X140351671Y-86015865D01*
X140350000Y-86023548D01*
X140350000Y-87103015D01*
X139650000Y-87103015D01*
X139650000Y-86028115D01*
X139645525Y-86012876D01*
X139644135Y-86011671D01*
X139636452Y-86010000D01*
X138559291Y-86010000D01*
X138545760Y-86013973D01*
X138544323Y-86023966D01*
X101000000Y-86023966D01*
X101000000Y-85660000D01*
X146186502Y-85660000D01*
X146206457Y-85888087D01*
X146207881Y-85893400D01*
X146207881Y-85893402D01*
X146243978Y-86028115D01*
X146265716Y-86109243D01*
X146268039Y-86114224D01*
X146268039Y-86114225D01*
X146360151Y-86311762D01*
X146360154Y-86311767D01*
X146362477Y-86316749D01*
X146493802Y-86504300D01*
X146655700Y-86666198D01*
X146660208Y-86669355D01*
X146660211Y-86669357D01*
X146738389Y-86724098D01*
X146843251Y-86797523D01*
X146848233Y-86799846D01*
X146848238Y-86799849D01*
X147045775Y-86891961D01*
X147050757Y-86894284D01*
X147056065Y-86895706D01*
X147056067Y-86895707D01*
X147266598Y-86952119D01*
X147266600Y-86952119D01*
X147271913Y-86953543D01*
X147500000Y-86973498D01*
X147728087Y-86953543D01*
X147733400Y-86952119D01*
X147733402Y-86952119D01*
X147943933Y-86895707D01*
X147943935Y-86895706D01*
X147949243Y-86894284D01*
X147954225Y-86891961D01*
X148151762Y-86799849D01*
X148151767Y-86799846D01*
X148156749Y-86797523D01*
X148261611Y-86724098D01*
X148339789Y-86669357D01*
X148339792Y-86669355D01*
X148344300Y-86666198D01*
X148506198Y-86504300D01*
X148637523Y-86316749D01*
X148639846Y-86311767D01*
X148639849Y-86311762D01*
X148731961Y-86114225D01*
X148731961Y-86114224D01*
X148734284Y-86109243D01*
X148756023Y-86028115D01*
X148757135Y-86023966D01*
X152544323Y-86023966D01*
X152562596Y-86105050D01*
X152565679Y-86114890D01*
X152654588Y-86333847D01*
X152659231Y-86343038D01*
X152782713Y-86544542D01*
X152788796Y-86552853D01*
X152943520Y-86731470D01*
X152950887Y-86738685D01*
X153132712Y-86889639D01*
X153141144Y-86895544D01*
X153345192Y-87014780D01*
X153354475Y-87019227D01*
X153575248Y-87103532D01*
X153585150Y-87106409D01*
X153632248Y-87115991D01*
X153646299Y-87114796D01*
X153650000Y-87104450D01*
X153650000Y-87103015D01*
X154350000Y-87103015D01*
X154353973Y-87116546D01*
X154361617Y-87117645D01*
X154544248Y-87062853D01*
X154553825Y-87059100D01*
X154766055Y-86955130D01*
X154774903Y-86949856D01*
X154967302Y-86812619D01*
X154975164Y-86805975D01*
X155142562Y-86639160D01*
X155149239Y-86631315D01*
X155287140Y-86439404D01*
X155292451Y-86430566D01*
X155397152Y-86218718D01*
X155400948Y-86209134D01*
X155456183Y-86027331D01*
X155456315Y-86013233D01*
X155449409Y-86010000D01*
X154368115Y-86010000D01*
X154352876Y-86014475D01*
X154351671Y-86015865D01*
X154350000Y-86023548D01*
X154350000Y-87103015D01*
X153650000Y-87103015D01*
X153650000Y-86028115D01*
X153645525Y-86012876D01*
X153644135Y-86011671D01*
X153636452Y-86010000D01*
X152559291Y-86010000D01*
X152545760Y-86013973D01*
X152544323Y-86023966D01*
X148757135Y-86023966D01*
X148792119Y-85893402D01*
X148792119Y-85893400D01*
X148793543Y-85888087D01*
X148813498Y-85660000D01*
X148793543Y-85431913D01*
X148760876Y-85310000D01*
X148756198Y-85292540D01*
X152545210Y-85292540D01*
X152545423Y-85306644D01*
X152553074Y-85310000D01*
X153631885Y-85310000D01*
X153647124Y-85305525D01*
X153648329Y-85304135D01*
X153650000Y-85296452D01*
X153650000Y-85291885D01*
X154350000Y-85291885D01*
X154354475Y-85307124D01*
X154355865Y-85308329D01*
X154363548Y-85310000D01*
X155440649Y-85310000D01*
X155454180Y-85306027D01*
X155455485Y-85296947D01*
X155426100Y-85179956D01*
X155422782Y-85170209D01*
X155328546Y-84953481D01*
X155323679Y-84944406D01*
X155195317Y-84745988D01*
X155189027Y-84737819D01*
X155029982Y-84563032D01*
X155022449Y-84556007D01*
X154836987Y-84409538D01*
X154828409Y-84403839D01*
X154621518Y-84289630D01*
X154612119Y-84285405D01*
X154389349Y-84206518D01*
X154379400Y-84203889D01*
X154367836Y-84201829D01*
X154354540Y-84203288D01*
X154350000Y-84217844D01*
X154350000Y-85291885D01*
X153650000Y-85291885D01*
X153650000Y-84214338D01*
X153646027Y-84200807D01*
X153639045Y-84199803D01*
X153421652Y-84270859D01*
X153412143Y-84274856D01*
X153202535Y-84383971D01*
X153193810Y-84389465D01*
X153004832Y-84531353D01*
X152997125Y-84538196D01*
X152833858Y-84709047D01*
X152827371Y-84717057D01*
X152694205Y-84912272D01*
X152689112Y-84921236D01*
X152589611Y-85135593D01*
X152586054Y-85145261D01*
X152545210Y-85292540D01*
X148756198Y-85292540D01*
X148735707Y-85216067D01*
X148735706Y-85216065D01*
X148734284Y-85210757D01*
X148731961Y-85205775D01*
X148639849Y-85008238D01*
X148639846Y-85008233D01*
X148637523Y-85003251D01*
X148522006Y-84838276D01*
X148509357Y-84820211D01*
X148509355Y-84820208D01*
X148506198Y-84815700D01*
X148344300Y-84653802D01*
X148339792Y-84650645D01*
X148339789Y-84650643D01*
X148214667Y-84563032D01*
X148156749Y-84522477D01*
X148151767Y-84520154D01*
X148151762Y-84520151D01*
X147954225Y-84428039D01*
X147954224Y-84428039D01*
X147949243Y-84425716D01*
X147943935Y-84424294D01*
X147943933Y-84424293D01*
X147733402Y-84367881D01*
X147733400Y-84367881D01*
X147728087Y-84366457D01*
X147500000Y-84346502D01*
X147271913Y-84366457D01*
X147266600Y-84367881D01*
X147266598Y-84367881D01*
X147056067Y-84424293D01*
X147056065Y-84424294D01*
X147050757Y-84425716D01*
X147045776Y-84428039D01*
X147045775Y-84428039D01*
X146848238Y-84520151D01*
X146848233Y-84520154D01*
X146843251Y-84522477D01*
X146785333Y-84563032D01*
X146660211Y-84650643D01*
X146660208Y-84650645D01*
X146655700Y-84653802D01*
X146493802Y-84815700D01*
X146490645Y-84820208D01*
X146490643Y-84820211D01*
X146477994Y-84838276D01*
X146362477Y-85003251D01*
X146360154Y-85008233D01*
X146360151Y-85008238D01*
X146268039Y-85205775D01*
X146265716Y-85210757D01*
X146264294Y-85216065D01*
X146264293Y-85216067D01*
X146239124Y-85310000D01*
X146206457Y-85431913D01*
X146186502Y-85660000D01*
X101000000Y-85660000D01*
X101000000Y-84848134D01*
X114691500Y-84848134D01*
X114698255Y-84910316D01*
X114749385Y-85046705D01*
X114836739Y-85163261D01*
X114953295Y-85250615D01*
X115089684Y-85301745D01*
X115151866Y-85308500D01*
X116848134Y-85308500D01*
X116910316Y-85301745D01*
X117046705Y-85250615D01*
X117163261Y-85163261D01*
X117250615Y-85046705D01*
X117301745Y-84910316D01*
X117308500Y-84848134D01*
X117308500Y-84834879D01*
X127691500Y-84834879D01*
X127698255Y-84897061D01*
X127749385Y-85033450D01*
X127836739Y-85150006D01*
X127953295Y-85237360D01*
X128089684Y-85288490D01*
X128151866Y-85295245D01*
X129848134Y-85295245D01*
X129873034Y-85292540D01*
X138545210Y-85292540D01*
X138545423Y-85306644D01*
X138553074Y-85310000D01*
X139631885Y-85310000D01*
X139647124Y-85305525D01*
X139648329Y-85304135D01*
X139650000Y-85296452D01*
X139650000Y-85291885D01*
X140350000Y-85291885D01*
X140354475Y-85307124D01*
X140355865Y-85308329D01*
X140363548Y-85310000D01*
X141440649Y-85310000D01*
X141454180Y-85306027D01*
X141455485Y-85296947D01*
X141426100Y-85179956D01*
X141422782Y-85170209D01*
X141328546Y-84953481D01*
X141323679Y-84944406D01*
X141195317Y-84745988D01*
X141189027Y-84737819D01*
X141029982Y-84563032D01*
X141022449Y-84556007D01*
X140836987Y-84409538D01*
X140828409Y-84403839D01*
X140621518Y-84289630D01*
X140612119Y-84285405D01*
X140389349Y-84206518D01*
X140379400Y-84203889D01*
X140367836Y-84201829D01*
X140354540Y-84203288D01*
X140350000Y-84217844D01*
X140350000Y-85291885D01*
X139650000Y-85291885D01*
X139650000Y-84214338D01*
X139646027Y-84200807D01*
X139639045Y-84199803D01*
X139421652Y-84270859D01*
X139412143Y-84274856D01*
X139202535Y-84383971D01*
X139193810Y-84389465D01*
X139004832Y-84531353D01*
X138997125Y-84538196D01*
X138833858Y-84709047D01*
X138827371Y-84717057D01*
X138694205Y-84912272D01*
X138689112Y-84921236D01*
X138589611Y-85135593D01*
X138586054Y-85145261D01*
X138545210Y-85292540D01*
X129873034Y-85292540D01*
X129910316Y-85288490D01*
X130046705Y-85237360D01*
X130163261Y-85150006D01*
X130250615Y-85033450D01*
X130301745Y-84897061D01*
X130308500Y-84834879D01*
X130308500Y-83138611D01*
X130301745Y-83076429D01*
X130250615Y-82940040D01*
X130163261Y-82823484D01*
X130046705Y-82736130D01*
X129910316Y-82685000D01*
X129848134Y-82678245D01*
X128151866Y-82678245D01*
X128089684Y-82685000D01*
X127953295Y-82736130D01*
X127836739Y-82823484D01*
X127749385Y-82940040D01*
X127698255Y-83076429D01*
X127691500Y-83138611D01*
X127691500Y-84834879D01*
X117308500Y-84834879D01*
X117308500Y-83151866D01*
X117301745Y-83089684D01*
X117250615Y-82953295D01*
X117163261Y-82836739D01*
X117046705Y-82749385D01*
X116910316Y-82698255D01*
X116848134Y-82691500D01*
X115151866Y-82691500D01*
X115089684Y-82698255D01*
X114953295Y-82749385D01*
X114836739Y-82836739D01*
X114749385Y-82953295D01*
X114698255Y-83089684D01*
X114691500Y-83151866D01*
X114691500Y-84848134D01*
X101000000Y-84848134D01*
X101000000Y-78075972D01*
X101020002Y-78007851D01*
X101067188Y-77964540D01*
X103090018Y-76896935D01*
X103159599Y-76882828D01*
X103225009Y-76908004D01*
X103319944Y-76980063D01*
X103395559Y-77037458D01*
X103398177Y-77039069D01*
X103398182Y-77039072D01*
X103444705Y-77067693D01*
X103737187Y-77247629D01*
X104097693Y-77423460D01*
X104100574Y-77424531D01*
X104100580Y-77424534D01*
X104334460Y-77511513D01*
X104473637Y-77563272D01*
X104861430Y-77665731D01*
X104935384Y-77677709D01*
X105254324Y-77729367D01*
X105254331Y-77729368D01*
X105257370Y-77729860D01*
X105260450Y-77730054D01*
X105260452Y-77730054D01*
X105583442Y-77750375D01*
X105583458Y-77750376D01*
X105585437Y-77750500D01*
X105816106Y-77750500D01*
X105817632Y-77750425D01*
X105817647Y-77750425D01*
X105980874Y-77742441D01*
X106115621Y-77735851D01*
X106512418Y-77677257D01*
X106515415Y-77676510D01*
X106515419Y-77676509D01*
X106638874Y-77645728D01*
X106901604Y-77580223D01*
X106904512Y-77579188D01*
X106904517Y-77579186D01*
X107085684Y-77514675D01*
X107279463Y-77445673D01*
X107642390Y-77274893D01*
X107645019Y-77273326D01*
X107645028Y-77273321D01*
X107984285Y-77071082D01*
X107986919Y-77069512D01*
X107989379Y-77067698D01*
X107989387Y-77067693D01*
X108240131Y-76882828D01*
X108309762Y-76831492D01*
X108312045Y-76829436D01*
X108312054Y-76829429D01*
X108605540Y-76565173D01*
X108605548Y-76565165D01*
X108607837Y-76563104D01*
X108878300Y-76266909D01*
X109118568Y-75945736D01*
X109253700Y-75722607D01*
X109324758Y-75605277D01*
X109324763Y-75605268D01*
X109326349Y-75602649D01*
X109375530Y-75500000D01*
X138686502Y-75500000D01*
X138706457Y-75728087D01*
X138765716Y-75949243D01*
X138768039Y-75954224D01*
X138768039Y-75954225D01*
X138860151Y-76151762D01*
X138860154Y-76151767D01*
X138862477Y-76156749D01*
X138993802Y-76344300D01*
X139155700Y-76506198D01*
X139160208Y-76509355D01*
X139160211Y-76509357D01*
X139178880Y-76522429D01*
X139343251Y-76637523D01*
X139348233Y-76639846D01*
X139348238Y-76639849D01*
X139545775Y-76731961D01*
X139550757Y-76734284D01*
X139556065Y-76735706D01*
X139556067Y-76735707D01*
X139766598Y-76792119D01*
X139766600Y-76792119D01*
X139771913Y-76793543D01*
X140000000Y-76813498D01*
X140228087Y-76793543D01*
X140233400Y-76792119D01*
X140233402Y-76792119D01*
X140443933Y-76735707D01*
X140443935Y-76735706D01*
X140449243Y-76734284D01*
X140454225Y-76731961D01*
X140651762Y-76639849D01*
X140651767Y-76639846D01*
X140656749Y-76637523D01*
X140821120Y-76522429D01*
X140839789Y-76509357D01*
X140839792Y-76509355D01*
X140844300Y-76506198D01*
X141006198Y-76344300D01*
X141137523Y-76156749D01*
X141139846Y-76151767D01*
X141139849Y-76151762D01*
X141231961Y-75954225D01*
X141231961Y-75954224D01*
X141234284Y-75949243D01*
X141293543Y-75728087D01*
X141313498Y-75500000D01*
X146186502Y-75500000D01*
X146206457Y-75728087D01*
X146265716Y-75949243D01*
X146268039Y-75954224D01*
X146268039Y-75954225D01*
X146360151Y-76151762D01*
X146360154Y-76151767D01*
X146362477Y-76156749D01*
X146493802Y-76344300D01*
X146655700Y-76506198D01*
X146660208Y-76509355D01*
X146660211Y-76509357D01*
X146678880Y-76522429D01*
X146843251Y-76637523D01*
X146848233Y-76639846D01*
X146848238Y-76639849D01*
X147045775Y-76731961D01*
X147050757Y-76734284D01*
X147056065Y-76735706D01*
X147056067Y-76735707D01*
X147266598Y-76792119D01*
X147266600Y-76792119D01*
X147271913Y-76793543D01*
X147500000Y-76813498D01*
X147728087Y-76793543D01*
X147733400Y-76792119D01*
X147733402Y-76792119D01*
X147943933Y-76735707D01*
X147943935Y-76735706D01*
X147949243Y-76734284D01*
X147954225Y-76731961D01*
X148151762Y-76639849D01*
X148151767Y-76639846D01*
X148156749Y-76637523D01*
X148321120Y-76522429D01*
X148339789Y-76509357D01*
X148339792Y-76509355D01*
X148344300Y-76506198D01*
X148506198Y-76344300D01*
X148637523Y-76156749D01*
X148639846Y-76151767D01*
X148639849Y-76151762D01*
X148731961Y-75954225D01*
X148731961Y-75954224D01*
X148734284Y-75949243D01*
X148793543Y-75728087D01*
X148813498Y-75500000D01*
X152686502Y-75500000D01*
X152706457Y-75728087D01*
X152765716Y-75949243D01*
X152768039Y-75954224D01*
X152768039Y-75954225D01*
X152860151Y-76151762D01*
X152860154Y-76151767D01*
X152862477Y-76156749D01*
X152993802Y-76344300D01*
X153155700Y-76506198D01*
X153160208Y-76509355D01*
X153160211Y-76509357D01*
X153178880Y-76522429D01*
X153343251Y-76637523D01*
X153348233Y-76639846D01*
X153348238Y-76639849D01*
X153545775Y-76731961D01*
X153550757Y-76734284D01*
X153556065Y-76735706D01*
X153556067Y-76735707D01*
X153766598Y-76792119D01*
X153766600Y-76792119D01*
X153771913Y-76793543D01*
X154000000Y-76813498D01*
X154228087Y-76793543D01*
X154233400Y-76792119D01*
X154233402Y-76792119D01*
X154443933Y-76735707D01*
X154443935Y-76735706D01*
X154449243Y-76734284D01*
X154454225Y-76731961D01*
X154651762Y-76639849D01*
X154651767Y-76639846D01*
X154656749Y-76637523D01*
X154821120Y-76522429D01*
X154839789Y-76509357D01*
X154839792Y-76509355D01*
X154844300Y-76506198D01*
X155006198Y-76344300D01*
X155137523Y-76156749D01*
X155139846Y-76151767D01*
X155139849Y-76151762D01*
X155231961Y-75954225D01*
X155231961Y-75954224D01*
X155234284Y-75949243D01*
X155293543Y-75728087D01*
X155313498Y-75500000D01*
X155293543Y-75271913D01*
X155285985Y-75243706D01*
X155235707Y-75056067D01*
X155235706Y-75056065D01*
X155234284Y-75050757D01*
X155231961Y-75045775D01*
X155139849Y-74848238D01*
X155139846Y-74848233D01*
X155137523Y-74843251D01*
X155044434Y-74710306D01*
X155009357Y-74660211D01*
X155009355Y-74660208D01*
X155006198Y-74655700D01*
X154844300Y-74493802D01*
X154839792Y-74490645D01*
X154839789Y-74490643D01*
X154761611Y-74435902D01*
X154656749Y-74362477D01*
X154651767Y-74360154D01*
X154651762Y-74360151D01*
X154454225Y-74268039D01*
X154454224Y-74268039D01*
X154449243Y-74265716D01*
X154443935Y-74264294D01*
X154443933Y-74264293D01*
X154233402Y-74207881D01*
X154233400Y-74207881D01*
X154228087Y-74206457D01*
X154000000Y-74186502D01*
X153771913Y-74206457D01*
X153766600Y-74207881D01*
X153766598Y-74207881D01*
X153556067Y-74264293D01*
X153556065Y-74264294D01*
X153550757Y-74265716D01*
X153545776Y-74268039D01*
X153545775Y-74268039D01*
X153348238Y-74360151D01*
X153348233Y-74360154D01*
X153343251Y-74362477D01*
X153238389Y-74435902D01*
X153160211Y-74490643D01*
X153160208Y-74490645D01*
X153155700Y-74493802D01*
X152993802Y-74655700D01*
X152990645Y-74660208D01*
X152990643Y-74660211D01*
X152955566Y-74710306D01*
X152862477Y-74843251D01*
X152860154Y-74848233D01*
X152860151Y-74848238D01*
X152768039Y-75045775D01*
X152765716Y-75050757D01*
X152764294Y-75056065D01*
X152764293Y-75056067D01*
X152714015Y-75243706D01*
X152706457Y-75271913D01*
X152686502Y-75500000D01*
X148813498Y-75500000D01*
X148793543Y-75271913D01*
X148785985Y-75243706D01*
X148735707Y-75056067D01*
X148735706Y-75056065D01*
X148734284Y-75050757D01*
X148731961Y-75045775D01*
X148639849Y-74848238D01*
X148639846Y-74848233D01*
X148637523Y-74843251D01*
X148544434Y-74710306D01*
X148509357Y-74660211D01*
X148509355Y-74660208D01*
X148506198Y-74655700D01*
X148344300Y-74493802D01*
X148339792Y-74490645D01*
X148339789Y-74490643D01*
X148261611Y-74435902D01*
X148156749Y-74362477D01*
X148151767Y-74360154D01*
X148151762Y-74360151D01*
X147954225Y-74268039D01*
X147954224Y-74268039D01*
X147949243Y-74265716D01*
X147943935Y-74264294D01*
X147943933Y-74264293D01*
X147733402Y-74207881D01*
X147733400Y-74207881D01*
X147728087Y-74206457D01*
X147500000Y-74186502D01*
X147271913Y-74206457D01*
X147266600Y-74207881D01*
X147266598Y-74207881D01*
X147056067Y-74264293D01*
X147056065Y-74264294D01*
X147050757Y-74265716D01*
X147045776Y-74268039D01*
X147045775Y-74268039D01*
X146848238Y-74360151D01*
X146848233Y-74360154D01*
X146843251Y-74362477D01*
X146738389Y-74435902D01*
X146660211Y-74490643D01*
X146660208Y-74490645D01*
X146655700Y-74493802D01*
X146493802Y-74655700D01*
X146490645Y-74660208D01*
X146490643Y-74660211D01*
X146455566Y-74710306D01*
X146362477Y-74843251D01*
X146360154Y-74848233D01*
X146360151Y-74848238D01*
X146268039Y-75045775D01*
X146265716Y-75050757D01*
X146264294Y-75056065D01*
X146264293Y-75056067D01*
X146214015Y-75243706D01*
X146206457Y-75271913D01*
X146186502Y-75500000D01*
X141313498Y-75500000D01*
X141293543Y-75271913D01*
X141285985Y-75243706D01*
X141235707Y-75056067D01*
X141235706Y-75056065D01*
X141234284Y-75050757D01*
X141231961Y-75045775D01*
X141139849Y-74848238D01*
X141139846Y-74848233D01*
X141137523Y-74843251D01*
X141044434Y-74710306D01*
X141009357Y-74660211D01*
X141009355Y-74660208D01*
X141006198Y-74655700D01*
X140844300Y-74493802D01*
X140839792Y-74490645D01*
X140839789Y-74490643D01*
X140761611Y-74435902D01*
X140656749Y-74362477D01*
X140651767Y-74360154D01*
X140651762Y-74360151D01*
X140454225Y-74268039D01*
X140454224Y-74268039D01*
X140449243Y-74265716D01*
X140443935Y-74264294D01*
X140443933Y-74264293D01*
X140233402Y-74207881D01*
X140233400Y-74207881D01*
X140228087Y-74206457D01*
X140000000Y-74186502D01*
X139771913Y-74206457D01*
X139766600Y-74207881D01*
X139766598Y-74207881D01*
X139556067Y-74264293D01*
X139556065Y-74264294D01*
X139550757Y-74265716D01*
X139545776Y-74268039D01*
X139545775Y-74268039D01*
X139348238Y-74360151D01*
X139348233Y-74360154D01*
X139343251Y-74362477D01*
X139238389Y-74435902D01*
X139160211Y-74490643D01*
X139160208Y-74490645D01*
X139155700Y-74493802D01*
X138993802Y-74655700D01*
X138990645Y-74660208D01*
X138990643Y-74660211D01*
X138955566Y-74710306D01*
X138862477Y-74843251D01*
X138860154Y-74848233D01*
X138860151Y-74848238D01*
X138768039Y-75045775D01*
X138765716Y-75050757D01*
X138764294Y-75056065D01*
X138764293Y-75056067D01*
X138714015Y-75243706D01*
X138706457Y-75271913D01*
X138686502Y-75500000D01*
X109375530Y-75500000D01*
X109499658Y-75240924D01*
X109500714Y-75238023D01*
X109635792Y-74866901D01*
X109635793Y-74866898D01*
X109636843Y-74864013D01*
X109640894Y-74848238D01*
X109735830Y-74478483D01*
X109735831Y-74478477D01*
X109736592Y-74475514D01*
X109797955Y-74079136D01*
X109820345Y-73678661D01*
X109809990Y-73431590D01*
X109827122Y-73362692D01*
X109877067Y-73314882D01*
X109972652Y-73264434D01*
X110030921Y-73249867D01*
X130291892Y-73162535D01*
X141201652Y-73115510D01*
X141206799Y-73115594D01*
X141239207Y-73116782D01*
X141332292Y-73120196D01*
X141332296Y-73120196D01*
X141337456Y-73120385D01*
X141342575Y-73119729D01*
X141342581Y-73119729D01*
X141373863Y-73115722D01*
X141389328Y-73114702D01*
X143604518Y-73105153D01*
X143630174Y-73107680D01*
X143651981Y-73112117D01*
X143657156Y-73112307D01*
X143657158Y-73112307D01*
X143872292Y-73120196D01*
X143872296Y-73120196D01*
X143877456Y-73120385D01*
X143882576Y-73119729D01*
X143882578Y-73119729D01*
X144002304Y-73104392D01*
X144017771Y-73103372D01*
X146091818Y-73094432D01*
X146117481Y-73096960D01*
X146157752Y-73105153D01*
X146191981Y-73112117D01*
X146318976Y-73116774D01*
X146412292Y-73120196D01*
X146412296Y-73120196D01*
X146417456Y-73120385D01*
X146422576Y-73119729D01*
X146422578Y-73119729D01*
X146630745Y-73093063D01*
X146646212Y-73092043D01*
X148579123Y-73083711D01*
X148604786Y-73086239D01*
X148638328Y-73093063D01*
X148731981Y-73112117D01*
X148858976Y-73116774D01*
X148952292Y-73120196D01*
X148952296Y-73120196D01*
X148957456Y-73120385D01*
X148962576Y-73119729D01*
X148962578Y-73119729D01*
X149056626Y-73107681D01*
X149181253Y-73091716D01*
X149186204Y-73090231D01*
X149186207Y-73090230D01*
X149192098Y-73088462D01*
X149199653Y-73086196D01*
X149235316Y-73080882D01*
X149878981Y-73078108D01*
X151066427Y-73072990D01*
X151092090Y-73075518D01*
X151178328Y-73093063D01*
X151271981Y-73112117D01*
X151398976Y-73116774D01*
X151492292Y-73120196D01*
X151492296Y-73120196D01*
X151497456Y-73120385D01*
X151502576Y-73119729D01*
X151502578Y-73119729D01*
X151596626Y-73107681D01*
X151721253Y-73091716D01*
X151726207Y-73090230D01*
X151726215Y-73090228D01*
X151776678Y-73075088D01*
X151812340Y-73069774D01*
X153557132Y-73062254D01*
X153590267Y-73066898D01*
X153590884Y-73067134D01*
X153595957Y-73068166D01*
X153595960Y-73068167D01*
X153658457Y-73080882D01*
X153811981Y-73112117D01*
X153817156Y-73112307D01*
X153817158Y-73112307D01*
X154032292Y-73120196D01*
X154032296Y-73120196D01*
X154037456Y-73120385D01*
X154042576Y-73119729D01*
X154042578Y-73119729D01*
X154136626Y-73107681D01*
X154261253Y-73091716D01*
X154353708Y-73063978D01*
X154389364Y-73058667D01*
X156066002Y-73051440D01*
X156111491Y-73059729D01*
X156130884Y-73067134D01*
X156351981Y-73112117D01*
X156357156Y-73112307D01*
X156357158Y-73112307D01*
X156572292Y-73120196D01*
X156572296Y-73120196D01*
X156577456Y-73120385D01*
X156582576Y-73119729D01*
X156582578Y-73119729D01*
X156676626Y-73107681D01*
X156801253Y-73091716D01*
X156930733Y-73052870D01*
X156966389Y-73047559D01*
X158577651Y-73040614D01*
X158623141Y-73048903D01*
X158666046Y-73065287D01*
X158666051Y-73065288D01*
X158670884Y-73067134D01*
X158675952Y-73068165D01*
X158675955Y-73068166D01*
X158738457Y-73080882D01*
X158891981Y-73112117D01*
X158897156Y-73112307D01*
X158897158Y-73112307D01*
X159112292Y-73120196D01*
X159112296Y-73120196D01*
X159117456Y-73120385D01*
X159122576Y-73119729D01*
X159122578Y-73119729D01*
X159336125Y-73092373D01*
X159336126Y-73092373D01*
X159341253Y-73091716D01*
X159507758Y-73041762D01*
X159543413Y-73036451D01*
X161089300Y-73029788D01*
X161134787Y-73038076D01*
X161210884Y-73067134D01*
X161215952Y-73068165D01*
X161215955Y-73068166D01*
X161278457Y-73080882D01*
X161431981Y-73112117D01*
X161437156Y-73112307D01*
X161437158Y-73112307D01*
X161652292Y-73120196D01*
X161652296Y-73120196D01*
X161657456Y-73120385D01*
X161662576Y-73119729D01*
X161662578Y-73119729D01*
X161756626Y-73107681D01*
X161881253Y-73091716D01*
X162084779Y-73030655D01*
X162120440Y-73025343D01*
X162321187Y-73024478D01*
X163600948Y-73018961D01*
X163646437Y-73027250D01*
X163750884Y-73067134D01*
X163755952Y-73068165D01*
X163755955Y-73068166D01*
X163818457Y-73080882D01*
X163971981Y-73112117D01*
X163977156Y-73112307D01*
X163977158Y-73112307D01*
X164192292Y-73120196D01*
X164192296Y-73120196D01*
X164197456Y-73120385D01*
X164202576Y-73119729D01*
X164202578Y-73119729D01*
X164296626Y-73107681D01*
X164421253Y-73091716D01*
X164426202Y-73090231D01*
X164426208Y-73090230D01*
X164632410Y-73028366D01*
X164637363Y-73026880D01*
X164642007Y-73024605D01*
X164646240Y-73022946D01*
X164691672Y-73014260D01*
X164811528Y-73013743D01*
X165710452Y-73009869D01*
X165776830Y-73028435D01*
X165958725Y-73139900D01*
X165967519Y-73144381D01*
X166185754Y-73234776D01*
X166195139Y-73237825D01*
X166307385Y-73264773D01*
X166321470Y-73264068D01*
X166325000Y-73255189D01*
X166325000Y-73007220D01*
X167025000Y-73004203D01*
X167025000Y-73250887D01*
X167028973Y-73264418D01*
X167038431Y-73265778D01*
X167154861Y-73237825D01*
X167164246Y-73234776D01*
X167382481Y-73144381D01*
X167391275Y-73139900D01*
X167586827Y-73020066D01*
X167652118Y-73001500D01*
X167769766Y-73000992D01*
X167873458Y-73000545D01*
X167941663Y-73020253D01*
G37*
G04 #@! TD.AperFunction*
M02*
