G04 #@! TF.GenerationSoftware,KiCad,Pcbnew,6.0.10-86aedd382b~118~ubuntu20.04.1*
G04 #@! TF.CreationDate,2023-01-08T00:17:35-08:00*
G04 #@! TF.ProjectId,stingray,7374696e-6772-4617-992e-6b696361645f,A1*
G04 #@! TF.SameCoordinates,Original*
G04 #@! TF.FileFunction,Copper,L2,Bot*
G04 #@! TF.FilePolarity,Positive*
%FSLAX46Y46*%
G04 Gerber Fmt 4.6, Leading zero omitted, Abs format (unit mm)*
G04 Created by KiCad (PCBNEW 6.0.10-86aedd382b~118~ubuntu20.04.1) date 2023-01-08 00:17:35*
%MOMM*%
%LPD*%
G01*
G04 APERTURE LIST*
G04 Aperture macros list*
%AMRoundRect*
0 Rectangle with rounded corners*
0 $1 Rounding radius*
0 $2 $3 $4 $5 $6 $7 $8 $9 X,Y pos of 4 corners*
0 Add a 4 corners polygon primitive as box body*
4,1,4,$2,$3,$4,$5,$6,$7,$8,$9,$2,$3,0*
0 Add four circle primitives for the rounded corners*
1,1,$1+$1,$2,$3*
1,1,$1+$1,$4,$5*
1,1,$1+$1,$6,$7*
1,1,$1+$1,$8,$9*
0 Add four rect primitives between the rounded corners*
20,1,$1+$1,$2,$3,$4,$5,0*
20,1,$1+$1,$4,$5,$6,$7,0*
20,1,$1+$1,$6,$7,$8,$9,0*
20,1,$1+$1,$8,$9,$2,$3,0*%
G04 Aperture macros list end*
G04 #@! TA.AperFunction,ComponentPad*
%ADD10RoundRect,0.250000X-1.550000X0.650000X-1.550000X-0.650000X1.550000X-0.650000X1.550000X0.650000X0*%
G04 #@! TD*
G04 #@! TA.AperFunction,ComponentPad*
%ADD11O,3.600000X1.800000*%
G04 #@! TD*
G04 #@! TA.AperFunction,ComponentPad*
%ADD12R,1.727200X1.727200*%
G04 #@! TD*
G04 #@! TA.AperFunction,ComponentPad*
%ADD13O,1.727200X1.727200*%
G04 #@! TD*
G04 #@! TA.AperFunction,ComponentPad*
%ADD14R,1.600000X1.600000*%
G04 #@! TD*
G04 #@! TA.AperFunction,ComponentPad*
%ADD15C,1.600000*%
G04 #@! TD*
G04 #@! TA.AperFunction,ComponentPad*
%ADD16R,1.500000X1.500000*%
G04 #@! TD*
G04 #@! TA.AperFunction,ComponentPad*
%ADD17C,1.500000*%
G04 #@! TD*
G04 #@! TA.AperFunction,ComponentPad*
%ADD18C,2.300000*%
G04 #@! TD*
G04 #@! TA.AperFunction,ComponentPad*
%ADD19O,1.600000X1.600000*%
G04 #@! TD*
G04 #@! TA.AperFunction,ComponentPad*
%ADD20R,2.200000X2.200000*%
G04 #@! TD*
G04 #@! TA.AperFunction,ComponentPad*
%ADD21O,2.200000X2.200000*%
G04 #@! TD*
G04 #@! TA.AperFunction,Conductor*
%ADD22C,2.000000*%
G04 #@! TD*
G04 APERTURE END LIST*
D10*
X107000000Y-95770000D03*
D11*
X107000000Y-99580000D03*
X107000000Y-103390000D03*
X107000000Y-107200000D03*
D12*
X166675000Y-117465000D03*
D13*
X166675000Y-120005000D03*
X164135000Y-117465000D03*
X164135000Y-120005000D03*
X161595000Y-117465000D03*
X161595000Y-120005000D03*
X159055000Y-117465000D03*
X159055000Y-120005000D03*
X156515000Y-117465000D03*
X156515000Y-120005000D03*
X153975000Y-117465000D03*
X153975000Y-120005000D03*
X151435000Y-117465000D03*
X151435000Y-120005000D03*
X148895000Y-117465000D03*
X148895000Y-120005000D03*
X146355000Y-117465000D03*
X146355000Y-120005000D03*
X143815000Y-117465000D03*
X143815000Y-120005000D03*
X141275000Y-117465000D03*
X141275000Y-120005000D03*
X138735000Y-117465000D03*
X138735000Y-120005000D03*
X136195000Y-117465000D03*
X136195000Y-120005000D03*
X133655000Y-117465000D03*
X133655000Y-120005000D03*
X131115000Y-117465000D03*
X131115000Y-120005000D03*
X128575000Y-117465000D03*
X128575000Y-120005000D03*
X126035000Y-117465000D03*
X126035000Y-120005000D03*
X123495000Y-117465000D03*
X123495000Y-120005000D03*
X120955000Y-117465000D03*
X120955000Y-120005000D03*
X118415000Y-117465000D03*
X118415000Y-120005000D03*
X115875000Y-117465000D03*
X115875000Y-120005000D03*
X113335000Y-117465000D03*
X113335000Y-120005000D03*
X110795000Y-117465000D03*
X110795000Y-120005000D03*
D14*
X128000000Y-84000000D03*
D15*
X128000000Y-89000000D03*
D16*
X149540000Y-89000000D03*
D17*
X147000000Y-89000000D03*
X144460000Y-89000000D03*
D18*
X143000000Y-97800000D03*
X120900000Y-97800000D03*
X117700000Y-105420000D03*
X124100000Y-105420000D03*
X143000000Y-105420000D03*
D15*
X154000000Y-75500000D03*
D19*
X154000000Y-83120000D03*
D15*
X140000000Y-75500000D03*
D19*
X140000000Y-83120000D03*
D15*
X147000000Y-83120000D03*
D19*
X147000000Y-75500000D03*
D12*
X166675000Y-69205000D03*
D13*
X166675000Y-71745000D03*
X164135000Y-69205000D03*
X164135000Y-71745000D03*
X161595000Y-69205000D03*
X161595000Y-71745000D03*
X159055000Y-69205000D03*
X159055000Y-71745000D03*
X156515000Y-69205000D03*
X156515000Y-71745000D03*
X153975000Y-69205000D03*
X153975000Y-71745000D03*
X151435000Y-69205000D03*
X151435000Y-71745000D03*
X148895000Y-69205000D03*
X148895000Y-71745000D03*
X146355000Y-69205000D03*
X146355000Y-71745000D03*
X143815000Y-69205000D03*
X143815000Y-71745000D03*
X141275000Y-69205000D03*
X141275000Y-71745000D03*
X138735000Y-69205000D03*
X138735000Y-71745000D03*
X136195000Y-69205000D03*
X136195000Y-71745000D03*
X133655000Y-69205000D03*
X133655000Y-71745000D03*
X131115000Y-69205000D03*
X131115000Y-71745000D03*
X128575000Y-69205000D03*
X128575000Y-71745000D03*
X126035000Y-69205000D03*
X126035000Y-71745000D03*
X123495000Y-69205000D03*
X123495000Y-71745000D03*
X120955000Y-69205000D03*
X120955000Y-71745000D03*
X118415000Y-69205000D03*
X118415000Y-71745000D03*
X115875000Y-69205000D03*
X115875000Y-71745000D03*
X113335000Y-69205000D03*
X113335000Y-71745000D03*
X110795000Y-69205000D03*
X110795000Y-71745000D03*
D20*
X152000000Y-97780000D03*
D21*
X152000000Y-105400000D03*
D14*
X116000000Y-84000000D03*
D15*
X116000000Y-89000000D03*
D22*
X107000000Y-107200000D02*
X110000000Y-107200000D01*
X166675000Y-69205000D02*
X166675000Y-71745000D01*
X166675000Y-71745000D02*
X166675000Y-74325000D01*
G04 #@! TA.AperFunction,Conductor*
G36*
X167941663Y-73020253D02*
G01*
X167988387Y-73073708D01*
X168000000Y-73126544D01*
X168000000Y-86874000D01*
X167979998Y-86942121D01*
X167926342Y-86988614D01*
X167874000Y-87000000D01*
X163500000Y-87000000D01*
X163500000Y-107000000D01*
X167874000Y-107000000D01*
X167942121Y-107020002D01*
X167988614Y-107073658D01*
X168000000Y-107126000D01*
X168000000Y-115874000D01*
X167979998Y-115942121D01*
X167926342Y-115988614D01*
X167874000Y-116000000D01*
X110032650Y-116000000D01*
X109971459Y-115984144D01*
X109872472Y-115929151D01*
X109822639Y-115878585D01*
X109807860Y-115811975D01*
X109820173Y-115591732D01*
X109820345Y-115588661D01*
X109803549Y-115187913D01*
X109747726Y-114790716D01*
X109653411Y-114400863D01*
X109521502Y-114022073D01*
X109488635Y-113950942D01*
X109354553Y-113660761D01*
X109354548Y-113660751D01*
X109353260Y-113657964D01*
X109150290Y-113312009D01*
X108914529Y-112987513D01*
X108648228Y-112687571D01*
X108645983Y-112685492D01*
X108645976Y-112685485D01*
X108356182Y-112417133D01*
X108356179Y-112417130D01*
X108353929Y-112415047D01*
X108235941Y-112325489D01*
X108036893Y-112174403D01*
X108036891Y-112174401D01*
X108034441Y-112172542D01*
X107692813Y-111962371D01*
X107332307Y-111786540D01*
X107329426Y-111785469D01*
X107329420Y-111785466D01*
X107095540Y-111698487D01*
X106956363Y-111646728D01*
X106568570Y-111544269D01*
X106405243Y-111517815D01*
X106175676Y-111480633D01*
X106175669Y-111480632D01*
X106172630Y-111480140D01*
X106169550Y-111479946D01*
X106169548Y-111479946D01*
X105846558Y-111459625D01*
X105846542Y-111459624D01*
X105844563Y-111459500D01*
X105613894Y-111459500D01*
X105612368Y-111459575D01*
X105612353Y-111459575D01*
X105449126Y-111467559D01*
X105314379Y-111474149D01*
X104917582Y-111532743D01*
X104914585Y-111533490D01*
X104914581Y-111533491D01*
X104791126Y-111564272D01*
X104528396Y-111629777D01*
X104525488Y-111630812D01*
X104525483Y-111630814D01*
X104344316Y-111695325D01*
X104150537Y-111764327D01*
X103787610Y-111935107D01*
X103784981Y-111936674D01*
X103784972Y-111936679D01*
X103528424Y-112089613D01*
X103443081Y-112140488D01*
X103440616Y-112142306D01*
X103440600Y-112142316D01*
X103340578Y-112216059D01*
X103273878Y-112240384D01*
X103204617Y-112224787D01*
X101064809Y-111036005D01*
X101014975Y-110985438D01*
X101000000Y-110925861D01*
X101000000Y-107563431D01*
X104541787Y-107563431D01*
X104572449Y-107691144D01*
X104575498Y-107700529D01*
X104668086Y-107924057D01*
X104672567Y-107932851D01*
X104798986Y-108139148D01*
X104804786Y-108147130D01*
X104961917Y-108331108D01*
X104968892Y-108338083D01*
X105152870Y-108495214D01*
X105160852Y-108501014D01*
X105367149Y-108627433D01*
X105375943Y-108631914D01*
X105599471Y-108724502D01*
X105608856Y-108727551D01*
X105844118Y-108784033D01*
X105853865Y-108785576D01*
X106034675Y-108799807D01*
X106039600Y-108800000D01*
X106631885Y-108800000D01*
X106647124Y-108795525D01*
X106648329Y-108794135D01*
X106650000Y-108786452D01*
X106650000Y-108781885D01*
X107350000Y-108781885D01*
X107354475Y-108797124D01*
X107355865Y-108798329D01*
X107363548Y-108800000D01*
X107960400Y-108800000D01*
X107965325Y-108799807D01*
X108146135Y-108785576D01*
X108155882Y-108784033D01*
X108391144Y-108727551D01*
X108400529Y-108724502D01*
X108624057Y-108631914D01*
X108632851Y-108627433D01*
X108839148Y-108501014D01*
X108847130Y-108495214D01*
X109031108Y-108338083D01*
X109038083Y-108331108D01*
X109195214Y-108147130D01*
X109201014Y-108139148D01*
X109327433Y-107932851D01*
X109331914Y-107924057D01*
X109424502Y-107700529D01*
X109427551Y-107691144D01*
X109457208Y-107567615D01*
X109456503Y-107553530D01*
X109447624Y-107550000D01*
X107368115Y-107550000D01*
X107352876Y-107554475D01*
X107351671Y-107555865D01*
X107350000Y-107563548D01*
X107350000Y-108781885D01*
X106650000Y-108781885D01*
X106650000Y-107568115D01*
X106645525Y-107552876D01*
X106644135Y-107551671D01*
X106636452Y-107550000D01*
X104556678Y-107550000D01*
X104543147Y-107553973D01*
X104541787Y-107563431D01*
X101000000Y-107563431D01*
X101000000Y-106832385D01*
X104542792Y-106832385D01*
X104543497Y-106846470D01*
X104552376Y-106850000D01*
X106631885Y-106850000D01*
X106647124Y-106845525D01*
X106648329Y-106844135D01*
X106650000Y-106836452D01*
X106650000Y-106831885D01*
X107350000Y-106831885D01*
X107354475Y-106847124D01*
X107355865Y-106848329D01*
X107363548Y-106850000D01*
X109443322Y-106850000D01*
X109456853Y-106846027D01*
X109458213Y-106836569D01*
X109427551Y-106708856D01*
X109424502Y-106699471D01*
X109331914Y-106475943D01*
X109327433Y-106467149D01*
X109201014Y-106260852D01*
X109195214Y-106252870D01*
X109038083Y-106068892D01*
X109031108Y-106061917D01*
X108847130Y-105904786D01*
X108839148Y-105898986D01*
X108632851Y-105772567D01*
X108624057Y-105768086D01*
X108400529Y-105675498D01*
X108391144Y-105672449D01*
X108155882Y-105615967D01*
X108146135Y-105614424D01*
X107965325Y-105600193D01*
X107960399Y-105600000D01*
X107368115Y-105600000D01*
X107352876Y-105604475D01*
X107351671Y-105605865D01*
X107350000Y-105613548D01*
X107350000Y-106831885D01*
X106650000Y-106831885D01*
X106650000Y-105618115D01*
X106645525Y-105602876D01*
X106644135Y-105601671D01*
X106636452Y-105600000D01*
X106039601Y-105600000D01*
X106034675Y-105600193D01*
X105853865Y-105614424D01*
X105844118Y-105615967D01*
X105608856Y-105672449D01*
X105599471Y-105675498D01*
X105375943Y-105768086D01*
X105367149Y-105772567D01*
X105160852Y-105898986D01*
X105152870Y-105904786D01*
X104968892Y-106061917D01*
X104961917Y-106068892D01*
X104804786Y-106252870D01*
X104798986Y-106260852D01*
X104672567Y-106467149D01*
X104668086Y-106475943D01*
X104575498Y-106699471D01*
X104572449Y-106708856D01*
X104542792Y-106832385D01*
X101000000Y-106832385D01*
X101000000Y-105420000D01*
X116036372Y-105420000D01*
X116056854Y-105680249D01*
X116058008Y-105685056D01*
X116058009Y-105685062D01*
X116062086Y-105702042D01*
X116117796Y-105934089D01*
X116119689Y-105938660D01*
X116119690Y-105938662D01*
X116191048Y-106110934D01*
X116217697Y-106175271D01*
X116354097Y-106397856D01*
X116523637Y-106596363D01*
X116722144Y-106765903D01*
X116944729Y-106902303D01*
X116949299Y-106904196D01*
X116949303Y-106904198D01*
X117180590Y-107000000D01*
X117185911Y-107002204D01*
X117232854Y-107013474D01*
X117434938Y-107061991D01*
X117434944Y-107061992D01*
X117439751Y-107063146D01*
X117700000Y-107083628D01*
X117960249Y-107063146D01*
X117965056Y-107061992D01*
X117965062Y-107061991D01*
X118167146Y-107013474D01*
X118214089Y-107002204D01*
X118219410Y-107000000D01*
X118450697Y-106904198D01*
X118450701Y-106904196D01*
X118455271Y-106902303D01*
X118677856Y-106765903D01*
X118876363Y-106596363D01*
X119045903Y-106397856D01*
X119182303Y-106175271D01*
X119208953Y-106110934D01*
X119280310Y-105938662D01*
X119280311Y-105938660D01*
X119282204Y-105934089D01*
X119337914Y-105702042D01*
X119341991Y-105685062D01*
X119341992Y-105685056D01*
X119343146Y-105680249D01*
X119363628Y-105420000D01*
X122436372Y-105420000D01*
X122456854Y-105680249D01*
X122458008Y-105685056D01*
X122458009Y-105685062D01*
X122462086Y-105702042D01*
X122517796Y-105934089D01*
X122519689Y-105938660D01*
X122519690Y-105938662D01*
X122591048Y-106110934D01*
X122617697Y-106175271D01*
X122754097Y-106397856D01*
X122923637Y-106596363D01*
X123122144Y-106765903D01*
X123344729Y-106902303D01*
X123349299Y-106904196D01*
X123349303Y-106904198D01*
X123580590Y-107000000D01*
X123585911Y-107002204D01*
X123632854Y-107013474D01*
X123834938Y-107061991D01*
X123834944Y-107061992D01*
X123839751Y-107063146D01*
X124100000Y-107083628D01*
X124360249Y-107063146D01*
X124365056Y-107061992D01*
X124365062Y-107061991D01*
X124567146Y-107013474D01*
X124614089Y-107002204D01*
X124619410Y-107000000D01*
X124850697Y-106904198D01*
X124850701Y-106904196D01*
X124855271Y-106902303D01*
X125077856Y-106765903D01*
X125276363Y-106596363D01*
X125445903Y-106397856D01*
X125582303Y-106175271D01*
X125608953Y-106110934D01*
X125680310Y-105938662D01*
X125680311Y-105938660D01*
X125682204Y-105934089D01*
X125737914Y-105702042D01*
X125741991Y-105685062D01*
X125741992Y-105685056D01*
X125743146Y-105680249D01*
X125763628Y-105420000D01*
X141336372Y-105420000D01*
X141356854Y-105680249D01*
X141358008Y-105685056D01*
X141358009Y-105685062D01*
X141362086Y-105702042D01*
X141417796Y-105934089D01*
X141419689Y-105938660D01*
X141419690Y-105938662D01*
X141491048Y-106110934D01*
X141517697Y-106175271D01*
X141654097Y-106397856D01*
X141823637Y-106596363D01*
X142022144Y-106765903D01*
X142244729Y-106902303D01*
X142249299Y-106904196D01*
X142249303Y-106904198D01*
X142480590Y-107000000D01*
X142485911Y-107002204D01*
X142532854Y-107013474D01*
X142734938Y-107061991D01*
X142734944Y-107061992D01*
X142739751Y-107063146D01*
X143000000Y-107083628D01*
X143260249Y-107063146D01*
X143265056Y-107061992D01*
X143265062Y-107061991D01*
X143467146Y-107013474D01*
X143514089Y-107002204D01*
X143519410Y-107000000D01*
X143750697Y-106904198D01*
X143750701Y-106904196D01*
X143755271Y-106902303D01*
X143977856Y-106765903D01*
X144176363Y-106596363D01*
X144345903Y-106397856D01*
X144482303Y-106175271D01*
X144508953Y-106110934D01*
X144580310Y-105938662D01*
X144580311Y-105938660D01*
X144582204Y-105934089D01*
X144637914Y-105702042D01*
X144641991Y-105685062D01*
X144641992Y-105685056D01*
X144643146Y-105680249D01*
X144663628Y-105420000D01*
X144662054Y-105400000D01*
X150386526Y-105400000D01*
X150406391Y-105652403D01*
X150407545Y-105657210D01*
X150407546Y-105657216D01*
X150445179Y-105813968D01*
X150465495Y-105898591D01*
X150467388Y-105903162D01*
X150467389Y-105903164D01*
X150550877Y-106104721D01*
X150562384Y-106132502D01*
X150694672Y-106348376D01*
X150859102Y-106540898D01*
X151051624Y-106705328D01*
X151267498Y-106837616D01*
X151272068Y-106839509D01*
X151272072Y-106839511D01*
X151417423Y-106899717D01*
X151501409Y-106934505D01*
X151586032Y-106954821D01*
X151742784Y-106992454D01*
X151742790Y-106992455D01*
X151747597Y-106993609D01*
X152000000Y-107013474D01*
X152252403Y-106993609D01*
X152257210Y-106992455D01*
X152257216Y-106992454D01*
X152413968Y-106954821D01*
X152498591Y-106934505D01*
X152582577Y-106899717D01*
X152727928Y-106839511D01*
X152727932Y-106839509D01*
X152732502Y-106837616D01*
X152948376Y-106705328D01*
X153140898Y-106540898D01*
X153305328Y-106348376D01*
X153437616Y-106132502D01*
X153449124Y-106104721D01*
X153532611Y-105903164D01*
X153532612Y-105903162D01*
X153534505Y-105898591D01*
X153554821Y-105813968D01*
X153592454Y-105657216D01*
X153592455Y-105657210D01*
X153593609Y-105652403D01*
X153613474Y-105400000D01*
X153593609Y-105147597D01*
X153534505Y-104901409D01*
X153491389Y-104797318D01*
X153439511Y-104672072D01*
X153439509Y-104672068D01*
X153437616Y-104667498D01*
X153305328Y-104451624D01*
X153140898Y-104259102D01*
X152948376Y-104094672D01*
X152732502Y-103962384D01*
X152727932Y-103960491D01*
X152727928Y-103960489D01*
X152503164Y-103867389D01*
X152503162Y-103867388D01*
X152498591Y-103865495D01*
X152391105Y-103839690D01*
X152257216Y-103807546D01*
X152257210Y-103807545D01*
X152252403Y-103806391D01*
X152000000Y-103786526D01*
X151747597Y-103806391D01*
X151742790Y-103807545D01*
X151742784Y-103807546D01*
X151608895Y-103839690D01*
X151501409Y-103865495D01*
X151496838Y-103867388D01*
X151496836Y-103867389D01*
X151272072Y-103960489D01*
X151272068Y-103960491D01*
X151267498Y-103962384D01*
X151051624Y-104094672D01*
X150859102Y-104259102D01*
X150694672Y-104451624D01*
X150562384Y-104667498D01*
X150560491Y-104672068D01*
X150560489Y-104672072D01*
X150508611Y-104797318D01*
X150465495Y-104901409D01*
X150406391Y-105147597D01*
X150386526Y-105400000D01*
X144662054Y-105400000D01*
X144643146Y-105159751D01*
X144641992Y-105154944D01*
X144641991Y-105154938D01*
X144583359Y-104910723D01*
X144582204Y-104905911D01*
X144537304Y-104797513D01*
X144484198Y-104669303D01*
X144484196Y-104669299D01*
X144482303Y-104664729D01*
X144345903Y-104442144D01*
X144176363Y-104243637D01*
X143977856Y-104074097D01*
X143755271Y-103937697D01*
X143750701Y-103935804D01*
X143750697Y-103935802D01*
X143518662Y-103839690D01*
X143518660Y-103839689D01*
X143514089Y-103837796D01*
X143361578Y-103801181D01*
X143265062Y-103778009D01*
X143265056Y-103778008D01*
X143260249Y-103776854D01*
X143000000Y-103756372D01*
X142739751Y-103776854D01*
X142734944Y-103778008D01*
X142734938Y-103778009D01*
X142638422Y-103801181D01*
X142485911Y-103837796D01*
X142481340Y-103839689D01*
X142481338Y-103839690D01*
X142249303Y-103935802D01*
X142249299Y-103935804D01*
X142244729Y-103937697D01*
X142022144Y-104074097D01*
X141823637Y-104243637D01*
X141654097Y-104442144D01*
X141517697Y-104664729D01*
X141515804Y-104669299D01*
X141515802Y-104669303D01*
X141462696Y-104797513D01*
X141417796Y-104905911D01*
X141416641Y-104910723D01*
X141358009Y-105154938D01*
X141358008Y-105154944D01*
X141356854Y-105159751D01*
X141336372Y-105420000D01*
X125763628Y-105420000D01*
X125743146Y-105159751D01*
X125741992Y-105154944D01*
X125741991Y-105154938D01*
X125683359Y-104910723D01*
X125682204Y-104905911D01*
X125637304Y-104797513D01*
X125584198Y-104669303D01*
X125584196Y-104669299D01*
X125582303Y-104664729D01*
X125445903Y-104442144D01*
X125276363Y-104243637D01*
X125077856Y-104074097D01*
X124855271Y-103937697D01*
X124850701Y-103935804D01*
X124850697Y-103935802D01*
X124618662Y-103839690D01*
X124618660Y-103839689D01*
X124614089Y-103837796D01*
X124461578Y-103801181D01*
X124365062Y-103778009D01*
X124365056Y-103778008D01*
X124360249Y-103776854D01*
X124100000Y-103756372D01*
X123839751Y-103776854D01*
X123834944Y-103778008D01*
X123834938Y-103778009D01*
X123738422Y-103801181D01*
X123585911Y-103837796D01*
X123581340Y-103839689D01*
X123581338Y-103839690D01*
X123349303Y-103935802D01*
X123349299Y-103935804D01*
X123344729Y-103937697D01*
X123122144Y-104074097D01*
X122923637Y-104243637D01*
X122754097Y-104442144D01*
X122617697Y-104664729D01*
X122615804Y-104669299D01*
X122615802Y-104669303D01*
X122562696Y-104797513D01*
X122517796Y-104905911D01*
X122516641Y-104910723D01*
X122458009Y-105154938D01*
X122458008Y-105154944D01*
X122456854Y-105159751D01*
X122436372Y-105420000D01*
X119363628Y-105420000D01*
X119343146Y-105159751D01*
X119341992Y-105154944D01*
X119341991Y-105154938D01*
X119283359Y-104910723D01*
X119282204Y-104905911D01*
X119237304Y-104797513D01*
X119184198Y-104669303D01*
X119184196Y-104669299D01*
X119182303Y-104664729D01*
X119045903Y-104442144D01*
X118876363Y-104243637D01*
X118677856Y-104074097D01*
X118455271Y-103937697D01*
X118450701Y-103935804D01*
X118450697Y-103935802D01*
X118218662Y-103839690D01*
X118218660Y-103839689D01*
X118214089Y-103837796D01*
X118061578Y-103801181D01*
X117965062Y-103778009D01*
X117965056Y-103778008D01*
X117960249Y-103776854D01*
X117700000Y-103756372D01*
X117439751Y-103776854D01*
X117434944Y-103778008D01*
X117434938Y-103778009D01*
X117338422Y-103801181D01*
X117185911Y-103837796D01*
X117181340Y-103839689D01*
X117181338Y-103839690D01*
X116949303Y-103935802D01*
X116949299Y-103935804D01*
X116944729Y-103937697D01*
X116722144Y-104074097D01*
X116523637Y-104243637D01*
X116354097Y-104442144D01*
X116217697Y-104664729D01*
X116215804Y-104669299D01*
X116215802Y-104669303D01*
X116162696Y-104797513D01*
X116117796Y-104905911D01*
X116116641Y-104910723D01*
X116058009Y-105154938D01*
X116058008Y-105154944D01*
X116056854Y-105159751D01*
X116036372Y-105420000D01*
X101000000Y-105420000D01*
X101000000Y-103323411D01*
X104687977Y-103323411D01*
X104696945Y-103562274D01*
X104746030Y-103796211D01*
X104833829Y-104018533D01*
X104957832Y-104222883D01*
X104961329Y-104226913D01*
X105051090Y-104330353D01*
X105114493Y-104403419D01*
X105118619Y-104406802D01*
X105118623Y-104406806D01*
X105217629Y-104487985D01*
X105299333Y-104554978D01*
X105303969Y-104557617D01*
X105303972Y-104557619D01*
X105417386Y-104622178D01*
X105507066Y-104673227D01*
X105731753Y-104754784D01*
X105737002Y-104755733D01*
X105737005Y-104755734D01*
X105962885Y-104796580D01*
X105962893Y-104796581D01*
X105966969Y-104797318D01*
X105985359Y-104798185D01*
X105990544Y-104798430D01*
X105990551Y-104798430D01*
X105992032Y-104798500D01*
X107960012Y-104798500D01*
X108138175Y-104783383D01*
X108143339Y-104782043D01*
X108143343Y-104782042D01*
X108364375Y-104724673D01*
X108364380Y-104724671D01*
X108369540Y-104723332D01*
X108509002Y-104660509D01*
X108582619Y-104627347D01*
X108582622Y-104627346D01*
X108587480Y-104625157D01*
X108785762Y-104491666D01*
X108823320Y-104455838D01*
X108954861Y-104330353D01*
X108958718Y-104326674D01*
X109006199Y-104262858D01*
X109098216Y-104139182D01*
X109101402Y-104134900D01*
X109120223Y-104097883D01*
X109207314Y-103926586D01*
X109207314Y-103926585D01*
X109209733Y-103921828D01*
X109251625Y-103786914D01*
X109279032Y-103698651D01*
X109279033Y-103698645D01*
X109280616Y-103693548D01*
X109312023Y-103456589D01*
X109303055Y-103217726D01*
X109253970Y-102983789D01*
X109166171Y-102761467D01*
X109042168Y-102557117D01*
X108952103Y-102453326D01*
X108889007Y-102380614D01*
X108889005Y-102380612D01*
X108885507Y-102376581D01*
X108881381Y-102373198D01*
X108881377Y-102373194D01*
X108704795Y-102228407D01*
X108700667Y-102225022D01*
X108696031Y-102222383D01*
X108696028Y-102222381D01*
X108497577Y-102109416D01*
X108492934Y-102106773D01*
X108268247Y-102025216D01*
X108262998Y-102024267D01*
X108262995Y-102024266D01*
X108037115Y-101983420D01*
X108037107Y-101983419D01*
X108033031Y-101982682D01*
X108014641Y-101981815D01*
X108009456Y-101981570D01*
X108009449Y-101981570D01*
X108007968Y-101981500D01*
X106039988Y-101981500D01*
X105861825Y-101996617D01*
X105856661Y-101997957D01*
X105856657Y-101997958D01*
X105635625Y-102055327D01*
X105635620Y-102055329D01*
X105630460Y-102056668D01*
X105625594Y-102058860D01*
X105417381Y-102152653D01*
X105417378Y-102152654D01*
X105412520Y-102154843D01*
X105214238Y-102288334D01*
X105041282Y-102453326D01*
X104898598Y-102645100D01*
X104790267Y-102858172D01*
X104754826Y-102972312D01*
X104720968Y-103081349D01*
X104720967Y-103081355D01*
X104719384Y-103086452D01*
X104687977Y-103323411D01*
X101000000Y-103323411D01*
X101000000Y-99513411D01*
X104687977Y-99513411D01*
X104696945Y-99752274D01*
X104746030Y-99986211D01*
X104833829Y-100208533D01*
X104957832Y-100412883D01*
X104961329Y-100416913D01*
X105051090Y-100520353D01*
X105114493Y-100593419D01*
X105118619Y-100596802D01*
X105118623Y-100596806D01*
X105217629Y-100677985D01*
X105299333Y-100744978D01*
X105303969Y-100747617D01*
X105303972Y-100747619D01*
X105417386Y-100812178D01*
X105507066Y-100863227D01*
X105731753Y-100944784D01*
X105737002Y-100945733D01*
X105737005Y-100945734D01*
X105962885Y-100986580D01*
X105962893Y-100986581D01*
X105966969Y-100987318D01*
X105985359Y-100988185D01*
X105990544Y-100988430D01*
X105990551Y-100988430D01*
X105992032Y-100988500D01*
X107960012Y-100988500D01*
X108138175Y-100973383D01*
X108143339Y-100972043D01*
X108143343Y-100972042D01*
X108364375Y-100914673D01*
X108364380Y-100914671D01*
X108369540Y-100913332D01*
X108486636Y-100860584D01*
X108582619Y-100817347D01*
X108582622Y-100817346D01*
X108587480Y-100815157D01*
X108785762Y-100681666D01*
X108958718Y-100516674D01*
X109101402Y-100324900D01*
X109209733Y-100111828D01*
X109250361Y-99980984D01*
X109279032Y-99888651D01*
X109279033Y-99888645D01*
X109280616Y-99883548D01*
X109312023Y-99646589D01*
X109303055Y-99407726D01*
X109253970Y-99173789D01*
X109166171Y-98951467D01*
X109042168Y-98747117D01*
X108952103Y-98643326D01*
X108889007Y-98570614D01*
X108889005Y-98570612D01*
X108885507Y-98566581D01*
X108881381Y-98563198D01*
X108881377Y-98563194D01*
X108704795Y-98418407D01*
X108700667Y-98415022D01*
X108696031Y-98412383D01*
X108696028Y-98412381D01*
X108497577Y-98299416D01*
X108492934Y-98296773D01*
X108268247Y-98215216D01*
X108262998Y-98214267D01*
X108262995Y-98214266D01*
X108037115Y-98173420D01*
X108037107Y-98173419D01*
X108033031Y-98172682D01*
X108014641Y-98171815D01*
X108009456Y-98171570D01*
X108009449Y-98171570D01*
X108007968Y-98171500D01*
X106039988Y-98171500D01*
X105861825Y-98186617D01*
X105856661Y-98187957D01*
X105856657Y-98187958D01*
X105635625Y-98245327D01*
X105635620Y-98245329D01*
X105630460Y-98246668D01*
X105625594Y-98248860D01*
X105417381Y-98342653D01*
X105417378Y-98342654D01*
X105412520Y-98344843D01*
X105214238Y-98478334D01*
X105041282Y-98643326D01*
X104898598Y-98835100D01*
X104896182Y-98839851D01*
X104896180Y-98839855D01*
X104792686Y-99043414D01*
X104790267Y-99048172D01*
X104760919Y-99142687D01*
X104720968Y-99271349D01*
X104720967Y-99271355D01*
X104719384Y-99276452D01*
X104705315Y-99382598D01*
X104697239Y-99443534D01*
X104687977Y-99513411D01*
X101000000Y-99513411D01*
X101000000Y-97800000D01*
X119236372Y-97800000D01*
X119256854Y-98060249D01*
X119258008Y-98065056D01*
X119258009Y-98065062D01*
X119283563Y-98171500D01*
X119317796Y-98314089D01*
X119319689Y-98318660D01*
X119319690Y-98318662D01*
X119385829Y-98478334D01*
X119417697Y-98555271D01*
X119554097Y-98777856D01*
X119723637Y-98976363D01*
X119922144Y-99145903D01*
X120144729Y-99282303D01*
X120149299Y-99284196D01*
X120149303Y-99284198D01*
X120381338Y-99380310D01*
X120385911Y-99382204D01*
X120410599Y-99388131D01*
X120634938Y-99441991D01*
X120634944Y-99441992D01*
X120639751Y-99443146D01*
X120900000Y-99463628D01*
X121160249Y-99443146D01*
X121165056Y-99441992D01*
X121165062Y-99441991D01*
X121389401Y-99388131D01*
X121414089Y-99382204D01*
X121418662Y-99380310D01*
X121650697Y-99284198D01*
X121650701Y-99284196D01*
X121655271Y-99282303D01*
X121877856Y-99145903D01*
X122076363Y-98976363D01*
X122245903Y-98777856D01*
X122382303Y-98555271D01*
X122414172Y-98478334D01*
X122480310Y-98318662D01*
X122480311Y-98318660D01*
X122482204Y-98314089D01*
X122516437Y-98171500D01*
X122541991Y-98065062D01*
X122541992Y-98065056D01*
X122543146Y-98060249D01*
X122563628Y-97800000D01*
X141336372Y-97800000D01*
X141356854Y-98060249D01*
X141358008Y-98065056D01*
X141358009Y-98065062D01*
X141383563Y-98171500D01*
X141417796Y-98314089D01*
X141419689Y-98318660D01*
X141419690Y-98318662D01*
X141485829Y-98478334D01*
X141517697Y-98555271D01*
X141654097Y-98777856D01*
X141823637Y-98976363D01*
X142022144Y-99145903D01*
X142244729Y-99282303D01*
X142249299Y-99284196D01*
X142249303Y-99284198D01*
X142481338Y-99380310D01*
X142485911Y-99382204D01*
X142510599Y-99388131D01*
X142734938Y-99441991D01*
X142734944Y-99441992D01*
X142739751Y-99443146D01*
X143000000Y-99463628D01*
X143260249Y-99443146D01*
X143265056Y-99441992D01*
X143265062Y-99441991D01*
X143489401Y-99388131D01*
X143514089Y-99382204D01*
X143518662Y-99380310D01*
X143750697Y-99284198D01*
X143750701Y-99284196D01*
X143755271Y-99282303D01*
X143977856Y-99145903D01*
X144176363Y-98976363D01*
X144217554Y-98928134D01*
X150391500Y-98928134D01*
X150398255Y-98990316D01*
X150449385Y-99126705D01*
X150536739Y-99243261D01*
X150653295Y-99330615D01*
X150789684Y-99381745D01*
X150851866Y-99388500D01*
X153148134Y-99388500D01*
X153210316Y-99381745D01*
X153346705Y-99330615D01*
X153463261Y-99243261D01*
X153550615Y-99126705D01*
X153601745Y-98990316D01*
X153608500Y-98928134D01*
X153608500Y-96631866D01*
X153601745Y-96569684D01*
X153550615Y-96433295D01*
X153463261Y-96316739D01*
X153346705Y-96229385D01*
X153210316Y-96178255D01*
X153148134Y-96171500D01*
X150851866Y-96171500D01*
X150789684Y-96178255D01*
X150653295Y-96229385D01*
X150536739Y-96316739D01*
X150449385Y-96433295D01*
X150398255Y-96569684D01*
X150391500Y-96631866D01*
X150391500Y-98928134D01*
X144217554Y-98928134D01*
X144345903Y-98777856D01*
X144482303Y-98555271D01*
X144514172Y-98478334D01*
X144580310Y-98318662D01*
X144580311Y-98318660D01*
X144582204Y-98314089D01*
X144616437Y-98171500D01*
X144641991Y-98065062D01*
X144641992Y-98065056D01*
X144643146Y-98060249D01*
X144663628Y-97800000D01*
X144643146Y-97539751D01*
X144641992Y-97534944D01*
X144641991Y-97534938D01*
X144583359Y-97290723D01*
X144582204Y-97285911D01*
X144537577Y-97178172D01*
X144484198Y-97049303D01*
X144484196Y-97049299D01*
X144482303Y-97044729D01*
X144345903Y-96822144D01*
X144176363Y-96623637D01*
X143977856Y-96454097D01*
X143755271Y-96317697D01*
X143750701Y-96315804D01*
X143750697Y-96315802D01*
X143518662Y-96219690D01*
X143518660Y-96219689D01*
X143514089Y-96217796D01*
X143425069Y-96196424D01*
X143265062Y-96158009D01*
X143265056Y-96158008D01*
X143260249Y-96156854D01*
X143000000Y-96136372D01*
X142739751Y-96156854D01*
X142734944Y-96158008D01*
X142734938Y-96158009D01*
X142574931Y-96196424D01*
X142485911Y-96217796D01*
X142481340Y-96219689D01*
X142481338Y-96219690D01*
X142249303Y-96315802D01*
X142249299Y-96315804D01*
X142244729Y-96317697D01*
X142022144Y-96454097D01*
X141823637Y-96623637D01*
X141654097Y-96822144D01*
X141517697Y-97044729D01*
X141515804Y-97049299D01*
X141515802Y-97049303D01*
X141462423Y-97178172D01*
X141417796Y-97285911D01*
X141416641Y-97290723D01*
X141358009Y-97534938D01*
X141358008Y-97534944D01*
X141356854Y-97539751D01*
X141336372Y-97800000D01*
X122563628Y-97800000D01*
X122543146Y-97539751D01*
X122541992Y-97534944D01*
X122541991Y-97534938D01*
X122483359Y-97290723D01*
X122482204Y-97285911D01*
X122437577Y-97178172D01*
X122384198Y-97049303D01*
X122384196Y-97049299D01*
X122382303Y-97044729D01*
X122245903Y-96822144D01*
X122076363Y-96623637D01*
X121877856Y-96454097D01*
X121655271Y-96317697D01*
X121650701Y-96315804D01*
X121650697Y-96315802D01*
X121418662Y-96219690D01*
X121418660Y-96219689D01*
X121414089Y-96217796D01*
X121325069Y-96196424D01*
X121165062Y-96158009D01*
X121165056Y-96158008D01*
X121160249Y-96156854D01*
X120900000Y-96136372D01*
X120639751Y-96156854D01*
X120634944Y-96158008D01*
X120634938Y-96158009D01*
X120474931Y-96196424D01*
X120385911Y-96217796D01*
X120381340Y-96219689D01*
X120381338Y-96219690D01*
X120149303Y-96315802D01*
X120149299Y-96315804D01*
X120144729Y-96317697D01*
X119922144Y-96454097D01*
X119723637Y-96623637D01*
X119554097Y-96822144D01*
X119417697Y-97044729D01*
X119415804Y-97049299D01*
X119415802Y-97049303D01*
X119362423Y-97178172D01*
X119317796Y-97285911D01*
X119316641Y-97290723D01*
X119258009Y-97534938D01*
X119258008Y-97534944D01*
X119256854Y-97539751D01*
X119236372Y-97800000D01*
X101000000Y-97800000D01*
X101000000Y-96470400D01*
X104691500Y-96470400D01*
X104691837Y-96473646D01*
X104691837Y-96473650D01*
X104701034Y-96562285D01*
X104702474Y-96576166D01*
X104704655Y-96582702D01*
X104704655Y-96582704D01*
X104719567Y-96627399D01*
X104758450Y-96743946D01*
X104851522Y-96894348D01*
X104976697Y-97019305D01*
X104982927Y-97023145D01*
X104982928Y-97023146D01*
X105120090Y-97107694D01*
X105127262Y-97112115D01*
X105207005Y-97138564D01*
X105288611Y-97165632D01*
X105288613Y-97165632D01*
X105295139Y-97167797D01*
X105301975Y-97168497D01*
X105301978Y-97168498D01*
X105345031Y-97172909D01*
X105399600Y-97178500D01*
X108600400Y-97178500D01*
X108603646Y-97178163D01*
X108603650Y-97178163D01*
X108699308Y-97168238D01*
X108699312Y-97168237D01*
X108706166Y-97167526D01*
X108712702Y-97165345D01*
X108712704Y-97165345D01*
X108844806Y-97121272D01*
X108873946Y-97111550D01*
X109024348Y-97018478D01*
X109149305Y-96893303D01*
X109242115Y-96742738D01*
X109297797Y-96574861D01*
X109308500Y-96470400D01*
X109308500Y-95069600D01*
X109297526Y-94963834D01*
X109241550Y-94796054D01*
X109148478Y-94645652D01*
X109023303Y-94520695D01*
X109017072Y-94516854D01*
X108878968Y-94431725D01*
X108878966Y-94431724D01*
X108872738Y-94427885D01*
X108712254Y-94374655D01*
X108711389Y-94374368D01*
X108711387Y-94374368D01*
X108704861Y-94372203D01*
X108698025Y-94371503D01*
X108698022Y-94371502D01*
X108654969Y-94367091D01*
X108600400Y-94361500D01*
X105399600Y-94361500D01*
X105396354Y-94361837D01*
X105396350Y-94361837D01*
X105300692Y-94371762D01*
X105300688Y-94371763D01*
X105293834Y-94372474D01*
X105287298Y-94374655D01*
X105287296Y-94374655D01*
X105155194Y-94418728D01*
X105126054Y-94428450D01*
X104975652Y-94521522D01*
X104850695Y-94646697D01*
X104757885Y-94797262D01*
X104702203Y-94965139D01*
X104691500Y-95069600D01*
X104691500Y-96470400D01*
X101000000Y-96470400D01*
X101000000Y-90278739D01*
X115221856Y-90278739D01*
X115227137Y-90285794D01*
X115345192Y-90354780D01*
X115354475Y-90359227D01*
X115575248Y-90443532D01*
X115585150Y-90446409D01*
X115816709Y-90493520D01*
X115826962Y-90494743D01*
X116063114Y-90503403D01*
X116073400Y-90502936D01*
X116307805Y-90472907D01*
X116317890Y-90470764D01*
X116544248Y-90402853D01*
X116553825Y-90399100D01*
X116766058Y-90295128D01*
X116772350Y-90291378D01*
X116780217Y-90281359D01*
X116778825Y-90278739D01*
X127221856Y-90278739D01*
X127227137Y-90285794D01*
X127345192Y-90354780D01*
X127354475Y-90359227D01*
X127575248Y-90443532D01*
X127585150Y-90446409D01*
X127816709Y-90493520D01*
X127826962Y-90494743D01*
X128063114Y-90503403D01*
X128073400Y-90502936D01*
X128307805Y-90472907D01*
X128317890Y-90470764D01*
X128544248Y-90402853D01*
X128553825Y-90399100D01*
X128766058Y-90295128D01*
X128772350Y-90291378D01*
X128780217Y-90281359D01*
X128773229Y-90268204D01*
X128012812Y-89507787D01*
X127998868Y-89500173D01*
X127997035Y-89500304D01*
X127990420Y-89504555D01*
X127228616Y-90266359D01*
X127221856Y-90278739D01*
X116778825Y-90278739D01*
X116773229Y-90268204D01*
X116012812Y-89507787D01*
X115998868Y-89500173D01*
X115997035Y-89500304D01*
X115990420Y-89504555D01*
X115228616Y-90266359D01*
X115221856Y-90278739D01*
X101000000Y-90278739D01*
X101000000Y-88968382D01*
X114495605Y-88968382D01*
X114509209Y-89204306D01*
X114510645Y-89214527D01*
X114562598Y-89445057D01*
X114565677Y-89454885D01*
X114654585Y-89673839D01*
X114659238Y-89683050D01*
X114711606Y-89768506D01*
X114722064Y-89777968D01*
X114730840Y-89774185D01*
X115492213Y-89012812D01*
X115498591Y-89001132D01*
X116500173Y-89001132D01*
X116500304Y-89002965D01*
X116504555Y-89009580D01*
X117268993Y-89774018D01*
X117281003Y-89780576D01*
X117291047Y-89772902D01*
X117292449Y-89770569D01*
X117397151Y-89558720D01*
X117400950Y-89549125D01*
X117469645Y-89323026D01*
X117471824Y-89312945D01*
X117502907Y-89076848D01*
X117503426Y-89070174D01*
X117505059Y-89003365D01*
X117504865Y-88996647D01*
X117502541Y-88968382D01*
X126495605Y-88968382D01*
X126509209Y-89204306D01*
X126510645Y-89214527D01*
X126562598Y-89445057D01*
X126565677Y-89454885D01*
X126654585Y-89673839D01*
X126659238Y-89683050D01*
X126711606Y-89768506D01*
X126722064Y-89777968D01*
X126730840Y-89774185D01*
X127492213Y-89012812D01*
X127498591Y-89001132D01*
X128500173Y-89001132D01*
X128500304Y-89002965D01*
X128504555Y-89009580D01*
X129268993Y-89774018D01*
X129281003Y-89780576D01*
X129291047Y-89772902D01*
X129292449Y-89770569D01*
X129397151Y-89558720D01*
X129400950Y-89549125D01*
X129469645Y-89323026D01*
X129471824Y-89312945D01*
X129502907Y-89076848D01*
X129503426Y-89070174D01*
X129505059Y-89003365D01*
X129504962Y-89000000D01*
X143196693Y-89000000D01*
X143215885Y-89219371D01*
X143272880Y-89432076D01*
X143308185Y-89507787D01*
X143363618Y-89626666D01*
X143363621Y-89626671D01*
X143365944Y-89631653D01*
X143369100Y-89636160D01*
X143369101Y-89636162D01*
X143485958Y-89803050D01*
X143492251Y-89812038D01*
X143647962Y-89967749D01*
X143828346Y-90094056D01*
X144027924Y-90187120D01*
X144240629Y-90244115D01*
X144460000Y-90263307D01*
X144679371Y-90244115D01*
X144892076Y-90187120D01*
X145091654Y-90094056D01*
X145272038Y-89967749D01*
X145427749Y-89812038D01*
X145434043Y-89803050D01*
X145550899Y-89636162D01*
X145550900Y-89636160D01*
X145554056Y-89631653D01*
X145556379Y-89626671D01*
X145556382Y-89626666D01*
X145611815Y-89507787D01*
X145615805Y-89499231D01*
X145662722Y-89445946D01*
X145730999Y-89426485D01*
X145798959Y-89447027D01*
X145844195Y-89499230D01*
X145848185Y-89507787D01*
X145903618Y-89626666D01*
X145903621Y-89626671D01*
X145905944Y-89631653D01*
X145909100Y-89636160D01*
X145909101Y-89636162D01*
X146025958Y-89803050D01*
X146032251Y-89812038D01*
X146187962Y-89967749D01*
X146368346Y-90094056D01*
X146567924Y-90187120D01*
X146780629Y-90244115D01*
X147000000Y-90263307D01*
X147219371Y-90244115D01*
X147432076Y-90187120D01*
X147631654Y-90094056D01*
X147812038Y-89967749D01*
X147902934Y-89876853D01*
X147965246Y-89842827D01*
X148036061Y-89847892D01*
X148092897Y-89890439D01*
X148112263Y-89928269D01*
X148145060Y-90032927D01*
X148151266Y-90046671D01*
X148231166Y-90178601D01*
X148240473Y-90190470D01*
X148349530Y-90299527D01*
X148361399Y-90308834D01*
X148493329Y-90388734D01*
X148507073Y-90394940D01*
X148655112Y-90441332D01*
X148668162Y-90443945D01*
X148731162Y-90449734D01*
X148736950Y-90450000D01*
X149171885Y-90450000D01*
X149187124Y-90445525D01*
X149188329Y-90444135D01*
X149190000Y-90436452D01*
X149190000Y-90431885D01*
X149890000Y-90431885D01*
X149894475Y-90447124D01*
X149895865Y-90448329D01*
X149903548Y-90450000D01*
X150343050Y-90450000D01*
X150348838Y-90449734D01*
X150411838Y-90443945D01*
X150424888Y-90441332D01*
X150572927Y-90394940D01*
X150586671Y-90388734D01*
X150718601Y-90308834D01*
X150730470Y-90299527D01*
X150839527Y-90190470D01*
X150848834Y-90178601D01*
X150928734Y-90046671D01*
X150934940Y-90032927D01*
X150981332Y-89884888D01*
X150983945Y-89871838D01*
X150989734Y-89808838D01*
X150990000Y-89803050D01*
X150990000Y-89368115D01*
X150985525Y-89352876D01*
X150984135Y-89351671D01*
X150976452Y-89350000D01*
X149908115Y-89350000D01*
X149892876Y-89354475D01*
X149891671Y-89355865D01*
X149890000Y-89363548D01*
X149890000Y-90431885D01*
X149190000Y-90431885D01*
X149190000Y-88631885D01*
X149890000Y-88631885D01*
X149894475Y-88647124D01*
X149895865Y-88648329D01*
X149903548Y-88650000D01*
X150971885Y-88650000D01*
X150987124Y-88645525D01*
X150988329Y-88644135D01*
X150990000Y-88636452D01*
X150990000Y-88196950D01*
X150989734Y-88191162D01*
X150983945Y-88128162D01*
X150981332Y-88115112D01*
X150934940Y-87967073D01*
X150928734Y-87953329D01*
X150848834Y-87821399D01*
X150839527Y-87809530D01*
X150730470Y-87700473D01*
X150718601Y-87691166D01*
X150586671Y-87611266D01*
X150572927Y-87605060D01*
X150424888Y-87558668D01*
X150411838Y-87556055D01*
X150348838Y-87550266D01*
X150343050Y-87550000D01*
X149908115Y-87550000D01*
X149892876Y-87554475D01*
X149891671Y-87555865D01*
X149890000Y-87563548D01*
X149890000Y-88631885D01*
X149190000Y-88631885D01*
X149190000Y-87568115D01*
X149185525Y-87552876D01*
X149184135Y-87551671D01*
X149176452Y-87550000D01*
X148736950Y-87550000D01*
X148731162Y-87550266D01*
X148668162Y-87556055D01*
X148655112Y-87558668D01*
X148507073Y-87605060D01*
X148493329Y-87611266D01*
X148361399Y-87691166D01*
X148349530Y-87700473D01*
X148240473Y-87809530D01*
X148231166Y-87821399D01*
X148151266Y-87953329D01*
X148145060Y-87967073D01*
X148112263Y-88071731D01*
X148072806Y-88130753D01*
X148007703Y-88159073D01*
X147937623Y-88147700D01*
X147902934Y-88123147D01*
X147812038Y-88032251D01*
X147776675Y-88007489D01*
X147647853Y-87917287D01*
X147631654Y-87905944D01*
X147432076Y-87812880D01*
X147219371Y-87755885D01*
X147000000Y-87736693D01*
X146780629Y-87755885D01*
X146567924Y-87812880D01*
X146540599Y-87825622D01*
X146373334Y-87903618D01*
X146373329Y-87903621D01*
X146368347Y-87905944D01*
X146363840Y-87909100D01*
X146363838Y-87909101D01*
X146192473Y-88029092D01*
X146192470Y-88029094D01*
X146187962Y-88032251D01*
X146032251Y-88187962D01*
X146029094Y-88192470D01*
X146029092Y-88192473D01*
X145936491Y-88324721D01*
X145905944Y-88368347D01*
X145903621Y-88373329D01*
X145903618Y-88373334D01*
X145860728Y-88465313D01*
X145846678Y-88495445D01*
X145844195Y-88500769D01*
X145797278Y-88554054D01*
X145729001Y-88573515D01*
X145661041Y-88552973D01*
X145615805Y-88500769D01*
X145613323Y-88495445D01*
X145599272Y-88465313D01*
X145556382Y-88373334D01*
X145556379Y-88373329D01*
X145554056Y-88368347D01*
X145523509Y-88324721D01*
X145430908Y-88192473D01*
X145430906Y-88192470D01*
X145427749Y-88187962D01*
X145272038Y-88032251D01*
X145236675Y-88007489D01*
X145107853Y-87917287D01*
X145091654Y-87905944D01*
X144892076Y-87812880D01*
X144679371Y-87755885D01*
X144460000Y-87736693D01*
X144240629Y-87755885D01*
X144027924Y-87812880D01*
X144000599Y-87825622D01*
X143833334Y-87903618D01*
X143833329Y-87903621D01*
X143828347Y-87905944D01*
X143823840Y-87909100D01*
X143823838Y-87909101D01*
X143652473Y-88029092D01*
X143652470Y-88029094D01*
X143647962Y-88032251D01*
X143492251Y-88187962D01*
X143489094Y-88192470D01*
X143489092Y-88192473D01*
X143396491Y-88324721D01*
X143365944Y-88368347D01*
X143363621Y-88373329D01*
X143363618Y-88373334D01*
X143318316Y-88470485D01*
X143272880Y-88567924D01*
X143215885Y-88780629D01*
X143196693Y-89000000D01*
X129504962Y-89000000D01*
X129504865Y-88996647D01*
X129485354Y-88759322D01*
X129483671Y-88749160D01*
X129426100Y-88519956D01*
X129422782Y-88510209D01*
X129328546Y-88293481D01*
X129323679Y-88284405D01*
X129289089Y-88230936D01*
X129278403Y-88221734D01*
X129268838Y-88226137D01*
X128507787Y-88987188D01*
X128500173Y-89001132D01*
X127498591Y-89001132D01*
X127499827Y-88998868D01*
X127499696Y-88997035D01*
X127495445Y-88990420D01*
X126732602Y-88227577D01*
X126721066Y-88221277D01*
X126708784Y-88230900D01*
X126694201Y-88252277D01*
X126689112Y-88261236D01*
X126589611Y-88475593D01*
X126586054Y-88485261D01*
X126522901Y-88712982D01*
X126520970Y-88723102D01*
X126495857Y-88958093D01*
X126495605Y-88968382D01*
X117502541Y-88968382D01*
X117485354Y-88759322D01*
X117483671Y-88749160D01*
X117426100Y-88519956D01*
X117422782Y-88510209D01*
X117328546Y-88293481D01*
X117323679Y-88284405D01*
X117289089Y-88230936D01*
X117278403Y-88221734D01*
X117268838Y-88226137D01*
X116507787Y-88987188D01*
X116500173Y-89001132D01*
X115498591Y-89001132D01*
X115499827Y-88998868D01*
X115499696Y-88997035D01*
X115495445Y-88990420D01*
X114732602Y-88227577D01*
X114721066Y-88221277D01*
X114708784Y-88230900D01*
X114694201Y-88252277D01*
X114689112Y-88261236D01*
X114589611Y-88475593D01*
X114586054Y-88485261D01*
X114522901Y-88712982D01*
X114520970Y-88723102D01*
X114495857Y-88958093D01*
X114495605Y-88968382D01*
X101000000Y-88968382D01*
X101000000Y-87719760D01*
X115219230Y-87719760D01*
X115221656Y-87726681D01*
X115987188Y-88492213D01*
X116001132Y-88499827D01*
X116002965Y-88499696D01*
X116009580Y-88495445D01*
X116772284Y-87732741D01*
X116779044Y-87720361D01*
X116778594Y-87719760D01*
X127219230Y-87719760D01*
X127221656Y-87726681D01*
X127987188Y-88492213D01*
X128001132Y-88499827D01*
X128002965Y-88499696D01*
X128009580Y-88495445D01*
X128772284Y-87732741D01*
X128779044Y-87720361D01*
X128774230Y-87713931D01*
X128621518Y-87629630D01*
X128612119Y-87625405D01*
X128389357Y-87546520D01*
X128379386Y-87543886D01*
X128146736Y-87502446D01*
X128136482Y-87501476D01*
X127900177Y-87498588D01*
X127889893Y-87499308D01*
X127656300Y-87535053D01*
X127646272Y-87537442D01*
X127421653Y-87610858D01*
X127412144Y-87614855D01*
X127229398Y-87709988D01*
X127219230Y-87719760D01*
X116778594Y-87719760D01*
X116774230Y-87713931D01*
X116621518Y-87629630D01*
X116612119Y-87625405D01*
X116389357Y-87546520D01*
X116379386Y-87543886D01*
X116146736Y-87502446D01*
X116136482Y-87501476D01*
X115900177Y-87498588D01*
X115889893Y-87499308D01*
X115656300Y-87535053D01*
X115646272Y-87537442D01*
X115421653Y-87610858D01*
X115412144Y-87614855D01*
X115229398Y-87709988D01*
X115219230Y-87719760D01*
X101000000Y-87719760D01*
X101000000Y-84848134D01*
X114691500Y-84848134D01*
X114698255Y-84910316D01*
X114749385Y-85046705D01*
X114836739Y-85163261D01*
X114953295Y-85250615D01*
X115089684Y-85301745D01*
X115151866Y-85308500D01*
X116848134Y-85308500D01*
X116910316Y-85301745D01*
X117046705Y-85250615D01*
X117163261Y-85163261D01*
X117250615Y-85046705D01*
X117301745Y-84910316D01*
X117308500Y-84848134D01*
X126691500Y-84848134D01*
X126698255Y-84910316D01*
X126749385Y-85046705D01*
X126836739Y-85163261D01*
X126953295Y-85250615D01*
X127089684Y-85301745D01*
X127151866Y-85308500D01*
X128848134Y-85308500D01*
X128910316Y-85301745D01*
X129046705Y-85250615D01*
X129163261Y-85163261D01*
X129250615Y-85046705D01*
X129301745Y-84910316D01*
X129308500Y-84848134D01*
X129308500Y-83483966D01*
X138544323Y-83483966D01*
X138562596Y-83565050D01*
X138565679Y-83574890D01*
X138654588Y-83793847D01*
X138659231Y-83803038D01*
X138782713Y-84004542D01*
X138788796Y-84012853D01*
X138943520Y-84191470D01*
X138950887Y-84198685D01*
X139132712Y-84349639D01*
X139141144Y-84355544D01*
X139345192Y-84474780D01*
X139354475Y-84479227D01*
X139575248Y-84563532D01*
X139585150Y-84566409D01*
X139632248Y-84575991D01*
X139646299Y-84574796D01*
X139650000Y-84564450D01*
X139650000Y-84563015D01*
X140350000Y-84563015D01*
X140353973Y-84576546D01*
X140361617Y-84577645D01*
X140544248Y-84522853D01*
X140553825Y-84519100D01*
X140766055Y-84415130D01*
X140774903Y-84409856D01*
X140967302Y-84272619D01*
X140975164Y-84265975D01*
X141142562Y-84099160D01*
X141149239Y-84091315D01*
X141287140Y-83899404D01*
X141292451Y-83890566D01*
X141397152Y-83678718D01*
X141400948Y-83669134D01*
X141456183Y-83487331D01*
X141456315Y-83473233D01*
X141449409Y-83470000D01*
X140368115Y-83470000D01*
X140352876Y-83474475D01*
X140351671Y-83475865D01*
X140350000Y-83483548D01*
X140350000Y-84563015D01*
X139650000Y-84563015D01*
X139650000Y-83488115D01*
X139645525Y-83472876D01*
X139644135Y-83471671D01*
X139636452Y-83470000D01*
X138559291Y-83470000D01*
X138545760Y-83473973D01*
X138544323Y-83483966D01*
X129308500Y-83483966D01*
X129308500Y-83151866D01*
X129305038Y-83120000D01*
X145686502Y-83120000D01*
X145706457Y-83348087D01*
X145707881Y-83353400D01*
X145707881Y-83353402D01*
X145743978Y-83488115D01*
X145765716Y-83569243D01*
X145768039Y-83574224D01*
X145768039Y-83574225D01*
X145860151Y-83771762D01*
X145860154Y-83771767D01*
X145862477Y-83776749D01*
X145993802Y-83964300D01*
X146155700Y-84126198D01*
X146160208Y-84129355D01*
X146160211Y-84129357D01*
X146238389Y-84184098D01*
X146343251Y-84257523D01*
X146348233Y-84259846D01*
X146348238Y-84259849D01*
X146545775Y-84351961D01*
X146550757Y-84354284D01*
X146556065Y-84355706D01*
X146556067Y-84355707D01*
X146766598Y-84412119D01*
X146766600Y-84412119D01*
X146771913Y-84413543D01*
X147000000Y-84433498D01*
X147228087Y-84413543D01*
X147233400Y-84412119D01*
X147233402Y-84412119D01*
X147443933Y-84355707D01*
X147443935Y-84355706D01*
X147449243Y-84354284D01*
X147454225Y-84351961D01*
X147651762Y-84259849D01*
X147651767Y-84259846D01*
X147656749Y-84257523D01*
X147761611Y-84184098D01*
X147839789Y-84129357D01*
X147839792Y-84129355D01*
X147844300Y-84126198D01*
X148006198Y-83964300D01*
X148137523Y-83776749D01*
X148139846Y-83771767D01*
X148139849Y-83771762D01*
X148231961Y-83574225D01*
X148231961Y-83574224D01*
X148234284Y-83569243D01*
X148256023Y-83488115D01*
X148257135Y-83483966D01*
X152544323Y-83483966D01*
X152562596Y-83565050D01*
X152565679Y-83574890D01*
X152654588Y-83793847D01*
X152659231Y-83803038D01*
X152782713Y-84004542D01*
X152788796Y-84012853D01*
X152943520Y-84191470D01*
X152950887Y-84198685D01*
X153132712Y-84349639D01*
X153141144Y-84355544D01*
X153345192Y-84474780D01*
X153354475Y-84479227D01*
X153575248Y-84563532D01*
X153585150Y-84566409D01*
X153632248Y-84575991D01*
X153646299Y-84574796D01*
X153650000Y-84564450D01*
X153650000Y-84563015D01*
X154350000Y-84563015D01*
X154353973Y-84576546D01*
X154361617Y-84577645D01*
X154544248Y-84522853D01*
X154553825Y-84519100D01*
X154766055Y-84415130D01*
X154774903Y-84409856D01*
X154967302Y-84272619D01*
X154975164Y-84265975D01*
X155142562Y-84099160D01*
X155149239Y-84091315D01*
X155287140Y-83899404D01*
X155292451Y-83890566D01*
X155397152Y-83678718D01*
X155400948Y-83669134D01*
X155456183Y-83487331D01*
X155456315Y-83473233D01*
X155449409Y-83470000D01*
X154368115Y-83470000D01*
X154352876Y-83474475D01*
X154351671Y-83475865D01*
X154350000Y-83483548D01*
X154350000Y-84563015D01*
X153650000Y-84563015D01*
X153650000Y-83488115D01*
X153645525Y-83472876D01*
X153644135Y-83471671D01*
X153636452Y-83470000D01*
X152559291Y-83470000D01*
X152545760Y-83473973D01*
X152544323Y-83483966D01*
X148257135Y-83483966D01*
X148292119Y-83353402D01*
X148292119Y-83353400D01*
X148293543Y-83348087D01*
X148313498Y-83120000D01*
X148293543Y-82891913D01*
X148256198Y-82752540D01*
X152545210Y-82752540D01*
X152545423Y-82766644D01*
X152553074Y-82770000D01*
X153631885Y-82770000D01*
X153647124Y-82765525D01*
X153648329Y-82764135D01*
X153650000Y-82756452D01*
X153650000Y-82751885D01*
X154350000Y-82751885D01*
X154354475Y-82767124D01*
X154355865Y-82768329D01*
X154363548Y-82770000D01*
X155440649Y-82770000D01*
X155454180Y-82766027D01*
X155455485Y-82756947D01*
X155426100Y-82639956D01*
X155422782Y-82630209D01*
X155328546Y-82413481D01*
X155323679Y-82404406D01*
X155195317Y-82205988D01*
X155189027Y-82197819D01*
X155029982Y-82023032D01*
X155022449Y-82016007D01*
X154836987Y-81869538D01*
X154828409Y-81863839D01*
X154621518Y-81749630D01*
X154612119Y-81745405D01*
X154389349Y-81666518D01*
X154379400Y-81663889D01*
X154367836Y-81661829D01*
X154354540Y-81663288D01*
X154350000Y-81677844D01*
X154350000Y-82751885D01*
X153650000Y-82751885D01*
X153650000Y-81674338D01*
X153646027Y-81660807D01*
X153639045Y-81659803D01*
X153421652Y-81730859D01*
X153412143Y-81734856D01*
X153202535Y-81843971D01*
X153193810Y-81849465D01*
X153004832Y-81991353D01*
X152997125Y-81998196D01*
X152833858Y-82169047D01*
X152827371Y-82177057D01*
X152694205Y-82372272D01*
X152689112Y-82381236D01*
X152589611Y-82595593D01*
X152586054Y-82605261D01*
X152545210Y-82752540D01*
X148256198Y-82752540D01*
X148235707Y-82676067D01*
X148235706Y-82676065D01*
X148234284Y-82670757D01*
X148231961Y-82665775D01*
X148139849Y-82468238D01*
X148139846Y-82468233D01*
X148137523Y-82463251D01*
X148006198Y-82275700D01*
X147844300Y-82113802D01*
X147839792Y-82110645D01*
X147839789Y-82110643D01*
X147714667Y-82023032D01*
X147656749Y-81982477D01*
X147651767Y-81980154D01*
X147651762Y-81980151D01*
X147454225Y-81888039D01*
X147454224Y-81888039D01*
X147449243Y-81885716D01*
X147443935Y-81884294D01*
X147443933Y-81884293D01*
X147233402Y-81827881D01*
X147233400Y-81827881D01*
X147228087Y-81826457D01*
X147000000Y-81806502D01*
X146771913Y-81826457D01*
X146766600Y-81827881D01*
X146766598Y-81827881D01*
X146556067Y-81884293D01*
X146556065Y-81884294D01*
X146550757Y-81885716D01*
X146545776Y-81888039D01*
X146545775Y-81888039D01*
X146348238Y-81980151D01*
X146348233Y-81980154D01*
X146343251Y-81982477D01*
X146285333Y-82023032D01*
X146160211Y-82110643D01*
X146160208Y-82110645D01*
X146155700Y-82113802D01*
X145993802Y-82275700D01*
X145862477Y-82463251D01*
X145860154Y-82468233D01*
X145860151Y-82468238D01*
X145768039Y-82665775D01*
X145765716Y-82670757D01*
X145764294Y-82676065D01*
X145764293Y-82676067D01*
X145743802Y-82752540D01*
X145706457Y-82891913D01*
X145686502Y-83120000D01*
X129305038Y-83120000D01*
X129301745Y-83089684D01*
X129250615Y-82953295D01*
X129163261Y-82836739D01*
X129050915Y-82752540D01*
X138545210Y-82752540D01*
X138545423Y-82766644D01*
X138553074Y-82770000D01*
X139631885Y-82770000D01*
X139647124Y-82765525D01*
X139648329Y-82764135D01*
X139650000Y-82756452D01*
X139650000Y-82751885D01*
X140350000Y-82751885D01*
X140354475Y-82767124D01*
X140355865Y-82768329D01*
X140363548Y-82770000D01*
X141440649Y-82770000D01*
X141454180Y-82766027D01*
X141455485Y-82756947D01*
X141426100Y-82639956D01*
X141422782Y-82630209D01*
X141328546Y-82413481D01*
X141323679Y-82404406D01*
X141195317Y-82205988D01*
X141189027Y-82197819D01*
X141029982Y-82023032D01*
X141022449Y-82016007D01*
X140836987Y-81869538D01*
X140828409Y-81863839D01*
X140621518Y-81749630D01*
X140612119Y-81745405D01*
X140389349Y-81666518D01*
X140379400Y-81663889D01*
X140367836Y-81661829D01*
X140354540Y-81663288D01*
X140350000Y-81677844D01*
X140350000Y-82751885D01*
X139650000Y-82751885D01*
X139650000Y-81674338D01*
X139646027Y-81660807D01*
X139639045Y-81659803D01*
X139421652Y-81730859D01*
X139412143Y-81734856D01*
X139202535Y-81843971D01*
X139193810Y-81849465D01*
X139004832Y-81991353D01*
X138997125Y-81998196D01*
X138833858Y-82169047D01*
X138827371Y-82177057D01*
X138694205Y-82372272D01*
X138689112Y-82381236D01*
X138589611Y-82595593D01*
X138586054Y-82605261D01*
X138545210Y-82752540D01*
X129050915Y-82752540D01*
X129046705Y-82749385D01*
X128910316Y-82698255D01*
X128848134Y-82691500D01*
X127151866Y-82691500D01*
X127089684Y-82698255D01*
X126953295Y-82749385D01*
X126836739Y-82836739D01*
X126749385Y-82953295D01*
X126698255Y-83089684D01*
X126691500Y-83151866D01*
X126691500Y-84848134D01*
X117308500Y-84848134D01*
X117308500Y-83151866D01*
X117301745Y-83089684D01*
X117250615Y-82953295D01*
X117163261Y-82836739D01*
X117046705Y-82749385D01*
X116910316Y-82698255D01*
X116848134Y-82691500D01*
X115151866Y-82691500D01*
X115089684Y-82698255D01*
X114953295Y-82749385D01*
X114836739Y-82836739D01*
X114749385Y-82953295D01*
X114698255Y-83089684D01*
X114691500Y-83151866D01*
X114691500Y-84848134D01*
X101000000Y-84848134D01*
X101000000Y-78075972D01*
X101020002Y-78007851D01*
X101067188Y-77964540D01*
X103090018Y-76896935D01*
X103159599Y-76882828D01*
X103225009Y-76908004D01*
X103319944Y-76980063D01*
X103395559Y-77037458D01*
X103398177Y-77039069D01*
X103398182Y-77039072D01*
X103444705Y-77067693D01*
X103737187Y-77247629D01*
X104097693Y-77423460D01*
X104100574Y-77424531D01*
X104100580Y-77424534D01*
X104334460Y-77511513D01*
X104473637Y-77563272D01*
X104861430Y-77665731D01*
X104935384Y-77677709D01*
X105254324Y-77729367D01*
X105254331Y-77729368D01*
X105257370Y-77729860D01*
X105260450Y-77730054D01*
X105260452Y-77730054D01*
X105583442Y-77750375D01*
X105583458Y-77750376D01*
X105585437Y-77750500D01*
X105816106Y-77750500D01*
X105817632Y-77750425D01*
X105817647Y-77750425D01*
X105980874Y-77742441D01*
X106115621Y-77735851D01*
X106512418Y-77677257D01*
X106515415Y-77676510D01*
X106515419Y-77676509D01*
X106638874Y-77645728D01*
X106901604Y-77580223D01*
X106904512Y-77579188D01*
X106904517Y-77579186D01*
X107085684Y-77514675D01*
X107279463Y-77445673D01*
X107642390Y-77274893D01*
X107645019Y-77273326D01*
X107645028Y-77273321D01*
X107984285Y-77071082D01*
X107986919Y-77069512D01*
X107989379Y-77067698D01*
X107989387Y-77067693D01*
X108240131Y-76882828D01*
X108309762Y-76831492D01*
X108312045Y-76829436D01*
X108312054Y-76829429D01*
X108605540Y-76565173D01*
X108605548Y-76565165D01*
X108607837Y-76563104D01*
X108878300Y-76266909D01*
X109118568Y-75945736D01*
X109253700Y-75722607D01*
X109324758Y-75605277D01*
X109324763Y-75605268D01*
X109326349Y-75602649D01*
X109375530Y-75500000D01*
X138686502Y-75500000D01*
X138706457Y-75728087D01*
X138765716Y-75949243D01*
X138768039Y-75954224D01*
X138768039Y-75954225D01*
X138860151Y-76151762D01*
X138860154Y-76151767D01*
X138862477Y-76156749D01*
X138993802Y-76344300D01*
X139155700Y-76506198D01*
X139160208Y-76509355D01*
X139160211Y-76509357D01*
X139178880Y-76522429D01*
X139343251Y-76637523D01*
X139348233Y-76639846D01*
X139348238Y-76639849D01*
X139545775Y-76731961D01*
X139550757Y-76734284D01*
X139556065Y-76735706D01*
X139556067Y-76735707D01*
X139766598Y-76792119D01*
X139766600Y-76792119D01*
X139771913Y-76793543D01*
X140000000Y-76813498D01*
X140228087Y-76793543D01*
X140233400Y-76792119D01*
X140233402Y-76792119D01*
X140443933Y-76735707D01*
X140443935Y-76735706D01*
X140449243Y-76734284D01*
X140454225Y-76731961D01*
X140651762Y-76639849D01*
X140651767Y-76639846D01*
X140656749Y-76637523D01*
X140821120Y-76522429D01*
X140839789Y-76509357D01*
X140839792Y-76509355D01*
X140844300Y-76506198D01*
X141006198Y-76344300D01*
X141137523Y-76156749D01*
X141139846Y-76151767D01*
X141139849Y-76151762D01*
X141231961Y-75954225D01*
X141231961Y-75954224D01*
X141234284Y-75949243D01*
X141293543Y-75728087D01*
X141313498Y-75500000D01*
X145686502Y-75500000D01*
X145706457Y-75728087D01*
X145765716Y-75949243D01*
X145768039Y-75954224D01*
X145768039Y-75954225D01*
X145860151Y-76151762D01*
X145860154Y-76151767D01*
X145862477Y-76156749D01*
X145993802Y-76344300D01*
X146155700Y-76506198D01*
X146160208Y-76509355D01*
X146160211Y-76509357D01*
X146178880Y-76522429D01*
X146343251Y-76637523D01*
X146348233Y-76639846D01*
X146348238Y-76639849D01*
X146545775Y-76731961D01*
X146550757Y-76734284D01*
X146556065Y-76735706D01*
X146556067Y-76735707D01*
X146766598Y-76792119D01*
X146766600Y-76792119D01*
X146771913Y-76793543D01*
X147000000Y-76813498D01*
X147228087Y-76793543D01*
X147233400Y-76792119D01*
X147233402Y-76792119D01*
X147443933Y-76735707D01*
X147443935Y-76735706D01*
X147449243Y-76734284D01*
X147454225Y-76731961D01*
X147651762Y-76639849D01*
X147651767Y-76639846D01*
X147656749Y-76637523D01*
X147821120Y-76522429D01*
X147839789Y-76509357D01*
X147839792Y-76509355D01*
X147844300Y-76506198D01*
X148006198Y-76344300D01*
X148137523Y-76156749D01*
X148139846Y-76151767D01*
X148139849Y-76151762D01*
X148231961Y-75954225D01*
X148231961Y-75954224D01*
X148234284Y-75949243D01*
X148293543Y-75728087D01*
X148313498Y-75500000D01*
X152686502Y-75500000D01*
X152706457Y-75728087D01*
X152765716Y-75949243D01*
X152768039Y-75954224D01*
X152768039Y-75954225D01*
X152860151Y-76151762D01*
X152860154Y-76151767D01*
X152862477Y-76156749D01*
X152993802Y-76344300D01*
X153155700Y-76506198D01*
X153160208Y-76509355D01*
X153160211Y-76509357D01*
X153178880Y-76522429D01*
X153343251Y-76637523D01*
X153348233Y-76639846D01*
X153348238Y-76639849D01*
X153545775Y-76731961D01*
X153550757Y-76734284D01*
X153556065Y-76735706D01*
X153556067Y-76735707D01*
X153766598Y-76792119D01*
X153766600Y-76792119D01*
X153771913Y-76793543D01*
X154000000Y-76813498D01*
X154228087Y-76793543D01*
X154233400Y-76792119D01*
X154233402Y-76792119D01*
X154443933Y-76735707D01*
X154443935Y-76735706D01*
X154449243Y-76734284D01*
X154454225Y-76731961D01*
X154651762Y-76639849D01*
X154651767Y-76639846D01*
X154656749Y-76637523D01*
X154821120Y-76522429D01*
X154839789Y-76509357D01*
X154839792Y-76509355D01*
X154844300Y-76506198D01*
X155006198Y-76344300D01*
X155137523Y-76156749D01*
X155139846Y-76151767D01*
X155139849Y-76151762D01*
X155231961Y-75954225D01*
X155231961Y-75954224D01*
X155234284Y-75949243D01*
X155293543Y-75728087D01*
X155313498Y-75500000D01*
X155293543Y-75271913D01*
X155285985Y-75243706D01*
X155235707Y-75056067D01*
X155235706Y-75056065D01*
X155234284Y-75050757D01*
X155231961Y-75045775D01*
X155139849Y-74848238D01*
X155139846Y-74848233D01*
X155137523Y-74843251D01*
X155044434Y-74710306D01*
X155009357Y-74660211D01*
X155009355Y-74660208D01*
X155006198Y-74655700D01*
X154844300Y-74493802D01*
X154839792Y-74490645D01*
X154839789Y-74490643D01*
X154761611Y-74435902D01*
X154656749Y-74362477D01*
X154651767Y-74360154D01*
X154651762Y-74360151D01*
X154454225Y-74268039D01*
X154454224Y-74268039D01*
X154449243Y-74265716D01*
X154443935Y-74264294D01*
X154443933Y-74264293D01*
X154233402Y-74207881D01*
X154233400Y-74207881D01*
X154228087Y-74206457D01*
X154000000Y-74186502D01*
X153771913Y-74206457D01*
X153766600Y-74207881D01*
X153766598Y-74207881D01*
X153556067Y-74264293D01*
X153556065Y-74264294D01*
X153550757Y-74265716D01*
X153545776Y-74268039D01*
X153545775Y-74268039D01*
X153348238Y-74360151D01*
X153348233Y-74360154D01*
X153343251Y-74362477D01*
X153238389Y-74435902D01*
X153160211Y-74490643D01*
X153160208Y-74490645D01*
X153155700Y-74493802D01*
X152993802Y-74655700D01*
X152990645Y-74660208D01*
X152990643Y-74660211D01*
X152955566Y-74710306D01*
X152862477Y-74843251D01*
X152860154Y-74848233D01*
X152860151Y-74848238D01*
X152768039Y-75045775D01*
X152765716Y-75050757D01*
X152764294Y-75056065D01*
X152764293Y-75056067D01*
X152714015Y-75243706D01*
X152706457Y-75271913D01*
X152686502Y-75500000D01*
X148313498Y-75500000D01*
X148293543Y-75271913D01*
X148285985Y-75243706D01*
X148235707Y-75056067D01*
X148235706Y-75056065D01*
X148234284Y-75050757D01*
X148231961Y-75045775D01*
X148139849Y-74848238D01*
X148139846Y-74848233D01*
X148137523Y-74843251D01*
X148044434Y-74710306D01*
X148009357Y-74660211D01*
X148009355Y-74660208D01*
X148006198Y-74655700D01*
X147844300Y-74493802D01*
X147839792Y-74490645D01*
X147839789Y-74490643D01*
X147761611Y-74435902D01*
X147656749Y-74362477D01*
X147651767Y-74360154D01*
X147651762Y-74360151D01*
X147454225Y-74268039D01*
X147454224Y-74268039D01*
X147449243Y-74265716D01*
X147443935Y-74264294D01*
X147443933Y-74264293D01*
X147233402Y-74207881D01*
X147233400Y-74207881D01*
X147228087Y-74206457D01*
X147000000Y-74186502D01*
X146771913Y-74206457D01*
X146766600Y-74207881D01*
X146766598Y-74207881D01*
X146556067Y-74264293D01*
X146556065Y-74264294D01*
X146550757Y-74265716D01*
X146545776Y-74268039D01*
X146545775Y-74268039D01*
X146348238Y-74360151D01*
X146348233Y-74360154D01*
X146343251Y-74362477D01*
X146238389Y-74435902D01*
X146160211Y-74490643D01*
X146160208Y-74490645D01*
X146155700Y-74493802D01*
X145993802Y-74655700D01*
X145990645Y-74660208D01*
X145990643Y-74660211D01*
X145955566Y-74710306D01*
X145862477Y-74843251D01*
X145860154Y-74848233D01*
X145860151Y-74848238D01*
X145768039Y-75045775D01*
X145765716Y-75050757D01*
X145764294Y-75056065D01*
X145764293Y-75056067D01*
X145714015Y-75243706D01*
X145706457Y-75271913D01*
X145686502Y-75500000D01*
X141313498Y-75500000D01*
X141293543Y-75271913D01*
X141285985Y-75243706D01*
X141235707Y-75056067D01*
X141235706Y-75056065D01*
X141234284Y-75050757D01*
X141231961Y-75045775D01*
X141139849Y-74848238D01*
X141139846Y-74848233D01*
X141137523Y-74843251D01*
X141044434Y-74710306D01*
X141009357Y-74660211D01*
X141009355Y-74660208D01*
X141006198Y-74655700D01*
X140844300Y-74493802D01*
X140839792Y-74490645D01*
X140839789Y-74490643D01*
X140761611Y-74435902D01*
X140656749Y-74362477D01*
X140651767Y-74360154D01*
X140651762Y-74360151D01*
X140454225Y-74268039D01*
X140454224Y-74268039D01*
X140449243Y-74265716D01*
X140443935Y-74264294D01*
X140443933Y-74264293D01*
X140233402Y-74207881D01*
X140233400Y-74207881D01*
X140228087Y-74206457D01*
X140000000Y-74186502D01*
X139771913Y-74206457D01*
X139766600Y-74207881D01*
X139766598Y-74207881D01*
X139556067Y-74264293D01*
X139556065Y-74264294D01*
X139550757Y-74265716D01*
X139545776Y-74268039D01*
X139545775Y-74268039D01*
X139348238Y-74360151D01*
X139348233Y-74360154D01*
X139343251Y-74362477D01*
X139238389Y-74435902D01*
X139160211Y-74490643D01*
X139160208Y-74490645D01*
X139155700Y-74493802D01*
X138993802Y-74655700D01*
X138990645Y-74660208D01*
X138990643Y-74660211D01*
X138955566Y-74710306D01*
X138862477Y-74843251D01*
X138860154Y-74848233D01*
X138860151Y-74848238D01*
X138768039Y-75045775D01*
X138765716Y-75050757D01*
X138764294Y-75056065D01*
X138764293Y-75056067D01*
X138714015Y-75243706D01*
X138706457Y-75271913D01*
X138686502Y-75500000D01*
X109375530Y-75500000D01*
X109499658Y-75240924D01*
X109500714Y-75238023D01*
X109635792Y-74866901D01*
X109635793Y-74866898D01*
X109636843Y-74864013D01*
X109640894Y-74848238D01*
X109735830Y-74478483D01*
X109735831Y-74478477D01*
X109736592Y-74475514D01*
X109797955Y-74079136D01*
X109820345Y-73678661D01*
X109809990Y-73431590D01*
X109827122Y-73362692D01*
X109877067Y-73314882D01*
X109972652Y-73264434D01*
X110030921Y-73249867D01*
X130291892Y-73162535D01*
X141201652Y-73115510D01*
X141206799Y-73115594D01*
X141239207Y-73116782D01*
X141332292Y-73120196D01*
X141332296Y-73120196D01*
X141337456Y-73120385D01*
X141342575Y-73119729D01*
X141342581Y-73119729D01*
X141373863Y-73115722D01*
X141389328Y-73114702D01*
X143604518Y-73105153D01*
X143630174Y-73107680D01*
X143651981Y-73112117D01*
X143657156Y-73112307D01*
X143657158Y-73112307D01*
X143872292Y-73120196D01*
X143872296Y-73120196D01*
X143877456Y-73120385D01*
X143882576Y-73119729D01*
X143882578Y-73119729D01*
X144002304Y-73104392D01*
X144017771Y-73103372D01*
X146091818Y-73094432D01*
X146117481Y-73096960D01*
X146157752Y-73105153D01*
X146191981Y-73112117D01*
X146318976Y-73116774D01*
X146412292Y-73120196D01*
X146412296Y-73120196D01*
X146417456Y-73120385D01*
X146422576Y-73119729D01*
X146422578Y-73119729D01*
X146630745Y-73093063D01*
X146646212Y-73092043D01*
X148579123Y-73083711D01*
X148604786Y-73086239D01*
X148638328Y-73093063D01*
X148731981Y-73112117D01*
X148858976Y-73116774D01*
X148952292Y-73120196D01*
X148952296Y-73120196D01*
X148957456Y-73120385D01*
X148962576Y-73119729D01*
X148962578Y-73119729D01*
X149056626Y-73107681D01*
X149181253Y-73091716D01*
X149186204Y-73090231D01*
X149186207Y-73090230D01*
X149192098Y-73088462D01*
X149199653Y-73086196D01*
X149235316Y-73080882D01*
X149878981Y-73078108D01*
X151066427Y-73072990D01*
X151092090Y-73075518D01*
X151178328Y-73093063D01*
X151271981Y-73112117D01*
X151398976Y-73116774D01*
X151492292Y-73120196D01*
X151492296Y-73120196D01*
X151497456Y-73120385D01*
X151502576Y-73119729D01*
X151502578Y-73119729D01*
X151596626Y-73107681D01*
X151721253Y-73091716D01*
X151726207Y-73090230D01*
X151726215Y-73090228D01*
X151776678Y-73075088D01*
X151812340Y-73069774D01*
X153557132Y-73062254D01*
X153590267Y-73066898D01*
X153590884Y-73067134D01*
X153595957Y-73068166D01*
X153595960Y-73068167D01*
X153658457Y-73080882D01*
X153811981Y-73112117D01*
X153817156Y-73112307D01*
X153817158Y-73112307D01*
X154032292Y-73120196D01*
X154032296Y-73120196D01*
X154037456Y-73120385D01*
X154042576Y-73119729D01*
X154042578Y-73119729D01*
X154136626Y-73107681D01*
X154261253Y-73091716D01*
X154353708Y-73063978D01*
X154389364Y-73058667D01*
X156066002Y-73051440D01*
X156111491Y-73059729D01*
X156130884Y-73067134D01*
X156351981Y-73112117D01*
X156357156Y-73112307D01*
X156357158Y-73112307D01*
X156572292Y-73120196D01*
X156572296Y-73120196D01*
X156577456Y-73120385D01*
X156582576Y-73119729D01*
X156582578Y-73119729D01*
X156676626Y-73107681D01*
X156801253Y-73091716D01*
X156930733Y-73052870D01*
X156966389Y-73047559D01*
X158577651Y-73040614D01*
X158623141Y-73048903D01*
X158666046Y-73065287D01*
X158666051Y-73065288D01*
X158670884Y-73067134D01*
X158675952Y-73068165D01*
X158675955Y-73068166D01*
X158738457Y-73080882D01*
X158891981Y-73112117D01*
X158897156Y-73112307D01*
X158897158Y-73112307D01*
X159112292Y-73120196D01*
X159112296Y-73120196D01*
X159117456Y-73120385D01*
X159122576Y-73119729D01*
X159122578Y-73119729D01*
X159336125Y-73092373D01*
X159336126Y-73092373D01*
X159341253Y-73091716D01*
X159507758Y-73041762D01*
X159543413Y-73036451D01*
X161089300Y-73029788D01*
X161134787Y-73038076D01*
X161210884Y-73067134D01*
X161215952Y-73068165D01*
X161215955Y-73068166D01*
X161278457Y-73080882D01*
X161431981Y-73112117D01*
X161437156Y-73112307D01*
X161437158Y-73112307D01*
X161652292Y-73120196D01*
X161652296Y-73120196D01*
X161657456Y-73120385D01*
X161662576Y-73119729D01*
X161662578Y-73119729D01*
X161756626Y-73107681D01*
X161881253Y-73091716D01*
X162084779Y-73030655D01*
X162120440Y-73025343D01*
X162321187Y-73024478D01*
X163600948Y-73018961D01*
X163646437Y-73027250D01*
X163750884Y-73067134D01*
X163755952Y-73068165D01*
X163755955Y-73068166D01*
X163818457Y-73080882D01*
X163971981Y-73112117D01*
X163977156Y-73112307D01*
X163977158Y-73112307D01*
X164192292Y-73120196D01*
X164192296Y-73120196D01*
X164197456Y-73120385D01*
X164202576Y-73119729D01*
X164202578Y-73119729D01*
X164296626Y-73107681D01*
X164421253Y-73091716D01*
X164426202Y-73090231D01*
X164426208Y-73090230D01*
X164632410Y-73028366D01*
X164637363Y-73026880D01*
X164642007Y-73024605D01*
X164646240Y-73022946D01*
X164691672Y-73014260D01*
X164811528Y-73013743D01*
X165710452Y-73009869D01*
X165776830Y-73028435D01*
X165958725Y-73139900D01*
X165967519Y-73144381D01*
X166185754Y-73234776D01*
X166195139Y-73237825D01*
X166307385Y-73264773D01*
X166321470Y-73264068D01*
X166325000Y-73255189D01*
X166325000Y-73007220D01*
X167025000Y-73004203D01*
X167025000Y-73250887D01*
X167028973Y-73264418D01*
X167038431Y-73265778D01*
X167154861Y-73237825D01*
X167164246Y-73234776D01*
X167382481Y-73144381D01*
X167391275Y-73139900D01*
X167586827Y-73020066D01*
X167652118Y-73001500D01*
X167769766Y-73000992D01*
X167873458Y-73000545D01*
X167941663Y-73020253D01*
G37*
G04 #@! TD.AperFunction*
M02*
