M48
; DRILL file {KiCad 6.0.10-86aedd382b~118~ubuntu20.04.1} date Sun 08 Jan 2023 12:17:37 AM PST
; FORMAT={-:-/ absolute / metric / decimal}
; #@! TF.CreationDate,2023-01-08T00:17:37-08:00
; #@! TF.GenerationSoftware,Kicad,Pcbnew,6.0.10-86aedd382b~118~ubuntu20.04.1
; #@! TF.FileFunction,Plated,1,2,PTH
FMAT,2
METRIC
; #@! TA.AperFunction,Plated,PTH,ComponentDrill
T1C0.800
; #@! TA.AperFunction,Plated,PTH,ComponentDrill
T2C1.016
; #@! TA.AperFunction,Plated,PTH,ComponentDrill
T3C1.100
; #@! TA.AperFunction,Plated,PTH,ComponentDrill
T4C1.200
; #@! TA.AperFunction,Plated,PTH,ComponentDrill
T5C1.300
%
G90
G05
T1
X116.0Y-84.0
X116.0Y-89.0
X128.0Y-84.0
X128.0Y-89.0
X140.0Y-75.5
X140.0Y-83.12
X144.46Y-89.0
X147.0Y-75.5
X147.0Y-83.12
X147.0Y-89.0
X149.54Y-89.0
X154.0Y-75.5
X154.0Y-83.12
T2
X110.795Y-69.205
X110.795Y-71.745
X110.795Y-117.465
X110.795Y-120.005
X113.335Y-69.205
X113.335Y-71.745
X113.335Y-117.465
X113.335Y-120.005
X115.875Y-69.205
X115.875Y-71.745
X115.875Y-117.465
X115.875Y-120.005
X118.415Y-69.205
X118.415Y-71.745
X118.415Y-117.465
X118.415Y-120.005
X120.955Y-69.205
X120.955Y-71.745
X120.955Y-117.465
X120.955Y-120.005
X123.495Y-69.205
X123.495Y-71.745
X123.495Y-117.465
X123.495Y-120.005
X126.035Y-69.205
X126.035Y-71.745
X126.035Y-117.465
X126.035Y-120.005
X128.575Y-69.205
X128.575Y-71.745
X128.575Y-117.465
X128.575Y-120.005
X131.115Y-69.205
X131.115Y-71.745
X131.115Y-117.465
X131.115Y-120.005
X133.655Y-69.205
X133.655Y-71.745
X133.655Y-117.465
X133.655Y-120.005
X136.195Y-69.205
X136.195Y-71.745
X136.195Y-117.465
X136.195Y-120.005
X138.735Y-69.205
X138.735Y-71.745
X138.735Y-117.465
X138.735Y-120.005
X141.275Y-69.205
X141.275Y-71.745
X141.275Y-117.465
X141.275Y-120.005
X143.815Y-69.205
X143.815Y-71.745
X143.815Y-117.465
X143.815Y-120.005
X146.355Y-69.205
X146.355Y-71.745
X146.355Y-117.465
X146.355Y-120.005
X148.895Y-69.205
X148.895Y-71.745
X148.895Y-117.465
X148.895Y-120.005
X151.435Y-69.205
X151.435Y-71.745
X151.435Y-117.465
X151.435Y-120.005
X153.975Y-69.205
X153.975Y-71.745
X153.975Y-117.465
X153.975Y-120.005
X156.515Y-69.205
X156.515Y-71.745
X156.515Y-117.465
X156.515Y-120.005
X159.055Y-69.205
X159.055Y-71.745
X159.055Y-117.465
X159.055Y-120.005
X161.595Y-69.205
X161.595Y-71.745
X161.595Y-117.465
X161.595Y-120.005
X164.135Y-69.205
X164.135Y-71.745
X164.135Y-117.465
X164.135Y-120.005
X166.675Y-69.205
X166.675Y-71.745
X166.675Y-117.465
X166.675Y-120.005
T3
X152.0Y-97.78
X152.0Y-105.4
T4
X107.0Y-95.77
X107.0Y-99.58
X107.0Y-103.39
X107.0Y-107.2
T5
X117.7Y-105.42
X120.9Y-97.8
X124.1Y-105.42
X143.0Y-97.8
X143.0Y-105.42
T0
M30
